ZalandoSans.glyphspackage
{
color = 3;
glyphname = exclam;
kernLeft = exclam;
kernRight = exclam;
layers = (
{
layerId = m007;
shapes = (
{
closed = 1;
nodes = (
(160,191,l),
(176,470,l),
(176,714,l),
(105,714,l),
(105,470,l),
(121,191,l)
);
},
{
pos = (10,0);
ref = period;
}
);
width = 281;
},
{
layerId = "7DF63F5B-BA78-420A-94D8-89AFC26E7780";
shapes = (
{
closed = 1;
nodes = (
(170,206,l),
(193,473,l),
(193,714,l),
(91,714,l),
(91,473,l),
(113,206,l)
);
},
{
pos = (10,0);
ref = period;
}
);
width = 283;
},
{
layerId = "CF630257-B204-4765-8982-527F59E4E5D4";
shapes = (
{
closed = 1;
nodes = (
(156,188,l),
(171,493,l),
(171,714,l),
(108,714,l),
(108,493,l),
(123,188,l)
);
},
{
pos = (10,0);
ref = period;
}
);
width = 279;
},
{
layerId = "89792DEA-715D-4C6B-9843-C33DBACDCF53";
shapes = (
{
closed = 1;
nodes = (
(135,188,l),
(150,468,l),
(150,714,l),
(90,714,l),
(90,468,l),
(105,188,l)
);
},
{
alignment = -1;
pos = (10,0);
ref = period;
}
);
width = 240;
},
{
layerId = "F5B2086A-EC1C-45D9-9613-A3504CEE232E";
shapes = (
{
closed = 1;
nodes = (
(147,201,l),
(167,471,l),
(167,714,l),
(79,714,l),
(79,471,l),
(100,201,l)
);
},
{
alignment = -1;
pos = (10,0);
ref = period;
}
);
width = 245;
},
{
layerId = "FEA946D2-303E-4050-8628-E645DE71E218";
shapes = (
{
closed = 1;
nodes = (
(173,204,l),
(195,471,l),
(195,714,l),
(99,714,l),
(99,471,l),
(120,204,l)
);
},
{
alignment = -1;
pos = (10,0);
ref = period;
}
);
width = 294;
},
{
layerId = "3A742E95-6392-47DA-98D0-C770A5889573";
shapes = (
{
closed = 1;
nodes = (
(124,188,l),
(188,468,l),
(231,714,l),
(171,714,l),
(128,468,l),
(94,188,l)
);
},
{
alignment = -1;
pos = (10,0);
ref = period;
}
);
width = 240;
},
{
layerId = "DA512DF4-6FCD-4164-96D6-05DE8967F50A";
shapes = (
{
closed = 1;
nodes = (
(164,204,l),
(233,471,l),
(275,714,l),
(180,714,l),
(137,471,l),
(111,204,l)
);
},
{
alignment = -1;
pos = (10,0);
ref = period;
}
);
width = 294;
},
{
layerId = "0A603DC7-0F9F-4E29-AC1C-80B527B5555F";
shapes = (
{
closed = 1;
nodes = (
(137,200,l),
(204,473,l),
(246,714,l),
(161,714,l),
(119,473,l),
(90,200,l)
);
},
{
alignment = -1;
pos = (10,0);
ref = period;
}
);
width = 245;
},
{
layerId = "38E57698-3E0D-47EE-AD12-065B63128021";
shapes = (
{
closed = 1;
nodes = (
(145,188,l),
(213,493,l),
(252,714,l),
(189,714,l),
(150,493,l),
(112,188,l)
);
},
{
pos = (10,0);
ref = period;
}
);
width = 280;
},
{
layerId = "7B4F6316-DEA5-4C61-853A-FCC6E55FB2E9";
shapes = (
{
closed = 1;
nodes = (
(149,191,l),
(214,470,l),
(257,714,l),
(186,714,l),
(143,470,l),
(110,191,l)
);
},
{
pos = (10,0);
ref = period;
}
);
width = 281;
},
{
layerId = "FF0E7F91-EBB7-4227-9826-320229507C52";
shapes = (
{
closed = 1;
nodes = (
(161,206,l),
(231,476,l),
(273,714,l),
(172,714,l),
(130,476,l),
(104,206,l)
);
},
{
alignment = -1;
pos = (10,0);
ref = period;
}
);
width = 283;
},
{
layerId = "F74FB5BD-F4A6-4696-AECE-814F0CF1BFBE";
shapes = (
{
closed = 1;
nodes = (
(215,251,l),
(253,497,l),
(253,714,l),
(59,714,l),
(59,497,l),
(98,251,l)
);
},
{
alignment = -1;
pos = (16,0);
ref = period;
}
);
width = 312;
},
{
layerId = "3E78BF7E-2ACA-4E8F-B7F7-8733FDFDD1D6";
shapes = (
{
closed = 1;
nodes = (
(232,251,l),
(264,496,l),
(264,714,l),
(64,714,l),
(64,496,l),
(96,251,l)
);
},
{
alignment = -1;
pos = (10,0);
ref = period;
}
);
width = 327;
},
{
layerId = "CEA8704A-49A9-4D73-A586-1E9554ACC001";
shapes = (
{
closed = 1;
nodes = (
(243,270,l),
(291,504,l),
(291,714,l),
(64,714,l),
(64,504,l),
(111,270,l)
);
},
{
alignment = -1;
pos = (15,0);
ref = period;
}
);
width = 355;
},
{
layerId = "5974A488-68BA-4ECA-A629-BBB8F5E8E8D7";
shapes = (
{
closed = 1;
nodes = (
(214,251,l),
(294,497,l),
(333,714,l),
(139,714,l),
(100,497,l),
(96,251,l)
);
},
{
alignment = -1;
pos = (15,0);
ref = period;
}
);
width = 311;
},
{
layerId = "406F15BE-EF31-460D-8EE8-85AD72A74E98";
shapes = (
{
closed = 1;
nodes = (
(231,251,l),
(307,496,l),
(345,714,l),
(145,714,l),
(107,496,l),
(96,251,l)
);
},
{
alignment = -1;
pos = (10,0);
ref = period;
}
);
width = 328;
},
{
layerId = "974B3D67-9F33-42CE-B7A8-3E18495C5B4F";
shapes = (
{
closed = 1;
nodes = (
(245,270,l),
(334,504,l),
(371,714,l),
(145,714,l),
(109,504,l),
(113,270,l)
);
},
{
alignment = -1;
pos = (15,0);
ref = period;
}
);
width = 354;
}
);
metricLeft = "=period+10";
metricRight = "=period+10";
unicode = 33;
}
{
color = 6;
glyphname = quotedbl;
kernLeft = quote;
kernRight = quote;
layers = (
{
layerId = m007;
shapes = (
{
closed = 1;
nodes = (
(137,463,l),
(137,714,l),
(71,714,l),
(71,463,l)
);
},
{
closed = 1;
nodes = (
(324,463,l),
(324,714,l),
(259,714,l),
(259,463,l)
);
}
);
width = 395;
},
{
layerId = "7DF63F5B-BA78-420A-94D8-89AFC26E7780";
shapes = (
{
closed = 1;
nodes = (
(158,443,l),
(158,714,l),
(66,714,l),
(66,443,l)
);
},
{
closed = 1;
nodes = (
(355,443,l),
(355,714,l),
(263,714,l),
(263,443,l)
);
}
);
width = 421;
},
{
layerId = "CF630257-B204-4765-8982-527F59E4E5D4";
shapes = (
{
closed = 1;
nodes = (
(136,469,l),
(136,714,l),
(77,714,l),
(77,469,l)
);
},
{
closed = 1;
nodes = (
(295,469,l),
(295,714,l),
(236,714,l),
(236,469,l)
);
}
);
width = 371;
},
{
layerId = "89792DEA-715D-4C6B-9843-C33DBACDCF53";
shapes = (
{
closed = 1;
nodes = (
(118,467,l),
(118,714,l),
(62,714,l),
(62,467,l)
);
},
{
closed = 1;
nodes = (
(258,467,l),
(258,714,l),
(202,714,l),
(202,467,l)
);
}
);
width = 320;
},
{
layerId = "F5B2086A-EC1C-45D9-9613-A3504CEE232E";
shapes = (
{
closed = 1;
nodes = (
(137,447,l),
(137,714,l),
(56,714,l),
(56,447,l)
);
},
{
closed = 1;
nodes = (
(297,447,l),
(297,714,l),
(216,714,l),
(216,447,l)
);
}
);
width = 353;
},
{
layerId = "FEA946D2-303E-4050-8628-E645DE71E218";
shapes = (
{
closed = 1;
nodes = (
(157,446,l),
(157,714,l),
(71,714,l),
(71,446,l)
);
},
{
closed = 1;
nodes = (
(345,446,l),
(345,714,l),
(259,714,l),
(259,446,l)
);
}
);
width = 415;
},
{
layerId = "3A742E95-6392-47DA-98D0-C770A5889573";
shapes = (
{
closed = 1;
nodes = (
(155,467,l),
(199,714,l),
(143,714,l),
(99,467,l)
);
},
{
closed = 1;
nodes = (
(295,467,l),
(339,714,l),
(283,714,l),
(239,467,l)
);
}
);
width = 320;
},
{
layerId = "DA512DF4-6FCD-4164-96D6-05DE8967F50A";
shapes = (
{
closed = 1;
nodes = (
(191,446,l),
(238,714,l),
(152,714,l),
(105,446,l)
);
},
{
closed = 1;
nodes = (
(378,446,l),
(425,714,l),
(340,714,l),
(293,446,l)
);
}
);
width = 415;
},
{
layerId = "0A603DC7-0F9F-4E29-AC1C-80B527B5555F";
shapes = (
{
closed = 1;
nodes = (
(171,447,l),
(219,714,l),
(138,714,l),
(90,447,l)
);
},
{
closed = 1;
nodes = (
(331,447,l),
(379,714,l),
(298,714,l),
(250,447,l)
);
}
);
width = 354;
},
{
layerId = "38E57698-3E0D-47EE-AD12-065B63128021";
shapes = (
{
closed = 1;
nodes = (
(173,469,l),
(216,714,l),
(157,714,l),
(114,469,l)
);
},
{
closed = 1;
nodes = (
(333,469,l),
(375,714,l),
(316,714,l),
(273,469,l)
);
}
);
width = 371;
},
{
layerId = "7B4F6316-DEA5-4C61-853A-FCC6E55FB2E9";
shapes = (
{
closed = 1;
nodes = (
(173,463,l),
(218,714,l),
(153,714,l),
(108,463,l)
);
},
{
closed = 1;
nodes = (
(361,463,l),
(406,714,l),
(341,714,l),
(296,463,l)
);
}
);
width = 397;
},
{
layerId = "FF0E7F91-EBB7-4227-9826-320229507C52";
shapes = (
{
closed = 1;
nodes = (
(191,443,l),
(239,714,l),
(147,714,l),
(99,443,l)
);
},
{
closed = 1;
nodes = (
(388,443,l),
(436,714,l),
(344,714,l),
(296,443,l)
);
}
);
width = 421;
},
{
layerId = "F74FB5BD-F4A6-4696-AECE-814F0CF1BFBE";
shapes = (
{
closed = 1;
nodes = (
(200,406,l),
(200,714,l),
(45,714,l),
(45,406,l)
);
},
{
closed = 1;
nodes = (
(412,406,l),
(412,714,l),
(257,714,l),
(257,406,l)
);
}
);
width = 457;
},
{
layerId = "3E78BF7E-2ACA-4E8F-B7F7-8733FDFDD1D6";
shapes = (
{
closed = 1;
nodes = (
(218,406,l),
(218,714,l),
(60,714,l),
(60,406,l)
);
},
{
closed = 1;
nodes = (
(436,406,l),
(436,714,l),
(277,714,l),
(277,406,l)
);
}
);
width = 497;
},
{
layerId = "CEA8704A-49A9-4D73-A586-1E9554ACC001";
shapes = (
{
closed = 1;
nodes = (
(240,386,l),
(240,714,l),
(55,714,l),
(55,386,l)
);
},
{
closed = 1;
nodes = (
(511,386,l),
(511,714,l),
(326,714,l),
(326,386,l)
);
}
);
width = 566;
},
{
layerId = "5974A488-68BA-4ECA-A629-BBB8F5E8E8D7";
shapes = (
{
closed = 1;
nodes = (
(226,406,l),
(281,714,l),
(126,714,l),
(71,406,l)
);
},
{
closed = 1;
nodes = (
(438,406,l),
(493,714,l),
(338,714,l),
(283,406,l)
);
}
);
width = 457;
},
{
layerId = "406F15BE-EF31-460D-8EE8-85AD72A74E98";
shapes = (
{
closed = 1;
nodes = (
(245,406,l),
(299,714,l),
(141,714,l),
(87,406,l)
);
},
{
closed = 1;
nodes = (
(463,406,l),
(517,714,l),
(358,714,l),
(305,406,l)
);
}
);
width = 498;
},
{
layerId = "974B3D67-9F33-42CE-B7A8-3E18495C5B4F";
shapes = (
{
closed = 1;
nodes = (
(262,386,l),
(320,714,l),
(136,714,l),
(78,386,l)
);
},
{
closed = 1;
nodes = (
(533,386,l),
(591,714,l),
(407,714,l),
(349,386,l)
);
}
);
width = 566;
}
);
unicode = 34;
}
{
color = 6;
glyphname = numbersign;
kernLeft = number;
kernRight = number;
layers = (
{
layerId = m007;
shapes = (
{
closed = 1;
nodes = (
(629,0,l),
(755,714,l),
(695,714,l),
(569,0,l)
);
},
{
closed = 1;
nodes = (
(279,0,l),
(406,714,l),
(345,714,l),
(218,0,l)
);
},
{
closed = 1;
nodes = (
(860,216,l),
(868,271,l),
(75,271,l),
(67,216,l)
);
},
{
closed = 1;
nodes = (
(897,444,l),
(905,499,l),
(112,499,l),
(104,444,l)
);
}
);
width = 972;
},
{
layerId = "7DF63F5B-BA78-420A-94D8-89AFC26E7780";
shapes = (
{
closed = 1;
nodes = (
(640,0,l),
(765,714,l),
(678,714,l),
(553,0,l)
);
},
{
closed = 1;
nodes = (
(293,0,l),
(419,714,l),
(332,714,l),
(205,0,l)
);
},
{
closed = 1;
nodes = (
(863,204,l),
(875,279,l),
(73,279,l),
(61,204,l)
);
},
{
closed = 1;
nodes = (
(898,435,l),
(910,510,l),
(108,510,l),
(96,435,l)
);
}
);
width = 971;
},
{
layerId = "CF630257-B204-4765-8982-527F59E4E5D4";
shapes = (
{
closed = 1;
nodes = (
(435,0,l),
(560,714,l),
(509,714,l),
(384,0,l)
);
},
{
closed = 1;
nodes = (
(212,0,l),
(339,714,l),
(288,714,l),
(161,0,l)
);
},
{
closed = 1;
nodes = (
(613,218,l),
(622,267,l),
(68,267,l),
(61,218,l)
);
},
{
closed = 1;
nodes = (
(652,447,l),
(660,496,l),
(108,496,l),
(100,447,l)
);
}
);
width = 721;
},
{
layerId = "89792DEA-715D-4C6B-9843-C33DBACDCF53";
shapes = (
{
closed = 1;
nodes = (
(324,0,l),
(452,726,l),
(403,726,l),
(274,0,l)
);
},
{
closed = 1;
nodes = (
(161,0,l),
(290,726,l),
(240,726,l),
(112,0,l)
);
},
{
closed = 1;
nodes = (
(463,226,l),
(472,273,l),
(63,273,l),
(54,226,l)
);
},
{
closed = 1;
nodes = (
(497,453,l),
(506,500,l),
(97,500,l),
(89,453,l)
);
}
);
width = 560;
},
{
layerId = "F5B2086A-EC1C-45D9-9613-A3504CEE232E";
shapes = (
{
closed = 1;
nodes = (
(354,0,l),
(482,726,l),
(414,726,l),
(287,0,l)
);
},
{
closed = 1;
nodes = (
(180,0,l),
(307,726,l),
(239,726,l),
(111,0,l)
);
},
{
closed = 1;
nodes = (
(495,216,l),
(506,283,l),
(60,283,l),
(49,216,l)
);
},
{
closed = 1;
nodes = (
(529,444,l),
(541,510,l),
(96,510,l),
(85,444,l)
);
}
);
width = 590;
},
{
layerId = "FEA946D2-303E-4050-8628-E645DE71E218";
shapes = (
{
closed = 1;
nodes = (
(473,0,l),
(600,714,l),
(520,714,l),
(395,0,l)
);
},
{
closed = 1;
nodes = (
(236,0,l),
(361,714,l),
(284,714,l),
(158,0,l)
);
},
{
closed = 1;
nodes = (
(649,209,l),
(662,282,l),
(68,282,l),
(56,209,l)
);
},
{
closed = 1;
nodes = (
(687,432,l),
(699,505,l),
(106,505,l),
(93,432,l)
);
}
);
width = 755;
},
{
layerId = "3A742E95-6392-47DA-98D0-C770A5889573";
shapes = (
{
closed = 1;
nodes = (
(117,0,l),
(374,726,l),
(322,726,l),
(66,0,l)
);
},
{
closed = 1;
nodes = (
(280,0,l),
(536,726,l),
(485,726,l),
(228,0,l)
);
},
{
closed = 1;
nodes = (
(458,226,l),
(475,273,l),
(66,273,l),
(49,226,l)
);
},
{
closed = 1;
nodes = (
(532,453,l),
(549,500,l),
(140,500,l),
(124,453,l)
);
}
);
width = 560;
},
{
layerId = "DA512DF4-6FCD-4164-96D6-05DE8967F50A";
shapes = (
{
closed = 1;
nodes = (
(190,0,l),
(442,714,l),
(364,714,l),
(112,0,l)
);
},
{
closed = 1;
nodes = (
(427,0,l),
(680,714,l),
(601,714,l),
(349,0,l)
);
},
{
closed = 1;
nodes = (
(641,209,l),
(653,282,l),
(60,282,l),
(48,209,l)
);
},
{
closed = 1;
nodes = (
(718,432,l),
(730,505,l),
(136,505,l),
(123,432,l)
);
}
);
width = 744;
},
{
layerId = "0A603DC7-0F9F-4E29-AC1C-80B527B5555F";
shapes = (
{
closed = 1;
nodes = (
(133,0,l),
(390,726,l),
(320,726,l),
(64,0,l)
);
},
{
closed = 1;
nodes = (
(306,0,l),
(562,726,l),
(493,726,l),
(236,0,l)
);
},
{
closed = 1;
nodes = (
(481,217,l),
(504,278,l),
(64,278,l),
(42,217,l)
);
},
{
closed = 1;
nodes = (
(557,448,l),
(580,510,l),
(140,510,l),
(119,448,l)
);
}
);
width = 584;
},
{
layerId = "38E57698-3E0D-47EE-AD12-065B63128021";
shapes = (
{
closed = 1;
nodes = (
(167,0,l),
(420,714,l),
(369,714,l),
(116,0,l)
);
},
{
closed = 1;
nodes = (
(390,0,l),
(642,714,l),
(591,714,l),
(339,0,l)
);
},
{
closed = 1;
nodes = (
(607,218,l),
(615,267,l),
(63,267,l),
(55,218,l)
);
},
{
closed = 1;
nodes = (
(686,447,l),
(695,496,l),
(143,496,l),
(135,447,l)
);
}
);
width = 714;
},
{
layerId = "7B4F6316-DEA5-4C61-853A-FCC6E55FB2E9";
shapes = (
{
closed = 1;
nodes = (
(235,0,l),
(487,714,l),
(425,714,l),
(173,0,l)
);
},
{
closed = 1;
nodes = (
(584,0,l),
(835,714,l),
(775,714,l),
(524,0,l)
);
},
{
closed = 1;
nodes = (
(853,216,l),
(863,271,l),
(70,271,l),
(60,216,l)
);
},
{
closed = 1;
nodes = (
(929,444,l),
(939,499,l),
(147,499,l),
(137,444,l)
);
}
);
width = 964;
},
{
layerId = "FF0E7F91-EBB7-4227-9826-320229507C52";
shapes = (
{
closed = 1;
nodes = (
(247,0,l),
(499,714,l),
(416,714,l),
(164,0,l)
);
},
{
closed = 1;
nodes = (
(602,0,l),
(853,714,l),
(771,714,l),
(520,0,l)
);
},
{
closed = 1;
nodes = (
(863,206,l),
(875,278,l),
(66,278,l),
(53,206,l)
);
},
{
closed = 1;
nodes = (
(939,437,l),
(953,509,l),
(143,509,l),
(130,437,l)
);
}
);
width = 970;
},
{
layerId = "F74FB5BD-F4A6-4696-AECE-814F0CF1BFBE";
shapes = (
{
closed = 1;
nodes = (
(467,0,l),
(594,726,l),
(459,726,l),
(330,0,l)
);
},
{
closed = 1;
nodes = (
(250,0,l),
(378,726,l),
(242,726,l),
(113,0,l)
);
},
{
closed = 1;
nodes = (
(608,176,l),
(629,302,l),
(58,302,l),
(37,176,l)
);
},
{
closed = 1;
nodes = (
(647,424,l),
(670,551,l),
(99,551,l),
(78,424,l)
);
}
);
width = 707;
},
{
layerId = "3E78BF7E-2ACA-4E8F-B7F7-8733FDFDD1D6";
shapes = (
{
closed = 1;
nodes = (
(540,0,l),
(666,714,l),
(523,714,l),
(398,0,l)
);
},
{
closed = 1;
nodes = (
(281,0,l),
(408,714,l),
(264,714,l),
(138,0,l)
);
},
{
closed = 1;
nodes = (
(697,167,l),
(719,301,l),
(68,301,l),
(45,167,l)
);
},
{
closed = 1;
nodes = (
(735,413,l),
(760,547,l),
(108,547,l),
(85,413,l)
);
}
);
width = 804;
},
{
layerId = "CEA8704A-49A9-4D73-A586-1E9554ACC001";
shapes = (
{
closed = 1;
nodes = (
(719,0,l),
(844,714,l),
(675,714,l),
(550,0,l)
);
},
{
closed = 1;
nodes = (
(341,0,l),
(466,714,l),
(298,714,l),
(172,0,l)
);
},
{
closed = 1;
nodes = (
(919,163,l),
(942,306,l),
(62,306,l),
(39,163,l)
);
},
{
closed = 1;
nodes = (
(954,408,l),
(977,551,l),
(98,551,l),
(75,408,l)
);
}
);
width = 1016;
},
{
layerId = "5974A488-68BA-4ECA-A629-BBB8F5E8E8D7";
shapes = (
{
closed = 1;
nodes = (
(208,0,l),
(464,726,l),
(322,726,l),
(65,0,l)
);
},
{
closed = 1;
nodes = (
(425,0,l),
(680,726,l),
(539,726,l),
(282,0,l)
);
},
{
closed = 1;
nodes = (
(593,176,l),
(637,302,l),
(66,302,l),
(22,176,l)
);
},
{
closed = 1;
nodes = (
(677,424,l),
(722,551,l),
(151,551,l),
(108,424,l)
);
}
);
width = 707;
},
{
layerId = "406F15BE-EF31-460D-8EE8-85AD72A74E98";
shapes = (
{
closed = 1;
nodes = (
(236,0,l),
(488,714,l),
(345,714,l),
(92,0,l)
);
},
{
closed = 1;
nodes = (
(495,0,l),
(747,714,l),
(604,714,l),
(352,0,l)
);
},
{
closed = 1;
nodes = (
(681,167,l),
(705,301,l),
(52,301,l),
(29,167,l)
);
},
{
closed = 1;
nodes = (
(763,413,l),
(786,547,l),
(136,547,l),
(112,413,l)
);
}
);
width = 780;
},
{
layerId = "974B3D67-9F33-42CE-B7A8-3E18495C5B4F";
shapes = (
{
closed = 1;
nodes = (
(297,0,l),
(549,714,l),
(380,714,l),
(129,0,l)
);
},
{
closed = 1;
nodes = (
(675,0,l),
(926,714,l),
(757,714,l),
(506,0,l)
);
},
{
closed = 1;
nodes = (
(903,163,l),
(927,306,l),
(47,306,l),
(23,163,l)
);
},
{
closed = 1;
nodes = (
(981,408,l),
(1006,551,l),
(128,551,l),
(102,408,l)
);
}
);
width = 992;
}
);
unicode = 35;
}
{
color = 3;
glyphname = dollar;
layers = (
{
layerId = m007;
shapes = (
{
alignment = -1;
ref = S;
},
{
closed = 1;
nodes = (
(452,-102,l),
(452,814,l),
(388,814,l),
(388,-102,l)
);
}
);
width = 824;
},
{
layerId = "7DF63F5B-BA78-420A-94D8-89AFC26E7780";
shapes = (
{
alignment = -1;
ref = S;
},
{
closed = 1;
nodes = (
(455,-102,l),
(455,814,l),
(377,814,l),
(377,-102,l)
);
}
);
width = 832;
},
{
layerId = "CF630257-B204-4765-8982-527F59E4E5D4";
shapes = (
{
ref = S;
},
{
closed = 1;
nodes = (
(358,-102,l),
(358,814,l),
(302,814,l),
(302,-102,l)
);
}
);
width = 652;
},
{
associatedMasterId = "CF630257-B204-4765-8982-527F59E4E5D4";
attr = {
axisRules = (
{
max = 90;
min = 75;
},
{
min = 134;
},
{
}
);
};
layerId = "171B14B4-1E8F-4BB0-B473-D708B2A0F4AB";
name = "10 Oct 24 at 16:04";
shapes = (
{
ref = S;
},
{
closed = 1;
nodes = (
(358,705,l),
(358,814,l),
(302,814,l),
(302,705,l)
);
},
{
closed = 1;
nodes = (
(358,-102,l),
(358,17,l),
(302,17,l),
(302,-102,l)
);
}
);
width = 652;
},
{
associatedMasterId = m007;
attr = {
axisRules = (
{
max = 90;
min = 75;
},
{
min = 134;
},
{
}
);
};
layerId = "21357394-D7F7-4255-BB88-7AD5481F9440";
name = "10 Oct 24 at 16:05";
shapes = (
{
alignment = -1;
ref = S;
},
{
closed = 1;
nodes = (
(452,702,l),
(452,814,l),
(388,814,l),
(388,702,l)
);
},
{
closed = 1;
nodes = (
(452,-102,l),
(452,18,l),
(388,18,l),
(388,-102,l)
);
}
);
width = 824;
},
{
associatedMasterId = "7DF63F5B-BA78-420A-94D8-89AFC26E7780";
attr = {
axisRules = (
{
max = 90;
min = 75;
},
{
min = 134;
},
{
}
);
};
layerId = "602A8200-E7B4-42DD-8A49-940E33A02BAA";
name = "10 Oct 24 at 16:05";
shapes = (
{
alignment = -1;
ref = S;
},
{
closed = 1;
nodes = (
(455,690,l),
(455,814,l),
(377,814,l),
(377,690,l)
);
},
{
closed = 1;
nodes = (
(455,-102,l),
(455,24,l),
(377,24,l),
(377,-102,l)
);
}
);
width = 832;
},
{
layerId = "89792DEA-715D-4C6B-9843-C33DBACDCF53";
shapes = (
{
alignment = -1;
ref = S;
},
{
closed = 1;
nodes = (
(267,-102,l),
(267,814,l),
(214,814,l),
(214,-102,l)
);
}
);
width = 483;
},
{
layerId = "F5B2086A-EC1C-45D9-9613-A3504CEE232E";
shapes = (
{
alignment = -1;
ref = S;
},
{
closed = 1;
nodes = (
(267,-102,l),
(267,814,l),
(211,814,l),
(211,-102,l)
);
}
);
width = 487;
},
{
associatedMasterId = "89792DEA-715D-4C6B-9843-C33DBACDCF53";
attr = {
axisRules = (
{
max = 90;
min = 75;
},
{
min = 134;
},
{
}
);
};
layerId = "A6A99890-4AE1-4C7B-8339-1A3AD840ED22";
name = "16 Oct 24 at 14:33";
shapes = (
{
alignment = -1;
ref = S;
},
{
closed = 1;
nodes = (
(267,692,l),
(267,814,l),
(214,814,l),
(214,692,l)
);
},
{
closed = 1;
nodes = (
(267,-102,l),
(267,29,l),
(214,29,l),
(214,-102,l)
);
}
);
width = 483;
},
{
associatedMasterId = "F5B2086A-EC1C-45D9-9613-A3504CEE232E";
attr = {
axisRules = (
{
max = 90;
min = 75;
},
{
min = 134;
},
{
}
);
};
layerId = "B303495A-C5EA-4E58-B622-908D5982B65A";
name = "16 Oct 24 at 14:34";
shapes = (
{
alignment = -1;
ref = S;
},
{
closed = 1;
nodes = (
(267,684,l),
(267,814,l),
(211,814,l),
(211,684,l)
);
},
{
closed = 1;
nodes = (
(267,-102,l),
(267,32,l),
(211,32,l),
(211,-102,l)
);
}
);
width = 487;
},
{
layerId = "FEA946D2-303E-4050-8628-E645DE71E218";
shapes = (
{
alignment = -1;
ref = S;
},
{
closed = 1;
nodes = (
(375,-102,l),
(375,814,l),
(302,814,l),
(302,-102,l)
);
}
);
width = 673;
},
{
associatedMasterId = "FEA946D2-303E-4050-8628-E645DE71E218";
attr = {
axisRules = (
{
max = 90;
min = 75;
},
{
min = 134;
},
{
}
);
};
layerId = "EE90A69A-C878-40BE-96F9-A122B196DEB7";
name = "1 Nov 24 at 10:14";
shapes = (
{
alignment = -1;
ref = S;
},
{
closed = 1;
nodes = (
(375,689,l),
(375,814,l),
(302,814,l),
(302,689,l)
);
},
{
closed = 1;
nodes = (
(375,-102,l),
(375,42,l),
(302,42,l),
(302,-102,l)
);
}
);
width = 673;
},
{
layerId = "3A742E95-6392-47DA-98D0-C770A5889573";
shapes = (
{
alignment = -1;
ref = S;
},
{
closed = 1;
nodes = (
(199,-102,l),
(361,814,l),
(308,814,l),
(146,-102,l)
);
}
);
width = 485;
},
{
associatedMasterId = "3A742E95-6392-47DA-98D0-C770A5889573";
attr = {
axisRules = (
{
max = 90;
min = 75;
},
{
min = 134;
},
{
}
);
};
layerId = "E56B86F7-9E29-4581-AD3E-1C5B0D3EC633";
name = "16 Oct 24 at 14:33";
shapes = (
{
alignment = -1;
ref = S;
},
{
closed = 1;
nodes = (
(339,692,l),
(361,814,l),
(308,814,l),
(286,692,l)
);
},
{
closed = 1;
nodes = (
(199,-102,l),
(222,29,l),
(169,29,l),
(146,-102,l)
);
}
);
width = 485;
},
{
layerId = "DA512DF4-6FCD-4164-96D6-05DE8967F50A";
shapes = (
{
alignment = -1;
ref = S;
},
{
closed = 1;
nodes = (
(294,-102,l),
(455,814,l),
(381,814,l),
(220,-102,l)
);
}
);
width = 662;
},
{
associatedMasterId = "DA512DF4-6FCD-4164-96D6-05DE8967F50A";
attr = {
axisRules = (
{
max = 90;
min = 75;
},
{
min = 134;
},
{
}
);
};
layerId = "26C4318C-9FA8-4B03-9B12-722F798C2065";
name = "1 Nov 24 at 10:17";
shapes = (
{
alignment = -1;
ref = S;
},
{
closed = 1;
nodes = (
(433,691,l),
(455,814,l),
(381,814,l),
(359,691,l)
);
},
{
closed = 1;
nodes = (
(294,-102,l),
(319,41,l),
(245,41,l),
(220,-102,l)
);
}
);
width = 662;
},
{
layerId = "0A603DC7-0F9F-4E29-AC1C-80B527B5555F";
shapes = (
{
alignment = -1;
ref = S;
},
{
closed = 1;
nodes = (
(202,-102,l),
(364,814,l),
(312,814,l),
(150,-102,l)
);
}
);
width = 485;
},
{
associatedMasterId = "0A603DC7-0F9F-4E29-AC1C-80B527B5555F";
attr = {
axisRules = (
{
max = 90;
min = 75;
},
{
min = 134;
},
{
}
);
};
layerId = "8F1E2E3A-1845-4F01-A258-525C25722973";
name = "21 Nov 24 at 15:05";
shapes = (
{
alignment = -1;
ref = S;
},
{
closed = 1;
nodes = (
(345,684,l),
(368,814,l),
(312,814,l),
(289,684,l)
);
},
{
closed = 1;
nodes = (
(206,-102,l),
(230,32,l),
(174,32,l),
(150,-102,l)
);
}
);
width = 485;
},
{
layerId = "38E57698-3E0D-47EE-AD12-065B63128021";
shapes = (
{
ref = S;
},
{
closed = 1;
nodes = (
(277,-102,l),
(439,814,l),
(383,814,l),
(221,-102,l)
);
}
);
width = 644;
},
{
associatedMasterId = "38E57698-3E0D-47EE-AD12-065B63128021";
attr = {
axisRules = (
{
max = 90;
min = 75;
},
{
min = 134;
},
{
}
);
};
layerId = "828C0B7A-38AD-4FD5-87B5-278040970A0D";
name = "25 Oct 24 at 11:27";
shapes = (
{
ref = S;
},
{
closed = 1;
nodes = (
(418,698,l),
(439,814,l),
(383,814,l),
(362,698,l)
);
},
{
closed = 1;
nodes = (
(277,-102,l),
(300,23,l),
(244,23,l),
(221,-102,l)
);
}
);
width = 644;
},
{
layerId = "7B4F6316-DEA5-4C61-853A-FCC6E55FB2E9";
shapes = (
{
alignment = -1;
ref = S;
},
{
closed = 1;
nodes = (
(372,-102,l),
(533,814,l),
(469,814,l),
(308,-102,l)
);
}
);
width = 819;
},
{
associatedMasterId = "7B4F6316-DEA5-4C61-853A-FCC6E55FB2E9";
attr = {
axisRules = (
{
max = 90;
min = 75;
},
{
min = 134;
},
{
}
);
};
layerId = "7F2C0F50-DA3B-4764-8560-94EA5E761624";
name = "10 Oct 24 at 16:05";
shapes = (
{
alignment = -1;
ref = S;
},
{
closed = 1;
nodes = (
(513,702,l),
(532,814,l),
(469,814,l),
(450,702,l)
);
},
{
closed = 1;
nodes = (
(371,-102,l),
(393,18,l),
(329,18,l),
(308,-102,l)
);
}
);
width = 819;
},
{
layerId = "FF0E7F91-EBB7-4227-9826-320229507C52";
shapes = (
{
alignment = -1;
ref = S;
},
{
closed = 1;
nodes = (
(383,-102,l),
(544,814,l),
(466,814,l),
(305,-102,l)
);
}
);
width = 831;
},
{
associatedMasterId = "FF0E7F91-EBB7-4227-9826-320229507C52";
attr = {
axisRules = (
{
max = 90;
min = 75;
},
{
min = 134;
},
{
}
);
};
layerId = "2F2E80AD-4FED-4FEA-8137-66D9872E0CFD";
name = "30 Oct 24 at 09:17";
shapes = (
{
alignment = -1;
ref = S;
},
{
closed = 1;
nodes = (
(523,698,l),
(544,814,l),
(466,814,l),
(446,698,l)
);
},
{
closed = 1;
nodes = (
(383,-102,l),
(407,38,l),
(329,38,l),
(305,-102,l)
);
}
);
width = 831;
},
{
layerId = "F74FB5BD-F4A6-4696-AECE-814F0CF1BFBE";
name = "16 Oct 24 at 14:33";
shapes = (
{
alignment = -1;
ref = S;
},
{
closed = 1;
nodes = (
(283,-102,l),
(283,814,l),
(238,814,l),
(238,-102,l)
);
}
);
width = 526;
},
{
layerId = "3E78BF7E-2ACA-4E8F-B7F7-8733FDFDD1D6";
shapes = (
{
alignment = -1;
ref = S;
},
{
closed = 1;
nodes = (
(382,-102,l),
(382,814,l),
(311,814,l),
(311,-102,l)
);
}
);
width = 686;
},
{
layerId = "CEA8704A-49A9-4D73-A586-1E9554ACC001";
shapes = (
{
alignment = -1;
ref = S;
},
{
closed = 1;
nodes = (
(495,-102,l),
(495,814,l),
(364,814,l),
(364,-102,l)
);
}
);
width = 880;
},
{
layerId = "5974A488-68BA-4ECA-A629-BBB8F5E8E8D7";
name = "16 Oct 24 at 14:33";
shapes = (
{
alignment = -1;
ref = S;
},
{
closed = 1;
nodes = (
(216,-102,l),
(378,814,l),
(333,814,l),
(171,-102,l)
);
}
);
width = 530;
},
{
layerId = "406F15BE-EF31-460D-8EE8-85AD72A74E98";
shapes = (
{
alignment = -1;
ref = S;
},
{
closed = 1;
nodes = (
(301,-102,l),
(462,814,l),
(391,814,l),
(229,-102,l)
);
}
);
width = 682;
},
{
layerId = "974B3D67-9F33-42CE-B7A8-3E18495C5B4F";
shapes = (
{
alignment = -1;
ref = S;
},
{
closed = 1;
nodes = (
(425,-102,l),
(586,814,l),
(456,814,l),
(295,-102,l)
);
}
);
width = 880;
},
{
associatedMasterId = "F74FB5BD-F4A6-4696-AECE-814F0CF1BFBE";
attr = {
axisRules = (
{
max = 90;
min = 75;
},
{
min = 134;
},
{
}
);
};
layerId = "A6FB2A26-1F0A-4FE3-BBD5-D9494672584C";
name = "25 Nov 24 at 14:04";
shapes = (
{
alignment = -1;
ref = S;
},
{
closed = 1;
nodes = (
(346,703,l),
(346,847,l),
(181,847,l),
(181,703,l)
);
},
{
closed = 1;
nodes = (
(346,-135,l),
(346,61,l),
(181,61,l),
(181,-135,l)
);
}
);
width = 526;
},
{
associatedMasterId = "3E78BF7E-2ACA-4E8F-B7F7-8733FDFDD1D6";
attr = {
axisRules = (
{
max = 90;
min = 75;
},
{
min = 134;
},
{
}
);
};
layerId = "7311C5DE-D735-4B36-A9E8-230FC15B9AC5";
name = "25 Nov 24 at 14:04";
shapes = (
{
alignment = -1;
ref = S;
},
{
closed = 1;
nodes = (
(421,638,l),
(421,814,l),
(264,814,l),
(264,638,l)
);
},
{
closed = 1;
nodes = (
(421,-102,l),
(421,57,l),
(264,57,l),
(264,-102,l)
);
}
);
width = 686;
},
{
associatedMasterId = "CEA8704A-49A9-4D73-A586-1E9554ACC001";
attr = {
axisRules = (
{
max = 90;
min = 75;
},
{
min = 134;
},
{
}
);
};
layerId = "E09D999A-95E0-46AA-92DD-B3DBE74D5B94";
name = "25 Nov 24 at 14:05";
shapes = (
{
alignment = -1;
ref = S;
},
{
closed = 1;
nodes = (
(518,657,l),
(518,814,l),
(349,814,l),
(349,657,l)
);
},
{
closed = 1;
nodes = (
(518,-102,l),
(518,72,l),
(349,72,l),
(349,-102,l)
);
}
);
width = 880;
},
{
associatedMasterId = "5974A488-68BA-4ECA-A629-BBB8F5E8E8D7";
attr = {
axisRules = (
{
max = 90;
min = 75;
},
{
min = 134;
},
{
}
);
};
layerId = "018AF2D5-5904-4C33-9D9D-754E547735DF";
name = "25 Nov 24 at 14:05";
shapes = (
{
alignment = -1;
ref = S;
},
{
closed = 1;
nodes = (
(417,703,l),
(442,847,l),
(278,847,l),
(252,703,l)
);
},
{
closed = 1;
nodes = (
(268,-135,l),
(303,61,l),
(139,61,l),
(104,-135,l)
);
}
);
width = 530;
},
{
associatedMasterId = "406F15BE-EF31-460D-8EE8-85AD72A74E98";
attr = {
axisRules = (
{
max = 90;
min = 75;
},
{
min = 134;
},
{
}
);
};
layerId = "208551C5-E957-4FE2-8C3C-A4B0E0F08E57";
name = "25 Nov 24 at 14:06";
shapes = (
{
alignment = -1;
ref = S;
},
{
closed = 1;
nodes = (
(479,638,l),
(510,814,l),
(353,814,l),
(322,638,l)
);
},
{
closed = 1;
nodes = (
(349,-102,l),
(376,57,l),
(219,57,l),
(192,-102,l)
);
}
);
width = 682;
},
{
associatedMasterId = "974B3D67-9F33-42CE-B7A8-3E18495C5B4F";
attr = {
axisRules = (
{
max = 90;
min = 75;
},
{
min = 134;
},
{
}
);
};
layerId = "9CFB515C-4A5A-4B26-B839-C21B3012F6FA";
name = "25 Nov 24 at 14:06";
shapes = (
{
alignment = -1;
ref = S;
},
{
closed = 1;
nodes = (
(592,657,l),
(619,814,l),
(450,814,l),
(422,657,l)
);
},
{
closed = 1;
nodes = (
(458,-102,l),
(489,72,l),
(319,72,l),
(289,-102,l)
);
}
);
width = 880;
}
);
metricLeft = S;
metricRight = S;
unicode = 36;
}
{
color = 6;
glyphname = percent;
kernLeft = percent;
layers = (
{
layerId = m007;
shapes = (
{
closed = 1;
nodes = (
(300,0,l),
(869,714,l),
(793,714,l),
(223,0,l)
);
},
{
closed = 1;
nodes = (
(402,356,o),
(490,430,o),
(490,542,cs),
(490,652,o),
(402,725,o),
(274,725,cs),
(148,725,o),
(60,652,o),
(60,542,cs),
(60,430,o),
(148,356,o),
(274,356,cs)
);
},
{
closed = 1;
nodes = (
(176,408,o),
(123,466,o),
(123,542,cs),
(123,617,o),
(176,673,o),
(274,673,cs),
(373,673,o),
(426,617,o),
(426,542,cs),
(426,466,o),
(372,408,o),
(274,408,cs)
);
},
{
closed = 1;
nodes = (
(942,-11,o),
(1029,62,o),
(1029,173,cs),
(1029,285,o),
(942,358,o),
(815,358,cs),
(689,358,o),
(601,285,o),
(601,173,cs),
(601,62,o),
(689,-11,o),
(815,-11,cs)
);
},
{
closed = 1;
nodes = (
(717,41,o),
(663,99,o),
(663,173,cs),
(663,249,o),
(717,306,o),
(815,306,cs),
(913,306,o),
(967,249,o),
(967,173,cs),
(967,99,o),
(913,41,o),
(815,41,cs)
);
}
);
width = 1089;
},
{
layerId = "7DF63F5B-BA78-420A-94D8-89AFC26E7780";
shapes = (
{
closed = 1;
nodes = (
(321,0,l),
(890,714,l),
(789,714,l),
(221,0,l)
);
},
{
closed = 1;
nodes = (
(404,352,o),
(493,427,o),
(493,540,cs),
(493,652,o),
(404,725,o),
(274,725,cs),
(145,725,o),
(56,652,o),
(56,540,cs),
(56,427,o),
(145,352,o),
(274,352,cs)
);
},
{
closed = 1;
nodes = (
(187,418,o),
(140,470,o),
(140,540,cs),
(140,609,o),
(187,660,o),
(274,660,cs),
(362,660,o),
(409,609,o),
(409,540,cs),
(409,470,o),
(361,418,o),
(274,418,cs)
);
},
{
closed = 1;
nodes = (
(965,-11,o),
(1053,62,o),
(1053,175,cs),
(1053,288,o),
(965,362,o),
(835,362,cs),
(706,362,o),
(617,288,o),
(617,175,cs),
(617,62,o),
(706,-11,o),
(835,-11,cs)
);
},
{
closed = 1;
nodes = (
(748,55,o),
(700,106,o),
(700,175,cs),
(700,245,o),
(748,296,o),
(835,296,cs),
(922,296,o),
(970,245,o),
(970,175,cs),
(970,106,o),
(922,55,o),
(835,55,cs)
);
}
);
width = 1109;
},
{
layerId = "CF630257-B204-4765-8982-527F59E4E5D4";
shapes = (
{
closed = 1;
nodes = (
(244,0,l),
(707,714,l),
(645,714,l),
(183,0,l)
);
},
{
closed = 1;
nodes = (
(321,358,o),
(385,434,o),
(385,542,cs),
(385,647,o),
(321,724,o),
(220,724,cs),
(120,724,o),
(56,647,o),
(56,542,cs),
(56,434,o),
(120,358,o),
(220,358,cs)
);
},
{
closed = 1;
nodes = (
(141,405,o),
(109,470,o),
(109,542,cs),
(109,613,o),
(141,678,o),
(220,678,cs),
(301,678,o),
(332,613,o),
(332,542,cs),
(332,470,o),
(301,405,o),
(220,405,cs)
);
},
{
closed = 1;
nodes = (
(769,-10,o),
(832,65,o),
(832,173,cs),
(832,278,o),
(769,356,o),
(668,356,cs),
(568,356,o),
(504,278,o),
(504,173,cs),
(504,65,o),
(568,-10,o),
(668,-10,cs)
);
},
{
closed = 1;
nodes = (
(589,37,o),
(557,102,o),
(557,173,cs),
(557,245,o),
(589,310,o),
(668,310,cs),
(749,310,o),
(779,245,o),
(779,173,cs),
(779,102,o),
(749,37,o),
(668,37,cs)
);
}
);
width = 888;
},
{
layerId = "89792DEA-715D-4C6B-9843-C33DBACDCF53";
shapes = (
{
closed = 1;
nodes = (
(222,0,l),
(590,714,l),
(532,714,l),
(165,0,l)
);
},
{
closed = 1;
nodes = (
(257,359,o),
(313,420,o),
(313,543,cs),
(313,665,o),
(257,726,o),
(181,726,cs),
(104,726,o),
(48,665,o),
(48,543,cs),
(48,420,o),
(104,359,o),
(181,359,cs)
);
},
{
closed = 1;
nodes = (
(123,403,o),
(101,458,o),
(101,543,cs),
(101,627,o),
(123,682,o),
(181,682,cs),
(238,682,o),
(260,627,o),
(260,543,cs),
(260,458,o),
(238,403,o),
(181,403,cs)
);
},
{
closed = 1;
nodes = (
(653,-12,o),
(709,50,o),
(709,171,cs),
(709,294,o),
(653,355,o),
(576,355,cs),
(501,355,o),
(445,294,o),
(445,171,cs),
(445,50,o),
(501,-12,o),
(576,-12,cs)
);
},
{
closed = 1;
nodes = (
(520,32,o),
(498,88,o),
(498,171,cs),
(498,256,o),
(520,312,o),
(576,312,cs),
(633,312,o),
(656,256,o),
(656,171,cs),
(656,88,o),
(633,32,o),
(576,32,cs)
);
}
);
width = 757;
},
{
layerId = "F5B2086A-EC1C-45D9-9613-A3504CEE232E";
shapes = (
{
closed = 1;
nodes = (
(248,0,l),
(617,714,l),
(538,714,l),
(169,0,l)
);
},
{
closed = 1;
nodes = (
(267,354,o),
(327,416,o),
(327,540,cs),
(327,664,o),
(267,726,o),
(185,726,cs),
(103,726,o),
(43,664,o),
(43,540,cs),
(43,416,o),
(103,354,o),
(185,354,cs)
);
},
{
closed = 1;
nodes = (
(138,412,o),
(116,461,o),
(116,540,cs),
(116,619,o),
(138,668,o),
(185,668,cs),
(233,668,o),
(254,619,o),
(254,540,cs),
(254,461,o),
(233,412,o),
(185,412,cs)
);
},
{
closed = 1;
nodes = (
(685,-12,o),
(746,51,o),
(746,173,cs),
(746,298,o),
(685,360,o),
(603,360,cs),
(520,360,o),
(460,298,o),
(460,173,cs),
(460,51,o),
(520,-12,o),
(603,-12,cs)
);
},
{
closed = 1;
nodes = (
(555,46,o),
(534,94,o),
(534,173,cs),
(534,253,o),
(555,301,o),
(603,301,cs),
(651,301,o),
(671,253,o),
(671,173,cs),
(671,94,o),
(650,46,o),
(603,46,cs)
);
}
);
width = 788;
},
{
layerId = "FEA946D2-303E-4050-8628-E645DE71E218";
shapes = (
{
closed = 1;
nodes = (
(262,0,l),
(725,714,l),
(631,714,l),
(169,0,l)
);
},
{
closed = 1;
nodes = (
(323,358,o),
(386,434,o),
(386,540,cs),
(386,646,o),
(323,724,o),
(219,724,cs),
(114,724,o),
(51,646,o),
(51,540,cs),
(51,434,o),
(114,358,o),
(219,358,cs)
);
},
{
closed = 1;
nodes = (
(158,420,o),
(127,471,o),
(127,540,cs),
(127,608,o),
(158,662,o),
(219,662,cs),
(280,662,o),
(309,608,o),
(309,540,cs),
(309,471,o),
(278,420,o),
(219,420,cs)
);
},
{
closed = 1;
nodes = (
(778,-10,o),
(840,65,o),
(840,171,cs),
(840,277,o),
(778,356,o),
(674,356,cs),
(568,356,o),
(505,277,o),
(505,171,cs),
(505,65,o),
(568,-10,o),
(674,-10,cs)
);
},
{
closed = 1;
nodes = (
(612,52,o),
(582,103,o),
(582,171,cs),
(582,240,o),
(612,294,o),
(674,294,cs),
(734,294,o),
(764,240,o),
(764,171,cs),
(764,103,o),
(733,52,o),
(674,52,cs)
);
}
);
width = 891;
},
{
layerId = "3A742E95-6392-47DA-98D0-C770A5889573";
shapes = (
{
closed = 1;
nodes = (
(184,0,l),
(678,714,l),
(615,714,l),
(122,0,l)
);
},
{
closed = 1;
nodes = (
(330,359,o),
(368,503,o),
(368,587,cs),
(368,677,o),
(328,726,o),
(256,726,cs),
(134,726,o),
(95,581,o),
(95,499,cs),
(95,410,o),
(137,359,o),
(208,359,cs)
);
},
{
closed = 1;
nodes = (
(164,404,o),
(148,441,o),
(148,496,cs),
(148,559,o),
(167,683,o),
(254,683,cs),
(299,683,o),
(315,645,o),
(315,589,cs),
(315,525,o),
(296,404,o),
(208,404,cs)
);
},
{
closed = 1;
nodes = (
(665,-12,o),
(703,132,o),
(703,216,cs),
(703,306,o),
(663,355,o),
(591,355,cs),
(469,355,o),
(430,210,o),
(430,128,cs),
(430,39,o),
(472,-12,o),
(543,-12,cs)
);
},
{
closed = 1;
nodes = (
(499,33,o),
(483,70,o),
(483,125,cs),
(483,188,o),
(502,312,o),
(589,312,cs),
(634,312,o),
(650,274,o),
(650,218,cs),
(650,154,o),
(631,33,o),
(543,33,cs)
);
}
);
width = 763;
},
{
layerId = "DA512DF4-6FCD-4164-96D6-05DE8967F50A";
shapes = (
{
closed = 1;
nodes = (
(236,0,l),
(823,714,l),
(730,714,l),
(142,0,l)
);
},
{
closed = 1;
nodes = (
(373,358,o),
(446,451,o),
(446,563,cs),
(446,656,o),
(386,724,o),
(291,724,cs),
(176,724,o),
(101,630,o),
(101,519,cs),
(101,425,o),
(161,358,o),
(256,358,cs)
);
},
{
closed = 1;
nodes = (
(211,421,o),
(177,457,o),
(177,522,cs),
(177,610,o),
(225,662,o),
(288,662,cs),
(335,662,o),
(369,624,o),
(369,558,cs),
(369,467,o),
(320,421,o),
(259,421,cs)
);
},
{
closed = 1;
nodes = (
(789,-13,o),
(862,80,o),
(862,192,cs),
(862,285,o),
(802,353,o),
(707,353,cs),
(593,353,o),
(517,259,o),
(517,148,cs),
(517,54,o),
(577,-13,o),
(672,-13,cs)
);
},
{
closed = 1;
nodes = (
(627,50,o),
(594,86,o),
(594,151,cs),
(594,239,o),
(642,291,o),
(704,291,cs),
(751,291,o),
(785,253,o),
(785,187,cs),
(785,96,o),
(736,50,o),
(675,50,cs)
);
}
);
width = 928;
},
{
layerId = "0A603DC7-0F9F-4E29-AC1C-80B527B5555F";
shapes = (
{
closed = 1;
nodes = (
(211,0,l),
(706,714,l),
(622,714,l),
(127,0,l)
);
},
{
closed = 1;
nodes = (
(340,355,o),
(382,496,o),
(382,584,cs),
(382,677,o),
(338,726,o),
(262,726,cs),
(135,726,o),
(92,585,o),
(92,499,cs),
(92,407,o),
(137,355,o),
(212,355,cs)
);
},
{
closed = 1;
nodes = (
(176,410,o),
(162,443,o),
(162,493,cs),
(162,551,o),
(179,673,o),
(258,673,cs),
(297,673,o),
(312,639,o),
(312,589,cs),
(312,529,o),
(294,410,o),
(214,410,cs)
);
},
{
closed = 1;
nodes = (
(698,-12,o),
(740,129,o),
(740,217,cs),
(740,309,o),
(697,359,o),
(621,359,cs),
(494,359,o),
(451,218,o),
(451,131,cs),
(451,39,o),
(496,-12,o),
(571,-12,cs)
);
},
{
closed = 1;
nodes = (
(535,43,o),
(521,75,o),
(521,125,cs),
(521,184,o),
(538,305,o),
(617,305,cs),
(656,305,o),
(670,272,o),
(670,221,cs),
(670,162,o),
(653,43,o),
(573,43,cs)
);
}
);
width = 797;
},
{
layerId = "38E57698-3E0D-47EE-AD12-065B63128021";
shapes = (
{
closed = 1;
nodes = (
(218,0,l),
(807,714,l),
(738,714,l),
(151,0,l)
);
},
{
closed = 1;
nodes = (
(361,358,o),
(432,448,o),
(432,562,cs),
(432,656,o),
(378,724,o),
(287,724,cs),
(181,724,o),
(106,632,o),
(106,520,cs),
(106,430,o),
(165,358,o),
(253,358,cs)
);
},
{
closed = 1;
nodes = (
(199,404,o),
(159,449,o),
(159,522,cs),
(159,604,o),
(211,678,o),
(284,678,cs),
(336,678,o),
(379,635,o),
(379,562,cs),
(379,476,o),
(326,404,o),
(256,404,cs)
);
},
{
closed = 1;
nodes = (
(776,-12,o),
(848,78,o),
(848,192,cs),
(848,286,o),
(794,354,o),
(702,354,cs),
(596,354,o),
(521,262,o),
(521,150,cs),
(521,60,o),
(580,-12,o),
(668,-12,cs)
);
},
{
closed = 1;
nodes = (
(614,34,o),
(574,79,o),
(574,152,cs),
(574,234,o),
(626,308,o),
(699,308,cs),
(751,308,o),
(795,265,o),
(795,192,cs),
(795,106,o),
(742,34,o),
(671,34,cs)
);
}
);
width = 919;
},
{
layerId = "7B4F6316-DEA5-4C61-853A-FCC6E55FB2E9";
shapes = (
{
closed = 1;
nodes = (
(264,0,l),
(959,714,l),
(875,714,l),
(181,0,l)
);
},
{
closed = 1;
nodes = (
(453,356,o),
(544,445,o),
(544,561,cs),
(544,659,o),
(460,725,o),
(345,725,cs),
(204,725,o),
(110,634,o),
(110,522,cs),
(110,422,o),
(192,356,o),
(309,356,cs)
);
},
{
closed = 1;
nodes = (
(231,408,o),
(173,455,o),
(173,526,cs),
(173,612,o),
(243,673,o),
(340,673,cs),
(420,673,o),
(480,628,o),
(480,557,cs),
(480,467,o),
(408,408,o),
(314,408,cs)
);
},
{
closed = 1;
nodes = (
(936,-11,o),
(1027,78,o),
(1027,194,cs),
(1027,292,o),
(944,358,o),
(828,358,cs),
(687,358,o),
(594,267,o),
(594,155,cs),
(594,55,o),
(675,-11,o),
(793,-11,cs)
);
},
{
closed = 1;
nodes = (
(714,41,o),
(657,88,o),
(657,159,cs),
(657,245,o),
(726,306,o),
(823,306,cs),
(904,306,o),
(964,261,o),
(964,190,cs),
(964,100,o),
(891,41,o),
(798,41,cs)
);
}
);
width = 1102;
},
{
layerId = "FF0E7F91-EBB7-4227-9826-320229507C52";
shapes = (
{
closed = 1;
nodes = (
(290,0,l),
(983,714,l),
(875,714,l),
(181,0,l)
);
},
{
closed = 1;
nodes = (
(450,352,o),
(546,438,o),
(546,558,cs),
(546,658,o),
(461,725,o),
(344,725,cs),
(206,725,o),
(107,638,o),
(107,521,cs),
(107,419,o),
(191,352,o),
(309,352,cs)
);
},
{
closed = 1;
nodes = (
(241,418,o),
(190,460,o),
(190,526,cs),
(190,604,o),
(251,660,o),
(338,660,cs),
(410,660,o),
(463,618,o),
(463,553,cs),
(463,471,o),
(400,418,o),
(315,418,cs)
);
},
{
closed = 1;
nodes = (
(959,-11,o),
(1056,74,o),
(1056,195,cs),
(1056,295,o),
(970,362,o),
(854,362,cs),
(716,362,o),
(616,274,o),
(616,157,cs),
(616,56,o),
(700,-11,o),
(818,-11,cs)
);
},
{
closed = 1;
nodes = (
(750,54,o),
(699,97,o),
(699,162,cs),
(699,241,o),
(761,296,o),
(848,296,cs),
(920,296,o),
(973,255,o),
(973,190,cs),
(973,108,o),
(909,54,o),
(824,54,cs)
);
}
);
width = 1127;
},
{
layerId = "F74FB5BD-F4A6-4696-AECE-814F0CF1BFBE";
shapes = (
{
closed = 1;
nodes = (
(363,0,l),
(737,714,l),
(571,714,l),
(196,0,l)
);
},
{
closed = 1;
nodes = (
(320,337,o),
(397,401,o),
(397,532,cs),
(397,664,o),
(320,728,o),
(214,728,cs),
(107,728,o),
(31,664,o),
(31,532,cs),
(31,401,o),
(107,337,o),
(214,337,cs)
);
},
{
closed = 1;
nodes = (
(196,437,o),
(186,458,o),
(186,532,cs),
(186,611,o),
(196,628,o),
(214,628,cs),
(233,628,o),
(243,611,o),
(243,532,cs),
(243,458,o),
(233,437,o),
(214,437,cs)
);
},
{
closed = 1;
nodes = (
(826,-14,o),
(903,49,o),
(903,182,cs),
(903,313,o),
(826,377,o),
(720,377,cs),
(612,377,o),
(535,313,o),
(535,182,cs),
(535,49,o),
(612,-14,o),
(720,-14,cs)
);
},
{
closed = 1;
nodes = (
(701,86,o),
(691,104,o),
(691,182,cs),
(691,258,o),
(701,277,o),
(720,277,cs),
(737,277,o),
(748,258,o),
(748,182,cs),
(748,104,o),
(737,86,o),
(720,86,cs)
);
}
);
width = 933;
},
{
layerId = "3E78BF7E-2ACA-4E8F-B7F7-8733FDFDD1D6";
shapes = (
{
closed = 1;
nodes = (
(311,0,l),
(773,714,l),
(610,714,l),
(148,0,l)
);
},
{
closed = 1;
nodes = (
(329,354,o),
(392,430,o),
(392,541,cs),
(392,650,o),
(329,727,o),
(210,727,cs),
(91,727,o),
(29,650,o),
(29,541,cs),
(29,430,o),
(91,354,o),
(210,354,cs)
);
},
{
closed = 1;
nodes = (
(187,465,o),
(177,491,o),
(177,541,cs),
(177,591,o),
(187,615,o),
(210,615,cs),
(234,615,o),
(243,591,o),
(243,541,cs),
(243,491,o),
(234,465,o),
(210,465,cs)
);
},
{
closed = 1;
nodes = (
(829,-13,o),
(891,63,o),
(891,172,cs),
(891,284,o),
(829,360,o),
(710,360,cs),
(591,360,o),
(527,284,o),
(527,172,cs),
(527,63,o),
(591,-13,o),
(710,-13,cs)
);
},
{
closed = 1;
nodes = (
(686,98,o),
(676,122,o),
(676,172,cs),
(676,222,o),
(686,249,o),
(710,249,cs),
(732,249,o),
(743,222,o),
(743,172,cs),
(743,122,o),
(732,98,o),
(710,98,cs)
);
}
);
width = 920;
},
{
layerId = "CEA8704A-49A9-4D73-A586-1E9554ACC001";
shapes = (
{
closed = 1;
nodes = (
(411,0,l),
(979,714,l),
(783,714,l),
(215,0,l)
);
},
{
closed = 1;
nodes = (
(417,337,o),
(507,413,o),
(507,531,cs),
(507,650,o),
(417,725,o),
(276,725,cs),
(135,725,o),
(45,650,o),
(45,531,cs),
(45,413,o),
(135,337,o),
(276,337,cs)
);
},
{
closed = 1;
nodes = (
(231,458,o),
(207,484,o),
(207,531,cs),
(207,577,o),
(231,604,o),
(276,604,cs),
(320,604,o),
(345,577,o),
(345,531,cs),
(345,484,o),
(320,458,o),
(276,458,cs)
);
},
{
closed = 1;
nodes = (
(1061,-11,o),
(1150,64,o),
(1150,184,cs),
(1150,302,o),
(1061,377,o),
(920,377,cs),
(778,377,o),
(686,302,o),
(686,184,cs),
(686,64,o),
(778,-11,o),
(920,-11,cs)
);
},
{
closed = 1;
nodes = (
(876,110,o),
(850,137,o),
(850,184,cs),
(850,231,o),
(876,256,o),
(920,256,cs),
(964,256,o),
(988,231,o),
(988,184,cs),
(988,137,o),
(964,110,o),
(920,110,cs)
);
}
);
width = 1195;
},
{
layerId = "5974A488-68BA-4ECA-A629-BBB8F5E8E8D7";
shapes = (
{
closed = 1;
nodes = (
(328,0,l),
(829,714,l),
(651,714,l),
(150,0,l)
);
},
{
closed = 1;
nodes = (
(381,337,o),
(440,465,o),
(440,571,cs),
(440,675,o),
(381,728,o),
(288,728,cs),
(141,728,o),
(78,605,o),
(78,497,cs),
(78,393,o),
(136,337,o),
(230,337,cs)
);
},
{
closed = 1;
nodes = (
(230,438,o),
(222,451,o),
(222,478,cs),
(222,517,o),
(233,628,o),
(277,628,cs),
(289,628,o),
(297,615,o),
(297,587,cs),
(297,549,o),
(285,438,o),
(242,438,cs)
);
},
{
closed = 1;
nodes = (
(842,-14,o),
(902,114,o),
(902,219,cs),
(902,323,o),
(843,377,o),
(750,377,cs),
(602,377,o),
(539,253,o),
(539,145,cs),
(539,41,o),
(597,-14,o),
(691,-14,cs)
);
},
{
closed = 1;
nodes = (
(692,86,o),
(683,99,o),
(683,126,cs),
(683,165,o),
(695,276,o),
(738,276,cs),
(751,276,o),
(758,263,o),
(758,235,cs),
(758,197,o),
(747,86,o),
(703,86,cs)
);
}
);
width = 944;
},
{
layerId = "406F15BE-EF31-460D-8EE8-85AD72A74E98";
shapes = (
{
closed = 1;
nodes = (
(291,0,l),
(879,714,l),
(703,714,l),
(114,0,l)
);
},
{
closed = 1;
nodes = (
(367,354,o),
(451,449,o),
(451,561,cs),
(451,668,o),
(379,727,o),
(281,727,cs),
(162,727,o),
(79,634,o),
(79,520,cs),
(79,412,o),
(155,354,o),
(248,354,cs)
);
},
{
closed = 1;
nodes = (
(230,465,o),
(225,491,o),
(225,521,cs),
(225,587,o),
(244,615,o),
(274,615,cs),
(297,615,o),
(304,590,o),
(304,558,cs),
(304,495,o),
(288,465,o),
(255,465,cs)
);
},
{
closed = 1;
nodes = (
(831,-13,o),
(915,82,o),
(915,194,cs),
(915,301,o),
(843,361,o),
(745,361,cs),
(626,361,o),
(543,268,o),
(543,153,cs),
(543,45,o),
(619,-13,o),
(713,-13,cs)
);
},
{
closed = 1;
nodes = (
(695,99,o),
(689,123,o),
(689,154,cs),
(689,220,o),
(708,249,o),
(738,249,cs),
(761,249,o),
(768,222,o),
(768,191,cs),
(768,127,o),
(752,99,o),
(719,99,cs)
);
}
);
width = 958;
},
{
layerId = "974B3D67-9F33-42CE-B7A8-3E18495C5B4F";
shapes = (
{
closed = 1;
nodes = (
(393,0,l),
(1086,714,l),
(873,714,l),
(180,0,l)
);
},
{
closed = 1;
nodes = (
(437,337,o),
(556,410,o),
(556,547,cs),
(556,656,o),
(463,725,o),
(341,725,cs),
(215,725,o),
(94,651,o),
(94,514,cs),
(94,407,o),
(184,337,o),
(308,337,cs)
);
},
{
closed = 1;
nodes = (
(280,458,o),
(256,482,o),
(256,524,cs),
(256,572,o),
(287,604,o),
(331,604,cs),
(370,604,o),
(394,578,o),
(394,538,cs),
(394,491,o),
(365,458,o),
(318,458,cs)
);
},
{
closed = 1;
nodes = (
(1052,-11,o),
(1172,63,o),
(1172,199,cs),
(1172,308,o),
(1079,377,o),
(957,377,cs),
(831,377,o),
(710,304,o),
(710,167,cs),
(710,59,o),
(800,-11,o),
(924,-11,cs)
);
},
{
closed = 1;
nodes = (
(896,110,o),
(872,136,o),
(872,176,cs),
(872,224,o),
(902,256,o),
(946,256,cs),
(986,256,o),
(1009,232,o),
(1009,190,cs),
(1009,143,o),
(981,110,o),
(934,110,cs)
);
}
);
width = 1230;
}
);
unicode = 37;
}
{
color = 6;
glyphname = ampersand;
layers = (
{
layerId = m007;
shapes = (
{
closed = 1;
nodes = (
(813,0,l),
(304,440,ls),
(246,490,o),
(214,526,o),
(214,572,cs),
(214,618,o),
(251,669,o),
(349,669,cs),
(422,669,o),
(471,631,o),
(471,577,cs),
(471,506,o),
(391,453,o),
(316,417,c),
(348,376,l),
(421,409,o),
(541,477,o),
(541,581,cs),
(541,666,o),
(465,724,o),
(349,724,cs),
(211,724,o),
(143,650,o),
(143,571,cs),
(143,499,o),
(190,453,o),
(250,401,cs),
(713,0,l)
);
},
{
closed = 1;
nodes = (
(493,-12,o),
(578,58,o),
(634,121,c),
(585,157,l),
(545,100,o),
(460,46,o),
(334,46,cs),
(214,46,o),
(129,88,o),
(129,185,cs),
(129,268,o),
(190,316,o),
(320,368,c),
(288,409,l),
(120,343,o),
(56,273,o),
(56,179,cs),
(56,56,o),
(159,-12,o),
(328,-12,cs)
);
},
{
closed = 1;
nodes = (
(674,173,o),
(708,227,o),
(732,324,c),
(665,324,l),
(647,252,o),
(621,208,o),
(593,166,c),
(638,126,l)
);
}
);
width = 844;
},
{
layerId = "7DF63F5B-BA78-420A-94D8-89AFC26E7780";
shapes = (
{
closed = 1;
nodes = (
(842,0,l),
(334,437,ls),
(275,487,o),
(239,523,o),
(239,567,cs),
(239,610,o),
(271,654,o),
(356,654,cs),
(420,654,o),
(462,621,o),
(462,572,cs),
(462,509,o),
(395,458,o),
(325,426,c),
(359,371,l),
(441,403,o),
(558,474,o),
(558,576,cs),
(558,665,o),
(479,724,o),
(356,724,cs),
(213,724,o),
(139,649,o),
(139,567,cs),
(139,497,o),
(185,450,o),
(246,398,cs),
(709,0,l)
);
},
{
closed = 1;
nodes = (
(505,-12,o),
(598,60,o),
(647,130,c),
(576,170,l),
(534,115,o),
(458,67,o),
(341,67,cs),
(231,67,o),
(152,106,o),
(152,192,cs),
(152,262,o),
(204,312,o),
(330,361,c),
(300,418,l),
(107,351,o),
(51,272,o),
(51,181,cs),
(51,57,o),
(160,-12,o),
(332,-12,cs)
);
},
{
closed = 1;
nodes = (
(693,184,o),
(728,240,o),
(753,335,c),
(661,335,l),
(642,264,o),
(614,221,o),
(583,180,c),
(651,133,l)
);
}
);
width = 867;
},
{
layerId = "CF630257-B204-4765-8982-527F59E4E5D4";
shapes = (
{
closed = 1;
nodes = (
(655,0,l),
(262,452,ls),
(223,497,o),
(200,538,o),
(200,582,cs),
(200,630,o),
(234,675,o),
(299,675,cs),
(357,675,o),
(393,639,o),
(393,581,cs),
(393,506,o),
(332,459,o),
(278,425,c),
(308,389,l),
(369,425,o),
(454,491,o),
(454,588,cs),
(454,667,o),
(398,724,o),
(300,724,cs),
(199,724,o),
(138,659,o),
(138,581,cs),
(138,509,o),
(181,456,o),
(219,411,cs),
(576,0,l)
);
},
{
closed = 1;
nodes = (
(379,-12,o),
(450,44,o),
(503,107,c),
(468,151,l),
(422,88,o),
(358,39,o),
(270,39,cs),
(200,39,o),
(114,75,o),
(114,187,cs),
(114,257,o),
(153,319,o),
(283,379,c),
(250,414,l),
(88,341,o),
(51,261,o),
(51,179,cs),
(51,56,o),
(150,-12,o),
(263,-12,cs)
);
},
{
closed = 1;
nodes = (
(548,162,o),
(582,213,o),
(605,311,c),
(546,311,l),
(528,237,o),
(503,197,o),
(473,157,c),
(509,116,l)
);
}
);
width = 680;
},
{
layerId = "89792DEA-715D-4C6B-9843-C33DBACDCF53";
shapes = (
{
closed = 1;
nodes = (
(572,0,l),
(240,452,ls),
(207,497,o),
(183,539,o),
(183,584,cs),
(183,632,o),
(209,675,o),
(266,675,cs),
(314,675,o),
(346,641,o),
(346,583,cs),
(346,516,o),
(301,462,o),
(249,425,c),
(278,390,l),
(340,428,o),
(404,501,o),
(404,590,cs),
(404,664,o),
(355,724,o),
(267,724,cs),
(176,724,o),
(121,658,o),
(121,587,cs),
(121,514,o),
(163,459,o),
(199,411,cs),
(501,0,l)
);
},
{
closed = 1;
nodes = (
(335,-12,o),
(388,45,o),
(434,107,c),
(401,152,l),
(359,88,o),
(312,38,o),
(240,38,cs),
(175,38,o),
(108,73,o),
(108,176,cs),
(108,256,o),
(151,317,o),
(255,379,c),
(223,413,l),
(86,339,o),
(47,261,o),
(47,170,cs),
(47,54,o),
(135,-12,o),
(235,-12,cs)
);
},
{
closed = 1;
nodes = (
(475,162,o),
(506,213,o),
(533,311,c),
(477,311,l),
(460,245,o),
(434,197,o),
(405,157,c),
(437,116,l)
);
}
);
width = 594;
},
{
layerId = "F5B2086A-EC1C-45D9-9613-A3504CEE232E";
shapes = (
{
closed = 1;
nodes = (
(594,0,l),
(260,449,ls),
(227,492,o),
(200,536,o),
(200,580,cs),
(200,624,o),
(225,659,o),
(272,659,cs),
(313,659,o),
(342,630,o),
(342,579,cs),
(342,518,o),
(300,466,o),
(252,431,c),
(282,379,l),
(350,420,o),
(423,492,o),
(423,584,cs),
(423,660,o),
(370,724,o),
(273,724,cs),
(176,724,o),
(114,657,o),
(114,580,cs),
(114,511,o),
(154,458,o),
(190,410,cs),
(493,0,l)
);
},
{
closed = 1;
nodes = (
(343,-12,o),
(401,47,o),
(446,113,c),
(393,162,l),
(352,99,o),
(309,57,o),
(244,57,cs),
(183,57,o),
(130,93,o),
(130,181,cs),
(130,252,o),
(165,309,o),
(258,369,c),
(225,418,l),
(84,344,o),
(42,261,o),
(42,170,cs),
(42,53,o),
(134,-12,o),
(239,-12,cs)
);
},
{
closed = 1;
nodes = (
(492,177,o),
(522,235,o),
(548,330,c),
(468,330,l),
(452,266,o),
(427,212,o),
(400,175,c),
(454,131,l)
);
}
);
width = 611;
},
{
layerId = "FEA946D2-303E-4050-8628-E645DE71E218";
shapes = (
{
closed = 1;
nodes = (
(680,0,l),
(288,452,ls),
(255,490,o),
(223,528,o),
(223,574,cs),
(223,623,o),
(262,655,o),
(310,655,cs),
(355,655,o),
(390,627,o),
(390,575,cs),
(390,507,o),
(329,455,o),
(286,433,c),
(313,373,l),
(391,415,o),
(480,472,o),
(480,578,cs),
(480,658,o),
(422,724,o),
(313,724,cs),
(203,724,o),
(131,659,o),
(131,570,cs),
(131,502,o),
(172,452,o),
(209,409,cs),
(562,0,l)
);
},
{
closed = 1;
nodes = (
(397,-10,o),
(463,41,o),
(514,117,c),
(454,166,l),
(407,101,o),
(358,64,o),
(279,64,cs),
(204,64,o),
(142,110,o),
(142,191,cs),
(142,255,o),
(185,316,o),
(281,360,c),
(243,416,l),
(87,346,o),
(45,264,o),
(45,180,cs),
(45,51,o),
(155,-10,o),
(273,-10,cs)
);
},
{
closed = 1;
nodes = (
(565,190,o),
(604,267,o),
(617,353,c),
(525,353,l),
(515,293,o),
(492,218,o),
(459,177,c),
(527,134,l)
);
}
);
width = 701;
},
{
layerId = "3A742E95-6392-47DA-98D0-C770A5889573";
shapes = (
{
closed = 1;
nodes = (
(528,0,l),
(277,450,ls),
(256,487,o),
(241,522,o),
(241,568,cs),
(241,615,o),
(269,675,o),
(332,675,cs),
(379,675,o),
(408,643,o),
(408,601,cs),
(408,530,o),
(347,465,o),
(280,425,c),
(305,387,l),
(379,429,o),
(467,510,o),
(467,605,cs),
(467,667,o),
(422,724,o),
(337,724,cs),
(245,724,o),
(180,656,o),
(180,567,cs),
(180,503,o),
(209,454,o),
(232,413,cs),
(463,0,l)
);
},
{
closed = 1;
nodes = (
(307,-12,o),
(369,43,o),
(418,104,c),
(390,151,l),
(346,89,o),
(286,38,o),
(215,38,cs),
(155,38,o),
(94,71,o),
(94,157,cs),
(94,256,o),
(173,324,o),
(282,378,c),
(253,414,l),
(119,353,o),
(32,268,o),
(32,154,cs),
(32,50,o),
(108,-12,o),
(212,-12,cs)
);
},
{
closed = 1;
nodes = (
(463,163,o),
(498,215,o),
(535,313,c),
(478,313,l),
(457,247,o),
(427,202,o),
(393,160,c),
(422,116,l)
);
}
);
width = 595;
},
{
layerId = "DA512DF4-6FCD-4164-96D6-05DE8967F50A";
shapes = (
{
closed = 1;
nodes = (
(630,0,l),
(321,449,ls),
(299,481,o),
(269,518,o),
(269,563,cs),
(269,623,o),
(312,655,o),
(365,655,cs),
(407,655,o),
(447,635,o),
(447,588,cs),
(447,514,o),
(360,458,o),
(313,432,c),
(335,372,l),
(432,424,o),
(534,495,o),
(534,595,cs),
(534,671,o),
(471,724,o),
(368,724,cs),
(259,724,o),
(177,656,o),
(177,560,cs),
(177,497,o),
(213,447,o),
(242,405,cs),
(518,0,l)
);
},
{
closed = 1;
nodes = (
(348,-10,o),
(425,36,o),
(488,114,c),
(432,164,l),
(374,95,o),
(319,64,o),
(248,64,cs),
(180,64,o),
(128,97,o),
(128,168,cs),
(128,262,o),
(214,321,o),
(300,361,c),
(264,412,l),
(147,359,o),
(31,290,o),
(31,156,cs),
(31,42,o),
(125,-10,o),
(236,-10,cs)
);
},
{
closed = 1;
nodes = (
(550,183,o),
(601,262,o),
(624,352,c),
(538,352,l),
(522,294,o),
(479,216,o),
(441,176,c),
(505,131,l)
);
}
);
width = 696;
},
{
layerId = "0A603DC7-0F9F-4E29-AC1C-80B527B5555F";
shapes = (
{
closed = 1;
nodes = (
(545,0,l),
(294,447,ls),
(273,484,o),
(255,521,o),
(255,565,cs),
(255,609,o),
(281,659,o),
(336,659,cs),
(377,659,o),
(404,635,o),
(404,594,cs),
(404,530,o),
(345,473,o),
(280,434,c),
(304,382,l),
(385,425,o),
(483,505,o),
(483,600,cs),
(483,668,o),
(432,724,o),
(340,724,cs),
(242,724,o),
(173,657,o),
(173,563,cs),
(173,501,o),
(201,453,o),
(224,412,cs),
(454,0,l)
);
},
{
closed = 1;
nodes = (
(313,-12,o),
(378,45,o),
(429,109,c),
(385,163,l),
(340,101,o),
(286,57,o),
(222,57,cs),
(167,57,o),
(113,86,o),
(113,164,cs),
(113,254,o),
(182,322,o),
(282,373,c),
(257,422,l),
(118,361,o),
(27,273,o),
(27,155,cs),
(27,50,o),
(105,-12,o),
(211,-12,cs)
);
},
{
closed = 1;
nodes = (
(483,174,o),
(518,230,o),
(555,330,c),
(478,330,l),
(455,262,o),
(425,215,o),
(393,177,c),
(438,125,l)
);
}
);
width = 607;
},
{
layerId = "38E57698-3E0D-47EE-AD12-065B63128021";
shapes = (
{
closed = 1;
nodes = (
(607,0,l),
(307,436,ls),
(269,491,o),
(252,526,o),
(252,565,cs),
(252,622,o),
(291,675,o),
(361,675,cs),
(416,675,o),
(448,645,o),
(448,600,cs),
(448,525,o),
(378,471,o),
(305,427,c),
(330,390,l),
(403,429,o),
(509,498,o),
(509,605,cs),
(509,675,o),
(456,724,o),
(366,724,cs),
(261,724,o),
(189,655,o),
(189,556,cs),
(189,497,o),
(221,452,o),
(248,413,cs),
(532,0,l)
);
},
{
closed = 1;
nodes = (
(337,-12,o),
(414,39,o),
(476,106,c),
(447,153,l),
(392,90,o),
(317,39,o),
(232,39,cs),
(172,39,o),
(99,68,o),
(99,159,cs),
(99,265,o),
(201,334,o),
(306,379,c),
(273,417,l),
(148,363,o),
(36,276,o),
(36,150,cs),
(36,40,o),
(124,-12,o),
(225,-12,cs)
);
},
{
closed = 1;
nodes = (
(532,160,o),
(575,211,o),
(613,313,c),
(553,313,l),
(523,239,o),
(493,199,o),
(455,159,c),
(485,114,l)
);
}
);
width = 667;
},
{
layerId = "7B4F6316-DEA5-4C61-853A-FCC6E55FB2E9";
shapes = (
{
closed = 1;
nodes = (
(768,0,l),
(338,437,ls),
(294,481,o),
(260,519,o),
(260,565,cs),
(260,617,o),
(309,669,o),
(401,669,cs),
(475,669,o),
(521,640,o),
(521,585,cs),
(521,505,o),
(425,455,o),
(345,419,c),
(372,376,l),
(472,417,o),
(592,487,o),
(592,591,cs),
(592,674,o),
(524,724,o),
(404,724,cs),
(260,724,o),
(190,642,o),
(190,564,cs),
(190,494,o),
(236,449,o),
(281,403,cs),
(675,0,l)
);
},
{
closed = 1;
nodes = (
(460,-12,o),
(548,56,o),
(614,119,c),
(570,158,l),
(519,102,o),
(434,46,o),
(307,46,cs),
(199,46,o),
(116,82,o),
(116,172,cs),
(116,274,o),
(232,325,o),
(346,367,c),
(317,409,l),
(174,358,o),
(43,292,o),
(43,164,cs),
(43,50,o),
(144,-12,o),
(297,-12,cs)
);
},
{
closed = 1;
nodes = (
(663,171,o),
(706,225,o),
(748,322,c),
(681,326,l),
(650,254,o),
(616,210,o),
(580,168,c),
(618,124,l)
);
}
);
width = 844;
},
{
layerId = "FF0E7F91-EBB7-4227-9826-320229507C52";
shapes = (
{
closed = 1;
nodes = (
(794,0,l),
(364,435,ls),
(320,479,o),
(286,517,o),
(286,561,cs),
(286,609,o),
(328,656,o),
(409,656,cs),
(474,656,o),
(515,629,o),
(515,580,cs),
(515,509,o),
(430,461,o),
(355,428,c),
(384,370,l),
(489,409,o),
(610,482,o),
(610,585,cs),
(610,672,o),
(540,724,o),
(415,724,cs),
(265,724,o),
(189,643,o),
(189,559,cs),
(189,492,o),
(232,447,o),
(277,400,cs),
(666,0,l)
);
},
{
closed = 1;
nodes = (
(471,-12,o),
(562,57,o),
(630,128,c),
(565,172,l),
(514,117,o),
(434,64,o),
(314,64,cs),
(216,64,o),
(143,98,o),
(143,179,cs),
(143,267,o),
(240,320,o),
(356,360,c),
(329,418,l),
(183,369,o),
(41,300,o),
(41,166,cs),
(41,52,o),
(144,-12,o),
(300,-12,cs)
);
},
{
closed = 1;
nodes = (
(685,181,o),
(729,238,o),
(769,333,c),
(679,336,l),
(648,265,o),
(612,222,o),
(574,182,c),
(635,130,l)
);
}
);
width = 865;
},
{
layerId = "F74FB5BD-F4A6-4696-AECE-814F0CF1BFBE";
shapes = (
{
closed = 1;
nodes = (
(672,0,l),
(346,438,ls),
(315,479,o),
(272,529,o),
(272,566,cs),
(272,588,o),
(288,600,o),
(304,600,cs),
(320,600,o),
(335,591,o),
(335,564,cs),
(335,528,o),
(313,491,o),
(272,456,c),
(309,349,l),
(404,391,o),
(501,475,o),
(501,571,cs),
(501,652,o),
(440,724,o),
(304,724,cs),
(176,724,o),
(98,650,o),
(98,567,cs),
(98,502,o),
(131,455,o),
(168,403,cs),
(468,0,l)
);
},
{
closed = 1;
nodes = (
(380,-12,o),
(457,58,o),
(504,135,c),
(377,207,l),
(342,153,o),
(313,135,o),
(276,135,cs),
(237,135,o),
(215,165,o),
(215,207,cs),
(215,245,o),
(227,276,o),
(289,337,c),
(258,447,l),
(87,370,o),
(30,265,o),
(30,171,cs),
(30,57,o),
(121,-12,o),
(251,-12,cs)
);
},
{
closed = 1;
nodes = (
(576,226,o),
(601,281,o),
(626,378,c),
(463,378,l),
(445,314,o),
(422,268,o),
(404,247,c),
(526,170,l)
);
}
);
width = 682;
},
{
layerId = "3E78BF7E-2ACA-4E8F-B7F7-8733FDFDD1D6";
shapes = (
{
closed = 1;
nodes = (
(726,0,l),
(368,453,ls),
(346,481,o),
(304,517,o),
(304,555,cs),
(304,579,o),
(320,598,o),
(343,598,cs),
(366,598,o),
(382,585,o),
(382,554,cs),
(382,516,o),
(347,476,o),
(303,463,c),
(343,352,l),
(479,405,o),
(561,474,o),
(561,569,cs),
(561,650,o),
(501,724,o),
(341,724,cs),
(188,724,o),
(113,648,o),
(113,560,cs),
(113,493,o),
(145,447,o),
(193,386,cs),
(492,0,l)
);
},
{
closed = 1;
nodes = (
(427,-10,o),
(507,52,o),
(571,140,c),
(461,228,l),
(399,173,o),
(368,143,o),
(302,143,cs),
(253,143,o),
(222,173,o),
(222,217,cs),
(222,265,o),
(255,308,o),
(304,331,c),
(282,452,l),
(89,379,o),
(27,296,o),
(27,190,cs),
(27,73,o),
(129,-10,o),
(272,-10,cs)
);
},
{
closed = 1;
nodes = (
(668,217,o),
(703,287,o),
(716,379,c),
(542,379,l),
(523,315,o),
(502,273,o),
(466,231,c),
(568,123,l)
);
}
);
width = 744;
},
{
layerId = "CEA8704A-49A9-4D73-A586-1E9554ACC001";
shapes = (
{
closed = 1;
nodes = (
(932,0,l),
(452,431,ls),
(400,479,o),
(350,514,o),
(350,557,cs),
(350,586,o),
(370,602,o),
(397,602,cs),
(425,602,o),
(445,587,o),
(445,559,cs),
(445,523,o),
(421,481,o),
(371,462,c),
(417,349,l),
(531,377,o),
(643,460,o),
(643,557,cs),
(643,660,o),
(553,724,o),
(402,724,cs),
(237,724,o),
(146,646,o),
(146,550,cs),
(146,488,o),
(179,440,o),
(244,382,cs),
(662,0,l)
);
},
{
closed = 1;
nodes = (
(549,-11,o),
(647,67,o),
(710,164,c),
(554,224,l),
(507,177,o),
(451,141,o),
(367,141,cs),
(304,141,o),
(258,172,o),
(258,221,cs),
(258,256,o),
(281,306,o),
(384,335,c),
(358,453,l),
(110,390,o),
(42,289,o),
(42,192,cs),
(42,65,o),
(164,-11,o),
(345,-11,cs)
);
},
{
closed = 1;
nodes = (
(780,223,o),
(822,290,o),
(843,375,c),
(656,375,l),
(631,314,o),
(598,273,o),
(556,233,c),
(718,156,l)
);
}
);
width = 942;
},
{
layerId = "5974A488-68BA-4ECA-A629-BBB8F5E8E8D7";
shapes = (
{
closed = 1;
nodes = (
(631,0,l),
(377,433,ls),
(356,470,o),
(328,516,o),
(328,552,cs),
(328,584,o),
(346,600,o),
(366,600,cs),
(379,600,o),
(395,592,o),
(395,568,cs),
(395,534,o),
(362,498,o),
(308,459,c),
(332,346,l),
(444,392,o),
(561,482,o),
(561,579,cs),
(561,671,o),
(499,724,o),
(375,724,cs),
(248,724,o),
(154,659,o),
(154,548,cs),
(154,493,o),
(177,451,o),
(200,409,cs),
(425,0,l)
);
},
{
closed = 1;
nodes = (
(348,-12,o),
(425,53,o),
(487,130,c),
(375,214,l),
(326,154,o),
(298,135,o),
(262,135,cs),
(229,135,o),
(207,153,o),
(207,196,cs),
(207,247,o),
(250,291,o),
(308,332,c),
(290,450,l),
(131,388,o),
(16,294,o),
(16,158,cs),
(16,51,o),
(102,-12,o),
(218,-12,cs)
);
},
{
closed = 1;
nodes = (
(579,224,o),
(615,284,o),
(652,378,c),
(488,378,l),
(458,314,o),
(426,273,o),
(405,252,c),
(517,165,l)
);
}
);
width = 685;
},
{
layerId = "406F15BE-EF31-460D-8EE8-85AD72A74E98";
shapes = (
{
closed = 1;
nodes = (
(681,0,l),
(397,446,ls),
(380,472,o),
(345,514,o),
(345,548,cs),
(345,580,o),
(365,598,o),
(391,598,cs),
(416,598,o),
(435,585,o),
(435,558,cs),
(435,515,o),
(376,473,o),
(332,460,c),
(363,344,l),
(474,386,o),
(607,450,o),
(607,578,cs),
(607,654,o),
(557,724,o),
(394,724,cs),
(234,724,o),
(155,639,o),
(155,551,cs),
(155,493,o),
(191,442,o),
(214,401,cs),
(450,0,l)
);
},
{
closed = 1;
nodes = (
(383,-10,o),
(466,51,o),
(558,133,c),
(458,222,l),
(409,190,o),
(351,143,o),
(277,143,cs),
(236,143,o),
(210,165,o),
(210,205,cs),
(210,246,o),
(228,290,o),
(318,330,c),
(311,454,l),
(159,403,o),
(14,323,o),
(14,172,cs),
(14,29,o),
(146,-10,o),
(243,-10,cs)
);
},
{
closed = 1;
nodes = (
(673,199,o),
(713,267,o),
(737,377,c),
(564,377,l),
(544,313,o),
(510,275,o),
(467,237,c),
(555,116,l)
);
}
);
width = 745;
},
{
layerId = "974B3D67-9F33-42CE-B7A8-3E18495C5B4F";
shapes = (
{
closed = 1;
nodes = (
(896,0,l),
(472,427,ls),
(428,472,o),
(389,507,o),
(389,547,cs),
(389,577,o),
(408,602,o),
(444,602,cs),
(469,602,o),
(489,587,o),
(489,559,cs),
(489,528,o),
(452,485,o),
(396,464,c),
(431,348,l),
(557,377,o),
(685,464,o),
(685,565,cs),
(685,663,o),
(602,724,o),
(463,724,cs),
(286,724,o),
(187,650,o),
(187,537,cs),
(187,484,o),
(213,438,o),
(264,386,cs),
(626,0,l)
);
},
{
closed = 1;
nodes = (
(517,-11,o),
(620,61,o),
(697,159,c),
(546,228,l),
(493,181,o),
(435,141,o),
(342,141,cs),
(290,141,o),
(250,163,o),
(250,205,cs),
(250,239,o),
(275,300,o),
(397,332,c),
(380,454,l),
(214,413,o),
(31,336,o),
(31,174,cs),
(31,59,o),
(145,-11,o),
(313,-11,cs)
);
},
{
closed = 1;
nodes = (
(777,216,o),
(827,290,o),
(859,375,c),
(670,375,l),
(638,313,o),
(598,274,o),
(550,238,c),
(706,152,l)
);
}
);
width = 952;
}
);
unicode = 38;
}
{
color = 6;
glyphname = quotesingle;
kernLeft = quote;
kernRight = quote;
layers = (
{
layerId = m007;
shapes = (
{
closed = 1;
nodes = (
(137,463,l),
(137,714,l),
(71,714,l),
(71,463,l)
);
}
);
width = 208;
},
{
layerId = "7DF63F5B-BA78-420A-94D8-89AFC26E7780";
shapes = (
{
closed = 1;
nodes = (
(158,443,l),
(158,714,l),
(66,714,l),
(66,443,l)
);
}
);
width = 224;
},
{
layerId = "CF630257-B204-4765-8982-527F59E4E5D4";
shapes = (
{
closed = 1;
nodes = (
(136,469,l),
(136,714,l),
(77,714,l),
(77,469,l)
);
}
);
width = 212;
},
{
layerId = "89792DEA-715D-4C6B-9843-C33DBACDCF53";
shapes = (
{
closed = 1;
nodes = (
(118,467,l),
(118,714,l),
(62,714,l),
(62,467,l)
);
}
);
width = 181;
},
{
layerId = "F5B2086A-EC1C-45D9-9613-A3504CEE232E";
shapes = (
{
closed = 1;
nodes = (
(138,447,l),
(138,714,l),
(57,714,l),
(57,447,l)
);
}
);
width = 195;
},
{
layerId = "FEA946D2-303E-4050-8628-E645DE71E218";
shapes = (
{
closed = 1;
nodes = (
(157,446,l),
(157,714,l),
(71,714,l),
(71,446,l)
);
}
);
width = 228;
},
{
layerId = "3A742E95-6392-47DA-98D0-C770A5889573";
shapes = (
{
closed = 1;
nodes = (
(155,467,l),
(199,714,l),
(143,714,l),
(99,467,l)
);
}
);
width = 180;
},
{
layerId = "DA512DF4-6FCD-4164-96D6-05DE8967F50A";
shapes = (
{
closed = 1;
nodes = (
(191,446,l),
(238,714,l),
(152,714,l),
(105,446,l)
);
}
);
width = 228;
},
{
layerId = "0A603DC7-0F9F-4E29-AC1C-80B527B5555F";
shapes = (
{
closed = 1;
nodes = (
(172,447,l),
(220,714,l),
(139,714,l),
(91,447,l)
);
}
);
width = 196;
},
{
layerId = "38E57698-3E0D-47EE-AD12-065B63128021";
shapes = (
{
closed = 1;
nodes = (
(173,469,l),
(216,714,l),
(157,714,l),
(114,469,l)
);
}
);
width = 212;
},
{
layerId = "7B4F6316-DEA5-4C61-853A-FCC6E55FB2E9";
shapes = (
{
closed = 1;
nodes = (
(173,463,l),
(218,714,l),
(153,714,l),
(108,463,l)
);
}
);
width = 209;
},
{
layerId = "FF0E7F91-EBB7-4227-9826-320229507C52";
shapes = (
{
closed = 1;
nodes = (
(191,443,l),
(239,714,l),
(147,714,l),
(99,443,l)
);
}
);
width = 224;
},
{
layerId = "F74FB5BD-F4A6-4696-AECE-814F0CF1BFBE";
shapes = (
{
closed = 1;
nodes = (
(200,406,l),
(200,714,l),
(45,714,l),
(45,406,l)
);
}
);
width = 245;
},
{
layerId = "3E78BF7E-2ACA-4E8F-B7F7-8733FDFDD1D6";
shapes = (
{
closed = 1;
nodes = (
(218,406,l),
(218,714,l),
(60,714,l),
(60,406,l)
);
}
);
width = 278;
},
{
layerId = "CEA8704A-49A9-4D73-A586-1E9554ACC001";
shapes = (
{
closed = 1;
nodes = (
(240,386,l),
(240,714,l),
(55,714,l),
(55,386,l)
);
}
);
width = 295;
},
{
layerId = "5974A488-68BA-4ECA-A629-BBB8F5E8E8D7";
shapes = (
{
closed = 1;
nodes = (
(226,406,l),
(281,714,l),
(126,714,l),
(71,406,l)
);
}
);
width = 245;
},
{
layerId = "406F15BE-EF31-460D-8EE8-85AD72A74E98";
shapes = (
{
closed = 1;
nodes = (
(245,406,l),
(299,714,l),
(141,714,l),
(87,406,l)
);
}
);
width = 279;
},
{
layerId = "974B3D67-9F33-42CE-B7A8-3E18495C5B4F";
shapes = (
{
closed = 1;
nodes = (
(262,386,l),
(320,714,l),
(136,714,l),
(78,386,l)
);
}
);
width = 294;
}
);
unicode = 39;
}
{
color = 6;
glyphname = parenleft;
kernLeft = "paren-left";
kernRight = "paren-left";
layers = (
{
layerId = m007;
shapes = (
{
closed = 1;
nodes = (
(421,-113,l),
(262,-78,o),
(156,104,o),
(156,322,cs),
(156,541,o),
(262,724,o),
(421,760,c),
(421,816,l),
(209,779,o),
(87,569,o),
(87,322,cs),
(87,75,o),
(209,-135,o),
(421,-169,c)
);
}
);
width = 467;
},
{
layerId = "7DF63F5B-BA78-420A-94D8-89AFC26E7780";
shapes = (
{
closed = 1;
nodes = (
(430,-89,l),
(276,-54,o),
(177,115,o),
(177,322,cs),
(177,529,o),
(276,701,o),
(430,735,c),
(430,816,l),
(214,783,o),
(82,582,o),
(82,322,cs),
(82,62,o),
(214,-138,o),
(430,-169,c)
);
}
);
width = 471;
},
{
layerId = "CF630257-B204-4765-8982-527F59E4E5D4";
shapes = (
{
closed = 1;
nodes = (
(379,-120,l),
(241,-86,o),
(142,101,o),
(142,322,cs),
(142,544,o),
(241,732,o),
(379,767,c),
(379,816,l),
(191,778,o),
(82,567,o),
(82,322,cs),
(82,78,o),
(191,-134,o),
(379,-169,c)
);
}
);
width = 430;
},
{
layerId = "89792DEA-715D-4C6B-9843-C33DBACDCF53";
shapes = (
{
closed = 1;
nodes = (
(346,-122,l),
(223,-86,o),
(138,93,o),
(138,322,cs),
(138,552,o),
(223,733,o),
(346,769,c),
(346,816,l),
(174,778,o),
(82,574,o),
(82,322,cs),
(82,70,o),
(174,-134,o),
(346,-169,c)
);
}
);
width = 388;
},
{
layerId = "F5B2086A-EC1C-45D9-9613-A3504CEE232E";
shapes = (
{
closed = 1;
nodes = (
(355,-97,l),
(235,-61,o),
(162,110,o),
(162,322,cs),
(162,534,o),
(235,708,o),
(355,744,c),
(355,816,l),
(177,783,o),
(78,582,o),
(78,322,cs),
(78,62,o),
(177,-138,o),
(355,-169,c)
);
}
);
width = 397;
},
{
layerId = "FEA946D2-303E-4050-8628-E645DE71E218";
shapes = (
{
closed = 1;
nodes = (
(386,-89,l),
(246,-55,o),
(171,115,o),
(171,322,cs),
(171,529,o),
(246,702,o),
(386,735,c),
(386,816,l),
(189,785,o),
(77,576,o),
(77,322,cs),
(77,68,o),
(189,-141,o),
(386,-169,c)
);
}
);
width = 431;
},
{
layerId = "3A742E95-6392-47DA-98D0-C770A5889573";
shapes = (
{
closed = 1;
nodes = (
(280,-123,l),
(191,-94,o),
(139,28,o),
(139,194,cs),
(139,374,o),
(235,710,o),
(441,768,c),
(446,816,l),
(185,759,o),
(82,393,o),
(82,199,cs),
(82,2,o),
(147,-141,o),
(276,-169,c)
);
}
);
width = 393;
},
{
layerId = "DA512DF4-6FCD-4164-96D6-05DE8967F50A";
shapes = (
{
closed = 1;
nodes = (
(323,-94,l),
(219,-65,o),
(167,61,o),
(167,210,cs),
(167,406,o),
(267,692,o),
(471,741,c),
(484,816,l),
(207,772,o),
(80,451,o),
(80,213,cs),
(80,13,o),
(156,-144,o),
(310,-169,c)
);
}
);
width = 431;
},
{
layerId = "0A603DC7-0F9F-4E29-AC1C-80B527B5555F";
shapes = (
{
closed = 1;
nodes = (
(296,-98,l),
(209,-70,o),
(162,45,o),
(162,199,cs),
(162,370,o),
(251,689,o),
(447,744,c),
(457,816,l),
(185,765,o),
(79,406,o),
(79,201,cs),
(79,1,o),
(151,-142,o),
(286,-169,c)
);
}
);
width = 402;
},
{
layerId = "38E57698-3E0D-47EE-AD12-065B63128021";
shapes = (
{
closed = 1;
nodes = (
(316,-120,l),
(209,-93,o),
(146,35,o),
(146,220,cs),
(146,399,o),
(257,705,o),
(473,767,c),
(482,816,l),
(216,764,o),
(85,436,o),
(85,223,cs),
(85,8,o),
(160,-141,o),
(308,-169,c)
);
}
);
width = 435;
},
{
layerId = "7B4F6316-DEA5-4C61-853A-FCC6E55FB2E9";
shapes = (
{
closed = 1;
nodes = (
(361,-115,l),
(236,-86,o),
(161,52,o),
(161,227,cs),
(161,456,o),
(299,712,o),
(515,759,c),
(525,816,l),
(251,770,o),
(92,487,o),
(92,226,cs),
(92,22,o),
(181,-141,o),
(352,-169,c)
);
}
);
width = 473;
},
{
layerId = "FF0E7F91-EBB7-4227-9826-320229507C52";
shapes = (
{
closed = 1;
nodes = (
(377,-91,l),
(257,-62,o),
(186,65,o),
(186,231,cs),
(186,445,o),
(310,690,o),
(523,734,c),
(538,816,l),
(251,774,o),
(89,496,o),
(89,227,cs),
(89,15,o),
(188,-143,o),
(364,-169,c)
);
}
);
width = 483;
},
{
layerId = "F74FB5BD-F4A6-4696-AECE-814F0CF1BFBE";
shapes = (
{
closed = 1;
nodes = (
(399,4,l),
(292,38,o),
(257,178,o),
(257,322,cs),
(257,466,o),
(292,611,o),
(399,643,c),
(399,816,l),
(199,798,o),
(60,621,o),
(60,322,cs),
(60,25,o),
(199,-151,o),
(399,-169,c)
);
}
);
width = 434;
},
{
layerId = "3E78BF7E-2ACA-4E8F-B7F7-8733FDFDD1D6";
shapes = (
{
closed = 1;
nodes = (
(432,6,l),
(311,35,o),
(260,157,o),
(260,322,cs),
(260,488,o),
(311,615,o),
(432,641,c),
(432,816,l),
(215,798,o),
(59,636,o),
(59,322,cs),
(59,8,o),
(215,-151,o),
(432,-169,c)
);
}
);
width = 473;
},
{
layerId = "CEA8704A-49A9-4D73-A586-1E9554ACC001";
shapes = (
{
closed = 1;
nodes = (
(478,11,l),
(345,40,o),
(279,158,o),
(279,322,cs),
(279,487,o),
(345,609,o),
(478,636,c),
(478,816,l),
(245,798,o),
(70,636,o),
(70,322,cs),
(70,8,o),
(245,-151,o),
(478,-169,c)
);
}
);
width = 514;
},
{
layerId = "5974A488-68BA-4ECA-A629-BBB8F5E8E8D7";
shapes = (
{
closed = 1;
nodes = (
(359,2,l),
(283,26,o),
(259,120,o),
(259,221,cs),
(259,351,o),
(318,596,o),
(471,640,c),
(503,817,l),
(187,789,o),
(65,460,o),
(65,209,cs),
(65,-4,o),
(169,-144,o),
(329,-168,c)
);
}
);
width = 439;
},
{
layerId = "406F15BE-EF31-460D-8EE8-85AD72A74E98";
shapes = (
{
closed = 1;
nodes = (
(394,5,l),
(302,26,o),
(265,123,o),
(265,233,cs),
(265,360,o),
(331,605,o),
(506,642,c),
(536,816,l),
(221,795,o),
(63,487,o),
(63,214,cs),
(63,-26,o),
(183,-147,o),
(362,-169,c)
);
}
);
width = 478;
},
{
layerId = "974B3D67-9F33-42CE-B7A8-3E18495C5B4F";
shapes = (
{
closed = 1;
nodes = (
(445,9,l),
(343,32,o),
(285,119,o),
(285,242,cs),
(285,398,o),
(358,597,o),
(555,635,c),
(587,817,l),
(252,793,o),
(78,532,o),
(78,230,cs),
(78,-14,o),
(216,-150,o),
(414,-168,c)
);
}
);
width = 524;
}
);
unicode = 40;
}
{
color = 6;
glyphname = parenright;
kernLeft = "paren-right";
kernRight = "paren-right";
layers = (
{
layerId = m007;
shapes = (
{
closed = 1;
nodes = (
(258,-135,o),
(380,75,o),
(380,322,cs),
(380,569,o),
(258,779,o),
(46,816,c),
(46,760,l),
(205,724,o),
(311,541,o),
(311,322,cs),
(311,104,o),
(205,-78,o),
(46,-113,c),
(46,-169,l)
);
}
);
width = 467;
},
{
layerId = "7DF63F5B-BA78-420A-94D8-89AFC26E7780";
shapes = (
{
closed = 1;
nodes = (
(257,-138,o),
(389,62,o),
(389,322,cs),
(389,582,o),
(257,783,o),
(41,816,c),
(41,735,l),
(195,701,o),
(294,529,o),
(294,322,cs),
(294,115,o),
(195,-54,o),
(41,-89,c),
(41,-169,l)
);
}
);
width = 471;
},
{
layerId = "CF630257-B204-4765-8982-527F59E4E5D4";
shapes = (
{
closed = 1;
nodes = (
(239,-134,o),
(348,78,o),
(348,322,cs),
(348,567,o),
(239,778,o),
(51,816,c),
(51,767,l),
(189,732,o),
(288,544,o),
(288,322,cs),
(288,101,o),
(189,-86,o),
(51,-120,c),
(51,-169,l)
);
}
);
width = 430;
},
{
layerId = "89792DEA-715D-4C6B-9843-C33DBACDCF53";
shapes = (
{
closed = 1;
nodes = (
(214,-134,o),
(306,70,o),
(306,322,cs),
(306,574,o),
(214,778,o),
(42,816,c),
(42,769,l),
(165,733,o),
(250,552,o),
(250,322,cs),
(250,93,o),
(165,-86,o),
(42,-122,c),
(42,-169,l)
);
}
);
width = 388;
},
{
layerId = "F5B2086A-EC1C-45D9-9613-A3504CEE232E";
shapes = (
{
closed = 1;
nodes = (
(220,-138,o),
(319,62,o),
(319,322,cs),
(319,582,o),
(220,783,o),
(42,816,c),
(42,744,l),
(162,708,o),
(235,534,o),
(235,322,cs),
(235,110,o),
(162,-61,o),
(42,-97,c),
(42,-169,l)
);
}
);
width = 372;
},
{
layerId = "FEA946D2-303E-4050-8628-E645DE71E218";
shapes = (
{
closed = 1;
nodes = (
(242,-141,o),
(354,68,o),
(354,322,cs),
(354,576,o),
(242,785,o),
(45,816,c),
(45,735,l),
(185,702,o),
(260,529,o),
(260,322,cs),
(260,115,o),
(185,-55,o),
(45,-89,c),
(45,-169,l)
);
}
);
width = 431;
},
{
layerId = "3A742E95-6392-47DA-98D0-C770A5889573";
shapes = (
{
closed = 1;
nodes = (
(232,-112,o),
(335,254,o),
(335,448,cs),
(335,645,o),
(270,788,o),
(141,816,c),
(137,770,l),
(226,741,o),
(278,619,o),
(278,453,cs),
(278,273,o),
(182,-63,o),
(-24,-121,c),
(-29,-169,l)
);
}
);
width = 394;
},
{
layerId = "DA512DF4-6FCD-4164-96D6-05DE8967F50A";
shapes = (
{
closed = 1;
nodes = (
(248,-125,o),
(375,196,o),
(375,434,cs),
(375,634,o),
(299,791,o),
(145,816,c),
(132,741,l),
(236,712,o),
(288,586,o),
(288,437,cs),
(288,241,o),
(188,-45,o),
(-16,-94,c),
(-29,-169,l)
);
}
);
width = 431;
},
{
layerId = "0A603DC7-0F9F-4E29-AC1C-80B527B5555F";
shapes = (
{
closed = 1;
nodes = (
(241,-118,o),
(347,241,o),
(347,446,cs),
(347,646,o),
(275,789,o),
(140,816,c),
(130,745,l),
(217,717,o),
(264,602,o),
(264,448,cs),
(264,277,o),
(175,-42,o),
(-21,-97,c),
(-31,-169,l)
);
}
);
width = 403;
},
{
layerId = "38E57698-3E0D-47EE-AD12-065B63128021";
shapes = (
{
closed = 1;
nodes = (
(242,-117,o),
(373,211,o),
(373,424,cs),
(373,639,o),
(298,788,o),
(150,816,c),
(142,767,l),
(249,740,o),
(312,612,o),
(312,427,cs),
(312,248,o),
(201,-58,o),
(-15,-120,c),
(-24,-169,l)
);
}
);
width = 435;
},
{
layerId = "7B4F6316-DEA5-4C61-853A-FCC6E55FB2E9";
shapes = (
{
closed = 1;
nodes = (
(246,-123,o),
(405,160,o),
(405,421,cs),
(405,625,o),
(316,788,o),
(145,816,c),
(136,762,l),
(261,733,o),
(336,595,o),
(336,420,cs),
(336,191,o),
(198,-65,o),
(-18,-112,c),
(-28,-169,l)
);
}
);
width = 473;
},
{
layerId = "FF0E7F91-EBB7-4227-9826-320229507C52";
shapes = (
{
closed = 1;
nodes = (
(256,-127,o),
(418,151,o),
(418,420,cs),
(418,632,o),
(319,790,o),
(143,816,c),
(130,738,l),
(250,709,o),
(321,582,o),
(321,416,cs),
(321,202,o),
(197,-43,o),
(-16,-87,c),
(-31,-169,l)
);
}
);
width = 483;
},
{
layerId = "F74FB5BD-F4A6-4696-AECE-814F0CF1BFBE";
shapes = (
{
closed = 1;
nodes = (
(236,-151,o),
(374,25,o),
(374,322,cs),
(374,621,o),
(236,798,o),
(35,816,c),
(35,643,l),
(142,611,o),
(178,466,o),
(178,322,cs),
(178,178,o),
(142,38,o),
(35,4,c),
(35,-169,l)
);
}
);
width = 436;
},
{
layerId = "3E78BF7E-2ACA-4E8F-B7F7-8733FDFDD1D6";
shapes = (
{
closed = 1;
nodes = (
(257,-151,o),
(413,8,o),
(413,322,cs),
(413,636,o),
(257,798,o),
(40,816,c),
(40,641,l),
(162,615,o),
(213,488,o),
(213,322,cs),
(213,157,o),
(162,35,o),
(40,6,c),
(40,-169,l)
);
}
);
width = 473;
},
{
layerId = "CEA8704A-49A9-4D73-A586-1E9554ACC001";
shapes = (
{
closed = 1;
nodes = (
(269,-151,o),
(444,8,o),
(444,322,cs),
(444,636,o),
(269,798,o),
(35,816,c),
(35,636,l),
(168,609,o),
(234,487,o),
(234,322,cs),
(234,158,o),
(168,40,o),
(35,11,c),
(35,-169,l)
);
}
);
width = 514;
},
{
layerId = "5974A488-68BA-4ECA-A629-BBB8F5E8E8D7";
shapes = (
{
closed = 1;
nodes = (
(276,-140,o),
(399,189,o),
(399,440,cs),
(399,654,o),
(295,793,o),
(135,817,c),
(105,647,l),
(181,623,o),
(204,529,o),
(204,428,cs),
(204,298,o),
(145,53,o),
(-8,9,c),
(-40,-168,l)
);
}
);
width = 439;
},
{
layerId = "406F15BE-EF31-460D-8EE8-85AD72A74E98";
shapes = (
{
closed = 1;
nodes = (
(281,-148,o),
(438,160,o),
(438,433,cs),
(438,673,o),
(319,794,o),
(139,816,c),
(108,642,l),
(199,621,o),
(237,524,o),
(237,414,cs),
(237,287,o),
(171,42,o),
(-4,5,c),
(-35,-169,l)
);
}
);
width = 477;
},
{
layerId = "974B3D67-9F33-42CE-B7A8-3E18495C5B4F";
shapes = (
{
closed = 1;
nodes = (
(296,-144,o),
(470,117,o),
(470,419,cs),
(470,663,o),
(332,799,o),
(134,817,c),
(102,640,l),
(205,617,o),
(263,530,o),
(263,407,cs),
(263,252,o),
(189,52,o),
(-7,14,c),
(-39,-168,l)
);
}
);
width = 523;
}
);
unicode = 41;
}
{
color = 6;
glyphname = asterisk;
layers = (
{
layerId = m007;
shapes = (
{
closed = 1;
nodes = (
(252,530,l),
(325,398,l),
(385,432,l),
(294,556,l),
(439,578,l),
(427,645,l),
(278,603,l),
(287,754,l),
(218,754,l),
(227,603,l),
(80,645,l),
(66,578,l),
(212,556,l),
(121,432,l),
(183,398,l)
);
}
);
width = 505;
},
{
layerId = "7DF63F5B-BA78-420A-94D8-89AFC26E7780";
shapes = (
{
closed = 1;
nodes = (
(253,514,l),
(320,378,l),
(398,419,l),
(305,543,l),
(448,559,l),
(437,643,l),
(284,600,l),
(297,754,l),
(209,754,l),
(224,600,l),
(72,643,l),
(61,559,l),
(202,543,l),
(111,419,l),
(191,378,l)
);
}
);
width = 509;
},
{
layerId = "CF630257-B204-4765-8982-527F59E4E5D4";
shapes = (
{
closed = 1;
nodes = (
(258,542,l),
(333,405,l),
(387,437,l),
(294,562,l),
(442,584,l),
(431,643,l),
(281,601,l),
(290,754,l),
(227,754,l),
(238,601,l),
(88,643,l),
(77,584,l),
(224,562,l),
(132,437,l),
(188,405,l)
);
}
);
width = 518;
},
{
layerId = "89792DEA-715D-4C6B-9843-C33DBACDCF53";
shapes = (
{
closed = 1;
nodes = (
(239,543,l),
(313,405,l),
(367,437,l),
(273,563,l),
(422,584,l),
(412,643,l),
(260,600,l),
(270,754,l),
(208,754,l),
(219,600,l),
(68,643,l),
(57,584,l),
(206,563,l),
(112,437,l),
(168,405,l)
);
}
);
width = 479;
},
{
layerId = "F5B2086A-EC1C-45D9-9613-A3504CEE232E";
shapes = (
{
closed = 1;
nodes = (
(242,524,l),
(310,386,l),
(381,423,l),
(287,551,l),
(435,566,l),
(423,642,l),
(269,599,l),
(283,754,l),
(202,754,l),
(216,599,l),
(63,642,l),
(52,566,l),
(198,551,l),
(105,423,l),
(179,386,l)
);
}
);
width = 487;
},
{
layerId = "FEA946D2-303E-4050-8628-E645DE71E218";
shapes = (
{
closed = 1;
nodes = (
(262,522,l),
(329,385,l),
(403,423,l),
(309,550,l),
(455,563,l),
(444,643,l),
(290,599,l),
(304,754,l),
(219,754,l),
(235,599,l),
(84,643,l),
(71,563,l),
(215,549,l),
(122,423,l),
(200,385,l)
);
}
);
width = 526;
},
{
layerId = "3A742E95-6392-47DA-98D0-C770A5889573";
shapes = (
{
closed = 1;
nodes = (
(289,543,l),
(339,405,l),
(399,437,l),
(327,563,l),
(480,584,l),
(480,643,l),
(320,600,l),
(358,754,l),
(296,754,l),
(279,600,l),
(136,643,l),
(115,584,l),
(260,563,l),
(144,437,l),
(194,405,l)
);
}
);
width = 479;
},
{
layerId = "DA512DF4-6FCD-4164-96D6-05DE8967F50A";
shapes = (
{
closed = 1;
nodes = (
(309,522,l),
(352,385,l),
(433,423,l),
(361,550,l),
(509,563,l),
(512,643,l),
(350,599,l),
(392,754,l),
(308,754,l),
(296,599,l),
(152,643,l),
(125,563,l),
(266,549,l),
(153,423,l),
(222,385,l)
);
}
);
width = 526;
},
{
layerId = "0A603DC7-0F9F-4E29-AC1C-80B527B5555F";
shapes = (
{
closed = 1;
nodes = (
(289,524,l),
(333,386,l),
(410,423,l),
(339,551,l),
(489,566,l),
(491,642,l),
(329,599,l),
(370,754,l),
(289,754,l),
(276,599,l),
(131,642,l),
(106,566,l),
(250,551,l),
(134,423,l),
(202,386,l)
);
}
);
width = 487;
},
{
layerId = "38E57698-3E0D-47EE-AD12-065B63128021";
shapes = (
{
closed = 1;
nodes = (
(308,542,l),
(359,405,l),
(418,437,l),
(348,562,l),
(500,584,l),
(500,643,l),
(342,601,l),
(377,754,l),
(315,754,l),
(299,601,l),
(156,643,l),
(135,584,l),
(278,562,l),
(163,437,l),
(214,405,l)
);
}
);
width = 518;
},
{
layerId = "7B4F6316-DEA5-4C61-853A-FCC6E55FB2E9";
shapes = (
{
closed = 1;
nodes = (
(301,530,l),
(351,398,l),
(416,432,l),
(348,556,l),
(496,578,l),
(497,645,l),
(341,603,l),
(375,754,l),
(307,754,l),
(290,603,l),
(149,645,l),
(123,578,l),
(266,556,l),
(153,432,l),
(208,398,l)
);
}
);
width = 505;
},
{
layerId = "FF0E7F91-EBB7-4227-9826-320229507C52";
shapes = (
{
closed = 1;
nodes = (
(299,515,l),
(345,390,l),
(423,429,l),
(356,549,l),
(498,568,l),
(500,648,l),
(347,607,l),
(383,754,l),
(300,754,l),
(286,607,l),
(148,648,l),
(118,568,l),
(255,548,l),
(145,429,l),
(212,389,l)
);
}
);
width = 506;
},
{
layerId = "F74FB5BD-F4A6-4696-AECE-814F0CF1BFBE";
shapes = (
{
closed = 1;
nodes = (
(238,465,l),
(288,362,l),
(403,424,l),
(320,529,l),
(438,534,l),
(422,659,l),
(286,620,l),
(303,754,l),
(172,754,l),
(192,620,l),
(57,659,l),
(39,535,l),
(155,523,l),
(75,424,l),
(194,362,l)
);
}
);
width = 476;
},
{
layerId = "3E78BF7E-2ACA-4E8F-B7F7-8733FDFDD1D6";
shapes = (
{
closed = 1;
nodes = (
(253,465,l),
(304,362,l),
(419,424,l),
(337,527,l),
(453,534,l),
(439,659,l),
(301,620,l),
(319,754,l),
(189,754,l),
(208,620,l),
(73,659,l),
(54,535,l),
(171,521,l),
(91,424,l),
(209,362,l)
);
}
);
width = 508;
},
{
layerId = "CEA8704A-49A9-4D73-A586-1E9554ACC001";
shapes = (
{
closed = 1;
nodes = (
(254,451,l),
(302,354,l),
(425,420,l),
(347,517,l),
(458,525,l),
(443,660,l),
(309,624,l),
(325,754,l),
(185,754,l),
(202,624,l),
(72,660,l),
(50,527,l),
(162,514,l),
(85,420,l),
(213,353,l)
);
}
);
width = 508;
},
{
layerId = "5974A488-68BA-4ECA-A629-BBB8F5E8E8D7";
shapes = (
{
closed = 1;
nodes = (
(275,465,l),
(307,362,l),
(432,424,l),
(368,529,l),
(486,534,l),
(494,659,l),
(350,620,l),
(391,754,l),
(260,754,l),
(256,620,l),
(129,659,l),
(88,535,l),
(202,523,l),
(104,424,l),
(212,362,l)
);
}
);
width = 476;
},
{
layerId = "406F15BE-EF31-460D-8EE8-85AD72A74E98";
shapes = (
{
closed = 1;
nodes = (
(301,465,l),
(333,362,l),
(460,424,l),
(395,527,l),
(513,534,l),
(520,659,l),
(375,620,l),
(418,754,l),
(288,754,l),
(283,620,l),
(155,659,l),
(114,535,l),
(229,521,l),
(132,424,l),
(239,362,l)
);
}
);
width = 530;
},
{
layerId = "974B3D67-9F33-42CE-B7A8-3E18495C5B4F";
shapes = (
{
closed = 1;
nodes = (
(289,451,l),
(319,354,l),
(454,419,l),
(392,517,l),
(506,525,l),
(513,660,l),
(373,624,l),
(413,754,l),
(271,754,l),
(266,624,l),
(143,660,l),
(97,526,l),
(208,514,l),
(113,419,l),
(230,353,l)
);
}
);
width = 508;
}
);
unicode = 42;
}
{
color = 6;
glyphname = plus;
kernLeft = plus;
kernRight = plus;
layers = (
{
layerId = m007;
shapes = (
{
closed = 1;
nodes = (
(387,21,l),
(387,275,l),
(641,275,l),
(641,333,l),
(387,333,l),
(387,587,l),
(329,587,l),
(329,333,l),
(75,333,l),
(75,275,l),
(329,275,l),
(329,21,l)
);
}
);
width = 716;
},
{
layerId = "7DF63F5B-BA78-420A-94D8-89AFC26E7780";
shapes = (
{
closed = 1;
nodes = (
(404,11,l),
(404,263,l),
(656,263,l),
(656,345,l),
(404,345,l),
(404,597,l),
(322,597,l),
(322,345,l),
(70,345,l),
(70,263,l),
(322,263,l),
(322,11,l)
);
}
);
width = 726;
},
{
layerId = "CF630257-B204-4765-8982-527F59E4E5D4";
shapes = (
{
closed = 1;
nodes = (
(353,23,l),
(353,261,l),
(591,261,l),
(591,311,l),
(353,311,l),
(353,549,l),
(303,549,l),
(303,311,l),
(65,311,l),
(65,261,l),
(303,261,l),
(303,23,l)
);
}
);
width = 656;
},
{
layerId = "89792DEA-715D-4C6B-9843-C33DBACDCF53";
shapes = (
{
closed = 1;
nodes = (
(297,67,l),
(297,251,l),
(481,251,l),
(481,299,l),
(297,299,l),
(297,483,l),
(249,483,l),
(249,299,l),
(65,299,l),
(65,251,l),
(249,251,l),
(249,67,l)
);
}
);
width = 546;
},
{
layerId = "F5B2086A-EC1C-45D9-9613-A3504CEE232E";
shapes = (
{
closed = 1;
nodes = (
(320,50,l),
(320,240,l),
(510,240,l),
(510,310,l),
(320,310,l),
(320,500,l),
(250,500,l),
(250,310,l),
(60,310,l),
(60,240,l),
(250,240,l),
(250,50,l)
);
}
);
width = 570;
},
{
layerId = "FEA946D2-303E-4050-8628-E645DE71E218";
shapes = (
{
closed = 1;
nodes = (
(376,10,l),
(376,246,l),
(612,246,l),
(612,326,l),
(376,326,l),
(376,562,l),
(296,562,l),
(296,326,l),
(60,326,l),
(60,246,l),
(296,246,l),
(296,10,l)
);
}
);
width = 672;
},
{
layerId = "3A742E95-6392-47DA-98D0-C770A5889573";
shapes = (
{
closed = 1;
nodes = (
(263,67,l),
(296,251,l),
(480,251,l),
(488,299,l),
(304,299,l),
(337,483,l),
(289,483,l),
(256,299,l),
(72,299,l),
(64,251,l),
(248,251,l),
(215,67,l)
);
}
);
width = 546;
},
{
layerId = "DA512DF4-6FCD-4164-96D6-05DE8967F50A";
shapes = (
{
closed = 1;
nodes = (
(332,10,l),
(374,246,l),
(610,246,l),
(624,326,l),
(388,326,l),
(430,562,l),
(350,562,l),
(308,326,l),
(72,326,l),
(58,246,l),
(294,246,l),
(252,10,l)
);
}
);
width = 672;
},
{
layerId = "0A603DC7-0F9F-4E29-AC1C-80B527B5555F";
shapes = (
{
closed = 1;
nodes = (
(283,50,l),
(317,240,l),
(507,240,l),
(519,310,l),
(329,310,l),
(363,500,l),
(293,500,l),
(259,310,l),
(69,310,l),
(57,240,l),
(247,240,l),
(213,50,l)
);
}
);
width = 570;
},
{
layerId = "38E57698-3E0D-47EE-AD12-065B63128021";
shapes = (
{
closed = 1;
nodes = (
(313,23,l),
(355,261,l),
(593,261,l),
(601,311,l),
(363,311,l),
(405,549,l),
(355,549,l),
(313,311,l),
(75,311,l),
(67,261,l),
(305,261,l),
(263,23,l)
);
}
);
width = 656;
},
{
layerId = "7B4F6316-DEA5-4C61-853A-FCC6E55FB2E9";
shapes = (
{
closed = 1;
nodes = (
(345,21,l),
(390,275,l),
(644,275,l),
(654,333,l),
(400,333,l),
(445,587,l),
(387,587,l),
(342,333,l),
(88,333,l),
(78,275,l),
(332,275,l),
(287,21,l)
);
}
);
width = 716;
},
{
layerId = "FF0E7F91-EBB7-4227-9826-320229507C52";
shapes = (
{
closed = 1;
nodes = (
(361,11,l),
(406,263,l),
(658,263,l),
(672,345,l),
(420,345,l),
(465,597,l),
(383,597,l),
(338,345,l),
(86,345,l),
(72,263,l),
(324,263,l),
(279,11,l)
);
}
);
width = 726;
},
{
layerId = "F74FB5BD-F4A6-4696-AECE-814F0CF1BFBE";
shapes = (
{
closed = 1;
nodes = (
(379,19,l),
(379,202,l),
(562,202,l),
(562,348,l),
(379,348,l),
(379,531,l),
(233,531,l),
(233,348,l),
(50,348,l),
(50,202,l),
(233,202,l),
(233,19,l)
);
}
);
width = 612;
},
{
layerId = "3E78BF7E-2ACA-4E8F-B7F7-8733FDFDD1D6";
shapes = (
{
closed = 1;
nodes = (
(413,10,l),
(413,232,l),
(635,232,l),
(635,378,l),
(413,378,l),
(413,600,l),
(267,600,l),
(267,378,l),
(45,378,l),
(45,232,l),
(267,232,l),
(267,10,l)
);
}
);
width = 680;
},
{
layerId = "CEA8704A-49A9-4D73-A586-1E9554ACC001";
shapes = (
{
closed = 1;
nodes = (
(440,6,l),
(440,231,l),
(665,231,l),
(665,391,l),
(440,391,l),
(440,616,l),
(280,616,l),
(280,391,l),
(55,391,l),
(55,231,l),
(280,231,l),
(280,6,l)
);
}
);
width = 720;
},
{
layerId = "5974A488-68BA-4ECA-A629-BBB8F5E8E8D7";
shapes = (
{
closed = 1;
nodes = (
(337,19,l),
(369,202,l),
(552,202,l),
(578,348,l),
(395,348,l),
(427,531,l),
(281,531,l),
(249,348,l),
(66,348,l),
(40,202,l),
(223,202,l),
(191,19,l)
);
}
);
width = 612;
},
{
layerId = "406F15BE-EF31-460D-8EE8-85AD72A74E98";
shapes = (
{
closed = 1;
nodes = (
(370,10,l),
(409,232,l),
(631,232,l),
(657,378,l),
(435,378,l),
(474,600,l),
(328,600,l),
(289,378,l),
(67,378,l),
(41,232,l),
(263,232,l),
(224,10,l)
);
}
);
width = 680;
},
{
layerId = "974B3D67-9F33-42CE-B7A8-3E18495C5B4F";
shapes = (
{
closed = 1;
nodes = (
(396,6,l),
(436,231,l),
(661,231,l),
(689,391,l),
(464,391,l),
(504,616,l),
(344,616,l),
(304,391,l),
(79,391,l),
(51,231,l),
(276,231,l),
(236,6,l)
);
}
);
width = 720;
}
);
unicode = 43;
}
{
color = 6;
glyphname = comma;
layers = (
{
layerId = m007;
shapes = (
{
closed = 1;
nodes = (
(116,-153,l),
(200,98,l),
(121,98,l),
(62,-153,l)
);
}
);
width = 281;
},
{
layerId = "7DF63F5B-BA78-420A-94D8-89AFC26E7780";
shapes = (
{
closed = 1;
nodes = (
(128,-153,l),
(217,120,l),
(112,120,l),
(51,-153,l)
);
}
);
width = 288;
},
{
layerId = "CF630257-B204-4765-8982-527F59E4E5D4";
shapes = (
{
closed = 1;
nodes = (
(111,-153,l),
(176,90,l),
(105,90,l),
(66,-153,l)
);
}
);
width = 262;
},
{
layerId = "89792DEA-715D-4C6B-9843-C33DBACDCF53";
shapes = (
{
closed = 1;
nodes = (
(88,-153,l),
(154,94,l),
(88,94,l),
(50,-153,l)
);
}
);
width = 224;
},
{
layerId = "F5B2086A-EC1C-45D9-9613-A3504CEE232E";
shapes = (
{
closed = 1;
nodes = (
(107,-153,l),
(175,114,l),
(84,114,l),
(42,-153,l)
);
}
);
width = 237;
},
{
layerId = "FEA946D2-303E-4050-8628-E645DE71E218";
shapes = (
{
closed = 1;
nodes = (
(136,-153,l),
(209,117,l),
(106,117,l),
(61,-153,l)
);
}
);
width = 290;
},
{
layerId = "3A742E95-6392-47DA-98D0-C770A5889573";
shapes = (
{
closed = 1;
nodes = (
(16,-153,l),
(125,94,l),
(59,94,l),
(-22,-153,l)
);
}
);
width = 224;
},
{
layerId = "DA512DF4-6FCD-4164-96D6-05DE8967F50A";
shapes = (
{
closed = 1;
nodes = (
(63,-153,l),
(184,117,l),
(81,117,l),
(-11,-153,l)
);
}
);
width = 290;
},
{
layerId = "0A603DC7-0F9F-4E29-AC1C-80B527B5555F";
shapes = (
{
closed = 1;
nodes = (
(35,-153,l),
(151,114,l),
(60,114,l),
(-30,-153,l)
);
}
);
width = 238;
},
{
layerId = "38E57698-3E0D-47EE-AD12-065B63128021";
shapes = (
{
closed = 1;
nodes = (
(39,-153,l),
(147,90,l),
(75,90,l),
(-6,-153,l)
);
}
);
width = 262;
},
{
layerId = "7B4F6316-DEA5-4C61-853A-FCC6E55FB2E9";
shapes = (
{
closed = 1;
nodes = (
(43,-153,l),
(171,98,l),
(93,98,l),
(-11,-153,l)
);
}
);
width = 280;
},
{
layerId = "FF0E7F91-EBB7-4227-9826-320229507C52";
shapes = (
{
closed = 1;
nodes = (
(52,-153,l),
(196,120,l),
(90,120,l),
(-21,-153,l)
);
}
);
width = 291;
},
{
layerId = "F74FB5BD-F4A6-4696-AECE-814F0CF1BFBE";
shapes = (
{
closed = 1;
nodes = (
(165,-153,l),
(276,193,l),
(78,193,l),
(29,-153,l)
);
}
);
width = 325;
},
{
layerId = "3E78BF7E-2ACA-4E8F-B7F7-8733FDFDD1D6";
shapes = (
{
closed = 1;
nodes = (
(174,-153,l),
(293,191,l),
(87,191,l),
(34,-153,l)
);
}
);
width = 346;
},
{
layerId = "CEA8704A-49A9-4D73-A586-1E9554ACC001";
shapes = (
{
closed = 1;
nodes = (
(190,-153,l),
(332,215,l),
(113,215,l),
(34,-153,l)
);
}
);
width = 386;
},
{
layerId = "5974A488-68BA-4ECA-A629-BBB8F5E8E8D7";
shapes = (
{
closed = 1;
nodes = (
(92,-153,l),
(265,193,l),
(67,193,l),
(-44,-153,l)
);
}
);
width = 325;
},
{
layerId = "406F15BE-EF31-460D-8EE8-85AD72A74E98";
shapes = (
{
closed = 1;
nodes = (
(103,-153,l),
(282,191,l),
(76,191,l),
(-38,-153,l)
);
}
);
width = 347;
},
{
layerId = "974B3D67-9F33-42CE-B7A8-3E18495C5B4F";
shapes = (
{
closed = 1;
nodes = (
(118,-153,l),
(326,215,l),
(106,215,l),
(-38,-153,l)
);
}
);
width = 387;
}
);
metricLeft = "=period-20";
metricRight = period;
unicode = 44;
}
{
color = 6;
glyphname = hyphen;
kernLeft = hyphen;
kernRight = hyphen;
layers = (
{
layerId = m007;
shapes = (
{
closed = 1;
nodes = (
(442,271,l),
(442,330,l),
(87,330,l),
(87,271,l)
);
}
);
width = 528;
},
{
layerId = "7DF63F5B-BA78-420A-94D8-89AFC26E7780";
shapes = (
{
closed = 1;
nodes = (
(467,260,l),
(467,340,l),
(82,340,l),
(82,260,l)
);
}
);
width = 549;
},
{
layerId = "CF630257-B204-4765-8982-527F59E4E5D4";
shapes = (
{
closed = 1;
nodes = (
(316,275,l),
(316,327,l),
(82,327,l),
(82,275,l)
);
}
);
width = 398;
},
{
layerId = "89792DEA-715D-4C6B-9843-C33DBACDCF53";
shapes = (
{
closed = 1;
nodes = (
(276,276,l),
(276,325,l),
(74,325,l),
(74,276,l)
);
}
);
width = 350;
},
{
layerId = "F5B2086A-EC1C-45D9-9613-A3504CEE232E";
shapes = (
{
closed = 1;
nodes = (
(292,264,l),
(292,336,l),
(68,336,l),
(68,264,l)
);
}
);
width = 360;
},
{
layerId = "FEA946D2-303E-4050-8628-E645DE71E218";
shapes = (
{
closed = 1;
nodes = (
(352,261,l),
(352,340,l),
(75,340,l),
(75,261,l)
);
}
);
width = 427;
},
{
layerId = "3A742E95-6392-47DA-98D0-C770A5889573";
shapes = (
{
closed = 1;
nodes = (
(280,276,l),
(288,325,l),
(86,325,l),
(78,276,l)
);
}
);
width = 351;
},
{
layerId = "DA512DF4-6FCD-4164-96D6-05DE8967F50A";
shapes = (
{
closed = 1;
nodes = (
(353,261,l),
(367,340,l),
(91,340,l),
(77,261,l)
);
}
);
width = 427;
},
{
layerId = "0A603DC7-0F9F-4E29-AC1C-80B527B5555F";
shapes = (
{
closed = 1;
nodes = (
(294,264,l),
(306,336,l),
(82,336,l),
(70,264,l)
);
}
);
width = 361;
},
{
layerId = "38E57698-3E0D-47EE-AD12-065B63128021";
shapes = (
{
closed = 1;
nodes = (
(319,275,l),
(329,327,l),
(95,327,l),
(85,275,l)
);
}
);
width = 399;
},
{
layerId = "7B4F6316-DEA5-4C61-853A-FCC6E55FB2E9";
shapes = (
{
closed = 1;
nodes = (
(445,271,l),
(455,330,l),
(100,330,l),
(90,271,l)
);
}
);
width = 529;
},
{
layerId = "FF0E7F91-EBB7-4227-9826-320229507C52";
shapes = (
{
closed = 1;
nodes = (
(468,260,l),
(482,340,l),
(97,340,l),
(83,260,l)
);
}
);
width = 549;
},
{
layerId = "F74FB5BD-F4A6-4696-AECE-814F0CF1BFBE";
shapes = (
{
closed = 1;
nodes = (
(340,234,l),
(340,386,l),
(57,386,l),
(57,234,l)
);
}
);
width = 396;
},
{
layerId = "3E78BF7E-2ACA-4E8F-B7F7-8733FDFDD1D6";
shapes = (
{
closed = 1;
nodes = (
(384,235,l),
(384,385,l),
(65,385,l),
(65,235,l)
);
}
);
width = 449;
},
{
layerId = "CEA8704A-49A9-4D73-A586-1E9554ACC001";
shapes = (
{
closed = 1;
nodes = (
(492,227,l),
(492,394,l),
(70,394,l),
(70,227,l)
);
}
);
width = 562;
},
{
layerId = "5974A488-68BA-4ECA-A629-BBB8F5E8E8D7";
shapes = (
{
closed = 1;
nodes = (
(335,234,l),
(362,386,l),
(80,386,l),
(52,234,l)
);
}
);
width = 396;
},
{
layerId = "406F15BE-EF31-460D-8EE8-85AD72A74E98";
shapes = (
{
closed = 1;
nodes = (
(381,235,l),
(407,385,l),
(88,385,l),
(61,235,l)
);
}
);
width = 450;
},
{
layerId = "974B3D67-9F33-42CE-B7A8-3E18495C5B4F";
shapes = (
{
closed = 1;
nodes = (
(485,227,l),
(516,394,l),
(95,394,l),
(64,227,l)
);
}
);
width = 562;
}
);
unicode = 45;
}
{
color = 6;
glyphname = period;
kernLeft = period;
kernRight = period;
layers = (
{
layerId = m007;
shapes = (
{
closed = 1;
nodes = (
(180,0,l),
(180,98,l),
(82,98,l),
(82,0,l)
);
}
);
width = 261;
},
{
layerId = "7DF63F5B-BA78-420A-94D8-89AFC26E7780";
shapes = (
{
closed = 1;
nodes = (
(192,0,l),
(192,120,l),
(71,120,l),
(71,0,l)
);
}
);
width = 263;
},
{
layerId = "CF630257-B204-4765-8982-527F59E4E5D4";
shapes = (
{
closed = 1;
nodes = (
(173,0,l),
(173,90,l),
(86,90,l),
(86,0,l)
);
}
);
width = 259;
},
{
layerId = "89792DEA-715D-4C6B-9843-C33DBACDCF53";
shapes = (
{
closed = 1;
nodes = (
(150,0,l),
(150,94,l),
(70,94,l),
(70,0,l)
);
}
);
width = 220;
},
{
layerId = "F5B2086A-EC1C-45D9-9613-A3504CEE232E";
shapes = (
{
closed = 1;
nodes = (
(163,0,l),
(163,114,l),
(62,114,l),
(62,0,l)
);
}
);
width = 225;
},
{
layerId = "FEA946D2-303E-4050-8628-E645DE71E218";
shapes = (
{
closed = 1;
nodes = (
(193,0,l),
(193,117,l),
(81,117,l),
(81,0,l)
);
}
);
width = 274;
},
{
layerId = "3A742E95-6392-47DA-98D0-C770A5889573";
shapes = (
{
closed = 1;
nodes = (
(105,0,l),
(121,94,l),
(41,94,l),
(25,0,l)
);
}
);
width = 220;
},
{
layerId = "DA512DF4-6FCD-4164-96D6-05DE8967F50A";
shapes = (
{
closed = 1;
nodes = (
(148,0,l),
(168,117,l),
(57,117,l),
(36,0,l)
);
}
);
width = 274;
},
{
layerId = "0A603DC7-0F9F-4E29-AC1C-80B527B5555F";
shapes = (
{
closed = 1;
nodes = (
(118,0,l),
(138,114,l),
(37,114,l),
(17,0,l)
);
}
);
width = 225;
},
{
layerId = "38E57698-3E0D-47EE-AD12-065B63128021";
shapes = (
{
closed = 1;
nodes = (
(129,0,l),
(145,90,l),
(57,90,l),
(41,0,l)
);
}
);
width = 260;
},
{
layerId = "7B4F6316-DEA5-4C61-853A-FCC6E55FB2E9";
shapes = (
{
closed = 1;
nodes = (
(135,0,l),
(151,98,l),
(53,98,l),
(37,0,l)
);
}
);
width = 261;
},
{
layerId = "FF0E7F91-EBB7-4227-9826-320229507C52";
shapes = (
{
closed = 1;
nodes = (
(147,0,l),
(168,120,l),
(47,120,l),
(26,0,l)
);
}
);
width = 263;
},
{
layerId = "F74FB5BD-F4A6-4696-AECE-814F0CF1BFBE";
shapes = (
{
closed = 1;
nodes = (
(230,0,l),
(230,193,l),
(49,193,l),
(49,0,l)
);
}
);
width = 279;
},
{
layerId = "3E78BF7E-2ACA-4E8F-B7F7-8733FDFDD1D6";
shapes = (
{
closed = 1;
nodes = (
(254,0,l),
(254,191,l),
(54,191,l),
(54,0,l)
);
}
);
width = 307;
},
{
layerId = "CEA8704A-49A9-4D73-A586-1E9554ACC001";
shapes = (
{
closed = 1;
nodes = (
(269,0,l),
(269,215,l),
(54,215,l),
(54,0,l)
);
}
);
width = 323;
},
{
layerId = "5974A488-68BA-4ECA-A629-BBB8F5E8E8D7";
shapes = (
{
closed = 1;
nodes = (
(185,0,l),
(218,193,l),
(37,193,l),
(4,0,l)
);
}
);
width = 279;
},
{
layerId = "406F15BE-EF31-460D-8EE8-85AD72A74E98";
shapes = (
{
closed = 1;
nodes = (
(209,0,l),
(243,191,l),
(43,191,l),
(9,0,l)
);
}
);
width = 308;
},
{
layerId = "974B3D67-9F33-42CE-B7A8-3E18495C5B4F";
shapes = (
{
closed = 1;
nodes = (
(224,0,l),
(263,215,l),
(48,215,l),
(9,0,l)
);
}
);
width = 324;
}
);
unicode = 46;
}
{
color = 6;
glyphname = slash;
kernLeft = slash;
kernRight = slash;
layers = (
{
layerId = m007;
shapes = (
{
closed = 1;
nodes = (
(129,0,l),
(573,714,l),
(496,714,l),
(51,0,l)
);
}
);
width = 624;
},
{
layerId = "7DF63F5B-BA78-420A-94D8-89AFC26E7780";
shapes = (
{
closed = 1;
nodes = (
(157,0,l),
(602,714,l),
(491,714,l),
(46,0,l)
);
}
);
width = 648;
},
{
layerId = "CF630257-B204-4765-8982-527F59E4E5D4";
shapes = (
{
closed = 1;
nodes = (
(114,0,l),
(447,714,l),
(384,714,l),
(51,0,l)
);
}
);
width = 498;
},
{
layerId = "89792DEA-715D-4C6B-9843-C33DBACDCF53";
shapes = (
{
closed = 1;
nodes = (
(103,-2,l),
(353,714,l),
(293,714,l),
(43,-2,l)
);
}
);
width = 396;
},
{
layerId = "F5B2086A-EC1C-45D9-9613-A3504CEE232E";
shapes = (
{
closed = 1;
nodes = (
(124,-2,l),
(374,714,l),
(288,714,l),
(38,-2,l)
);
}
);
width = 412;
},
{
layerId = "FEA946D2-303E-4050-8628-E645DE71E218";
shapes = (
{
closed = 1;
nodes = (
(141,0,l),
(473,714,l),
(376,714,l),
(44,0,l)
);
}
);
width = 517;
},
{
layerId = "3A742E95-6392-47DA-98D0-C770A5889573";
shapes = (
{
closed = 1;
nodes = (
(61,-2,l),
(437,714,l),
(373,714,l),
(-3,-2,l)
);
}
);
width = 399;
},
{
layerId = "DA512DF4-6FCD-4164-96D6-05DE8967F50A";
shapes = (
{
closed = 1;
nodes = (
(103,0,l),
(562,714,l),
(459,714,l),
(0,0,l)
);
}
);
width = 525;
},
{
layerId = "0A603DC7-0F9F-4E29-AC1C-80B527B5555F";
shapes = (
{
closed = 1;
nodes = (
(86,-2,l),
(462,714,l),
(370,714,l),
(-6,-2,l)
);
}
);
width = 421;
},
{
layerId = "38E57698-3E0D-47EE-AD12-065B63128021";
shapes = (
{
closed = 1;
nodes = (
(74,0,l),
(533,714,l),
(465,714,l),
(6,0,l)
);
}
);
width = 504;
},
{
layerId = "7B4F6316-DEA5-4C61-853A-FCC6E55FB2E9";
shapes = (
{
closed = 1;
nodes = (
(90,0,l),
(661,714,l),
(577,714,l),
(6,0,l)
);
}
);
width = 631;
},
{
layerId = "FF0E7F91-EBB7-4227-9826-320229507C52";
shapes = (
{
closed = 1;
nodes = (
(120,0,l),
(692,714,l),
(573,714,l),
(2,0,l)
);
}
);
width = 658;
},
{
layerId = "F74FB5BD-F4A6-4696-AECE-814F0CF1BFBE";
shapes = (
{
closed = 1;
nodes = (
(227,-2,l),
(477,714,l),
(275,714,l),
(26,-2,l)
);
}
);
width = 503;
},
{
layerId = "3E78BF7E-2ACA-4E8F-B7F7-8733FDFDD1D6";
shapes = (
{
closed = 1;
nodes = (
(231,0,l),
(564,714,l),
(361,714,l),
(29,0,l)
);
}
);
width = 592;
},
{
layerId = "CEA8704A-49A9-4D73-A586-1E9554ACC001";
shapes = (
{
closed = 1;
nodes = (
(277,0,l),
(722,714,l),
(473,714,l),
(29,0,l)
);
}
);
width = 752;
},
{
layerId = "5974A488-68BA-4ECA-A629-BBB8F5E8E8D7";
shapes = (
{
closed = 1;
nodes = (
(195,-2,l),
(571,714,l),
(355,714,l),
(-20,-2,l)
);
}
);
width = 516;
},
{
layerId = "406F15BE-EF31-460D-8EE8-85AD72A74E98";
shapes = (
{
closed = 1;
nodes = (
(198,0,l),
(657,714,l),
(443,714,l),
(-16,0,l)
);
}
);
width = 604;
},
{
layerId = "974B3D67-9F33-42CE-B7A8-3E18495C5B4F";
shapes = (
{
closed = 1;
nodes = (
(249,0,l),
(819,714,l),
(554,714,l),
(-16,0,l)
);
}
);
width = 767;
}
);
unicode = 47;
}
{
category = Number;
color = 6;
glyphname = zero;
kernLeft = zero;
kernRight = zero;
layers = (
{
layerId = m007;
shapes = (
{
closed = 1;
nodes = (
(635,-14,o),
(791,123,o),
(791,357,cs),
(791,592,o),
(635,727,o),
(421,727,cs),
(207,727,o),
(52,592,o),
(52,357,cs),
(52,123,o),
(207,-14,o),
(421,-14,cs)
);
},
{
closed = 1;
nodes = (
(242,44,o),
(125,161,o),
(125,357,cs),
(125,554,o),
(242,669,o),
(421,669,cs),
(601,669,o),
(717,554,o),
(717,357,cs),
(717,161,o),
(601,44,o),
(421,44,cs)
);
}
);
width = 843;
},
{
layerId = "7DF63F5B-BA78-420A-94D8-89AFC26E7780";
shapes = (
{
closed = 1;
nodes = (
(655,-14,o),
(814,125,o),
(814,357,cs),
(814,590,o),
(655,727,o),
(430,727,cs),
(206,727,o),
(47,590,o),
(47,357,cs),
(47,125,o),
(206,-14,o),
(430,-14,cs)
);
},
{
closed = 1;
nodes = (
(260,66,o),
(151,179,o),
(151,357,cs),
(151,537,o),
(260,647,o),
(430,647,cs),
(600,647,o),
(710,537,o),
(710,357,cs),
(710,179,o),
(600,66,o),
(430,66,cs)
);
}
);
width = 861;
},
{
layerId = "CF630257-B204-4765-8982-527F59E4E5D4";
shapes = (
{
closed = 1;
nodes = (
(450,-12,o),
(542,120,o),
(542,357,cs),
(542,596,o),
(450,726,o),
(306,726,cs),
(161,726,o),
(70,596,o),
(70,357,cs),
(70,120,o),
(161,-12,o),
(306,-12,cs)
);
},
{
closed = 1;
nodes = (
(196,40,o),
(132,150,o),
(132,357,cs),
(132,564,o),
(196,674,o),
(306,674,cs),
(416,674,o),
(480,564,o),
(480,357,cs),
(480,150,o),
(416,40,o),
(306,40,cs)
);
}
);
width = 612;
},
{
layerId = "89792DEA-715D-4C6B-9843-C33DBACDCF53";
shapes = (
{
closed = 1;
nodes = (
(372,-12,o),
(441,106,o),
(441,358,cs),
(441,610,o),
(372,726,o),
(248,726,cs),
(123,726,o),
(55,610,o),
(55,358,cs),
(55,106,o),
(123,-12,o),
(248,-12,cs)
);
},
{
closed = 1;
nodes = (
(153,40,o),
(116,155,o),
(116,358,cs),
(116,561,o),
(153,674,o),
(248,674,cs),
(343,674,o),
(380,561,o),
(380,358,cs),
(380,155,o),
(343,40,o),
(248,40,cs)
);
}
);
width = 496;
},
{
layerId = "F5B2086A-EC1C-45D9-9613-A3504CEE232E";
shapes = (
{
closed = 1;
nodes = (
(388,-12,o),
(461,104,o),
(461,358,cs),
(461,612,o),
(388,726,o),
(255,726,cs),
(123,726,o),
(50,612,o),
(50,358,cs),
(50,104,o),
(123,-12,o),
(255,-12,cs)
);
},
{
closed = 1;
nodes = (
(168,56,o),
(138,160,o),
(138,358,cs),
(138,556,o),
(168,658,o),
(255,658,cs),
(343,658,o),
(374,556,o),
(374,358,cs),
(374,160,o),
(343,56,o),
(255,56,cs)
);
}
);
width = 511;
},
{
layerId = "FEA946D2-303E-4050-8628-E645DE71E218";
shapes = (
{
closed = 1;
nodes = (
(479,-13,o),
(577,123,o),
(577,357,cs),
(577,591,o),
(479,726,o),
(320,726,cs),
(163,726,o),
(65,591,o),
(65,357,cs),
(65,123,o),
(163,-13,o),
(320,-13,cs)
);
},
{
closed = 1;
nodes = (
(212,63,o),
(162,169,o),
(162,357,cs),
(162,545,o),
(212,650,o),
(320,650,cs),
(429,650,o),
(480,545,o),
(480,357,cs),
(480,169,o),
(429,63,o),
(320,63,cs)
);
}
);
width = 642;
},
{
layerId = "3A742E95-6392-47DA-98D0-C770A5889573";
shapes = (
{
closed = 1;
nodes = (
(438,-12,o),
(480,327,o),
(480,477,cs),
(480,630,o),
(437,726,o),
(323,726,cs),
(114,726,o),
(66,389,o),
(66,241,cs),
(66,85,o),
(100,-12,o),
(230,-12,cs)
);
},
{
closed = 1;
nodes = (
(141,38,o),
(127,116,o),
(127,244,cs),
(127,363,o),
(165,676,o),
(319,676,cs),
(394,676,o),
(419,602,o),
(419,477,cs),
(419,366,o),
(392,38,o),
(230,38,cs)
);
}
);
width = 512;
},
{
layerId = "DA512DF4-6FCD-4164-96D6-05DE8967F50A";
shapes = (
{
closed = 1;
nodes = (
(522,-13,o),
(600,258,o),
(600,445,cs),
(600,619,o),
(527,726,o),
(391,726,cs),
(157,726,o),
(79,459,o),
(79,270,cs),
(79,96,o),
(151,-13,o),
(287,-13,cs)
);
},
{
closed = 1;
nodes = (
(205,63,o),
(175,138,o),
(175,275,cs),
(175,405,o),
(211,650,o),
(389,650,cs),
(473,650,o),
(504,576,o),
(504,439,cs),
(504,312,o),
(467,63,o),
(289,63,cs)
);
}
);
width = 643;
},
{
layerId = "0A603DC7-0F9F-4E29-AC1C-80B527B5555F";
shapes = (
{
closed = 1;
nodes = (
(446,-12,o),
(493,320,o),
(493,474,cs),
(493,632,o),
(443,726,o),
(327,726,cs),
(111,726,o),
(61,392,o),
(61,243,cs),
(61,83,o),
(103,-12,o),
(232,-12,cs)
);
},
{
closed = 1;
nodes = (
(160,56,o),
(146,122,o),
(146,236,cs),
(146,342,o),
(182,658,o),
(321,658,cs),
(385,658,o),
(408,595,o),
(408,484,cs),
(408,383,o),
(380,56,o),
(235,56,cs)
);
}
);
width = 519;
},
{
layerId = "38E57698-3E0D-47EE-AD12-065B63128021";
shapes = (
{
closed = 1;
nodes = (
(495,-13,o),
(570,276,o),
(570,456,cs),
(570,628,o),
(507,726,o),
(380,726,cs),
(155,726,o),
(82,439,o),
(82,258,cs),
(82,86,o),
(143,-13,o),
(272,-13,cs)
);
},
{
closed = 1;
nodes = (
(181,39,o),
(145,116,o),
(145,253,cs),
(145,401,o),
(196,674,o),
(378,674,cs),
(471,674,o),
(508,598,o),
(508,462,cs),
(508,314,o),
(454,39,o),
(274,39,cs)
);
}
);
width = 616;
},
{
layerId = "7B4F6316-DEA5-4C61-853A-FCC6E55FB2E9";
shapes = (
{
closed = 1;
nodes = (
(654,-14,o),
(814,176,o),
(814,401,cs),
(814,607,o),
(674,727,o),
(482,727,cs),
(215,727,o),
(68,518,o),
(68,310,cs),
(68,100,o),
(201,-14,o),
(401,-14,cs)
);
},
{
closed = 1;
nodes = (
(239,44,o),
(142,137,o),
(142,311,cs),
(142,493,o),
(257,669,o),
(477,669,cs),
(638,669,o),
(741,569,o),
(741,399,cs),
(741,214,o),
(614,44,o),
(401,44,cs)
);
}
);
width = 848;
},
{
layerId = "FF0E7F91-EBB7-4227-9826-320229507C52";
shapes = (
{
closed = 1;
nodes = (
(663,-14,o),
(832,166,o),
(832,399,cs),
(832,604,o),
(692,727,o),
(490,727,cs),
(224,727,o),
(65,532,o),
(65,313,cs),
(65,104,o),
(200,-14,o),
(409,-14,cs)
);
},
{
closed = 1;
nodes = (
(260,66,o),
(169,153,o),
(169,316,cs),
(169,489,o),
(279,647,o),
(481,647,cs),
(632,647,o),
(728,555,o),
(728,395,cs),
(728,220,o),
(610,66,o),
(413,66,cs)
);
}
);
width = 863;
},
{
layerId = "F74FB5BD-F4A6-4696-AECE-814F0CF1BFBE";
shapes = (
{
closed = 1;
nodes = (
(419,-13,o),
(520,98,o),
(520,357,cs),
(520,616,o),
(419,727,o),
(274,727,cs),
(127,727,o),
(28,616,o),
(28,357,cs),
(28,98,o),
(127,-13,o),
(274,-13,cs)
);
},
{
closed = 1;
nodes = (
(240,148,o),
(225,196,o),
(225,357,cs),
(225,518,o),
(240,566,o),
(274,566,cs),
(309,566,o),
(322,518,o),
(322,357,cs),
(322,196,o),
(309,148,o),
(274,148,cs)
);
}
);
width = 548;
},
{
layerId = "3E78BF7E-2ACA-4E8F-B7F7-8733FDFDD1D6";
shapes = (
{
closed = 1;
nodes = (
(526,-13,o),
(624,135,o),
(624,357,cs),
(624,579,o),
(526,727,o),
(337,727,cs),
(147,727,o),
(48,579,o),
(48,357,cs),
(48,135,o),
(147,-13,o),
(337,-13,cs)
);
},
{
closed = 1;
nodes = (
(268,148,o),
(248,223,o),
(248,357,cs),
(248,491,o),
(268,566,o),
(337,566,cs),
(406,566,o),
(425,491,o),
(425,357,cs),
(425,223,o),
(406,148,o),
(337,148,cs)
);
}
);
width = 672;
},
{
layerId = "CEA8704A-49A9-4D73-A586-1E9554ACC001";
shapes = (
{
closed = 1;
nodes = (
(716,-14,o),
(878,140,o),
(878,357,cs),
(878,575,o),
(716,728,o),
(457,728,cs),
(197,728,o),
(35,575,o),
(35,357,cs),
(35,140,o),
(197,-14,o),
(457,-14,cs)
);
},
{
closed = 1;
nodes = (
(325,153,o),
(260,249,o),
(260,357,cs),
(260,466,o),
(325,561,o),
(457,561,cs),
(587,561,o),
(653,466,o),
(653,357,cs),
(653,249,o),
(587,153,o),
(457,153,cs)
);
}
);
width = 913;
},
{
layerId = "5974A488-68BA-4ECA-A629-BBB8F5E8E8D7";
shapes = (
{
closed = 1;
nodes = (
(483,-13,o),
(549,288,o),
(549,460,cs),
(549,640,o),
(470,727,o),
(349,727,cs),
(100,727,o),
(41,407,o),
(41,252,cs),
(41,73,o),
(120,-13,o),
(241,-13,cs)
);
},
{
closed = 1;
nodes = (
(241,148,o),
(230,166,o),
(230,200,cs),
(230,254,o),
(259,566,o),
(330,566,cs),
(350,566,o),
(362,548,o),
(362,513,cs),
(362,457,o),
(331,148,o),
(260,148,cs)
);
}
);
width = 555;
},
{
layerId = "406F15BE-EF31-460D-8EE8-85AD72A74E98";
shapes = (
{
closed = 1;
nodes = (
(544,-13,o),
(647,209,o),
(647,437,cs),
(647,604,o),
(563,726,o),
(405,726,cs),
(175,726,o),
(63,505,o),
(63,278,cs),
(63,111,o),
(146,-13,o),
(314,-13,cs)
);
},
{
closed = 1;
nodes = (
(280,148,o),
(262,195,o),
(262,269,cs),
(262,402,o),
(290,565,o),
(387,565,cs),
(429,565,o),
(447,512,o),
(447,435,cs),
(447,309,o),
(422,148,o),
(322,148,cs)
);
}
);
width = 675;
},
{
layerId = "974B3D67-9F33-42CE-B7A8-3E18495C5B4F";
shapes = (
{
closed = 1;
nodes = (
(702,-14,o),
(908,125,o),
(908,391,cs),
(908,594,o),
(765,728,o),
(520,728,cs),
(261,728,o),
(54,590,o),
(54,323,cs),
(54,121,o),
(198,-14,o),
(442,-14,cs)
);
},
{
closed = 1;
nodes = (
(349,153,o),
(279,220,o),
(279,337,cs),
(279,472,o),
(373,561,o),
(501,561,cs),
(613,561,o),
(682,494,o),
(682,377,cs),
(682,246,o),
(595,153,o),
(462,153,cs)
);
}
);
width = 927;
}
);
unicode = 48;
}
{
category = Number;
color = 6;
glyphname = one;
kernLeft = one;
kernRight = one;
layers = (
{
layerId = m007;
shapes = (
{
closed = 1;
nodes = (
(362,0,l),
(362,714,l),
(293,714,l),
(293,571,l),
(47,571,l),
(47,514,l),
(293,514,l),
(293,0,l)
);
}
);
width = 464;
},
{
layerId = "7DF63F5B-BA78-420A-94D8-89AFC26E7780";
shapes = (
{
closed = 1;
nodes = (
(384,0,l),
(384,714,l),
(284,714,l),
(284,571,l),
(41,571,l),
(41,492,l),
(284,492,l),
(284,0,l)
);
}
);
width = 479;
},
{
layerId = "CF630257-B204-4765-8982-527F59E4E5D4";
shapes = (
{
closed = 1;
nodes = (
(300,0,l),
(300,714,l),
(238,714,l),
(238,570,l),
(58,570,l),
(58,517,l),
(238,517,l),
(238,0,l)
);
}
);
width = 410;
},
{
layerId = "89792DEA-715D-4C6B-9843-C33DBACDCF53";
shapes = (
{
closed = 1;
nodes = (
(240,0,l),
(240,714,l),
(182,714,l),
(182,568,l),
(48,568,l),
(48,520,l),
(182,520,l),
(182,0,l)
);
}
);
width = 342;
},
{
layerId = "F5B2086A-EC1C-45D9-9613-A3504CEE232E";
shapes = (
{
closed = 1;
nodes = (
(256,2,l),
(256,716,l),
(172,716,l),
(172,579,l),
(42,579,l),
(42,512,l),
(172,512,l),
(172,2,l)
);
}
);
width = 350;
},
{
layerId = "FEA946D2-303E-4050-8628-E645DE71E218";
shapes = (
{
closed = 1;
nodes = (
(317,0,l),
(317,714,l),
(224,714,l),
(224,579,l),
(49,579,l),
(49,501,l),
(224,501,l),
(224,0,l)
);
}
);
width = 421;
},
{
layerId = "3A742E95-6392-47DA-98D0-C770A5889573";
shapes = (
{
closed = 1;
nodes = (
(195,0,l),
(321,714,l),
(263,714,l),
(237,568,l),
(103,568,l),
(95,520,l),
(229,520,l),
(137,0,l)
);
}
);
width = 342;
},
{
layerId = "DA512DF4-6FCD-4164-96D6-05DE8967F50A";
shapes = (
{
closed = 1;
nodes = (
(272,0,l),
(399,714,l),
(305,714,l),
(281,579,l),
(106,579,l),
(93,501,l),
(267,501,l),
(179,0,l)
);
}
);
width = 422;
},
{
layerId = "0A603DC7-0F9F-4E29-AC1C-80B527B5555F";
shapes = (
{
closed = 1;
nodes = (
(211,0,l),
(337,714,l),
(253,714,l),
(229,579,l),
(99,579,l),
(87,512,l),
(217,512,l),
(127,0,l)
);
}
);
width = 350;
},
{
layerId = "38E57698-3E0D-47EE-AD12-065B63128021";
shapes = (
{
closed = 1;
nodes = (
(254,0,l),
(379,714,l),
(318,714,l),
(294,570,l),
(113,570,l),
(104,517,l),
(283,517,l),
(193,0,l)
);
}
);
width = 409;
},
{
layerId = "7B4F6316-DEA5-4C61-853A-FCC6E55FB2E9";
shapes = (
{
closed = 1;
nodes = (
(316,0,l),
(443,714,l),
(373,714,l),
(348,571,l),
(102,571,l),
(92,514,l),
(338,514,l),
(247,0,l)
);
}
);
width = 464;
},
{
layerId = "FF0E7F91-EBB7-4227-9826-320229507C52";
shapes = (
{
closed = 1;
nodes = (
(337,0,l),
(463,714,l),
(363,714,l),
(338,571,l),
(99,571,l),
(86,492,l),
(324,492,l),
(237,0,l)
);
}
);
width = 479;
},
{
layerId = "F74FB5BD-F4A6-4696-AECE-814F0CF1BFBE";
shapes = (
{
closed = 1;
nodes = (
(342,0,l),
(342,714,l),
(146,714,l),
(146,594,l),
(31,594,l),
(31,433,l),
(146,433,l),
(146,0,l)
);
}
);
width = 399;
},
{
layerId = "3E78BF7E-2ACA-4E8F-B7F7-8733FDFDD1D6";
shapes = (
{
closed = 1;
nodes = (
(396,0,l),
(396,714,l),
(197,714,l),
(197,588,l),
(38,588,l),
(38,424,l),
(197,424,l),
(197,0,l)
);
}
);
width = 471;
},
{
layerId = "CEA8704A-49A9-4D73-A586-1E9554ACC001";
shapes = (
{
closed = 1;
nodes = (
(465,0,l),
(465,714,l),
(243,714,l),
(243,571,l),
(34,571,l),
(34,406,l),
(243,406,l),
(243,0,l)
);
}
);
width = 543;
},
{
layerId = "5974A488-68BA-4ECA-A629-BBB8F5E8E8D7";
shapes = (
{
closed = 1;
nodes = (
(297,0,l),
(423,714,l),
(227,714,l),
(206,594,l),
(90,594,l),
(63,433,l),
(178,433,l),
(101,0,l)
);
}
);
width = 399;
},
{
layerId = "406F15BE-EF31-460D-8EE8-85AD72A74E98";
shapes = (
{
closed = 1;
nodes = (
(351,0,l),
(477,714,l),
(277,714,l),
(255,588,l),
(96,588,l),
(66,424,l),
(226,424,l),
(151,0,l)
);
}
);
width = 471;
},
{
layerId = "974B3D67-9F33-42CE-B7A8-3E18495C5B4F";
shapes = (
{
closed = 1;
nodes = (
(419,0,l),
(546,714,l),
(323,714,l),
(298,571,l),
(89,571,l),
(60,406,l),
(269,406,l),
(197,0,l)
);
}
);
width = 543;
}
);
metricRight = "=H+20";
unicode = 49;
}
{
color = 6;
glyphname = two;
kernLeft = two;
kernRight = two;
layers = (
{
layerId = m007;
shapes = (
{
closed = 1;
nodes = (
(724,0,l),
(724,57,l),
(134,57,l),
(161,169,o),
(400,237,o),
(559,330,cs),
(655,387,o),
(716,441,o),
(716,532,cs),
(716,642,o),
(629,728,o),
(402,728,cs),
(186,728,o),
(83,645,o),
(73,531,c),
(145,531,l),
(156,606,o),
(225,670,o),
(402,670,cs),
(575,670,o),
(643,611,o),
(643,533,cs),
(643,430,o),
(510,377,o),
(373,310,cs),
(228,239,o),
(57,172,o),
(57,26,cs),
(57,0,l)
);
}
);
width = 781;
},
{
layerId = "7DF63F5B-BA78-420A-94D8-89AFC26E7780";
shapes = (
{
closed = 1;
nodes = (
(740,0,l),
(740,80,l),
(173,80,l),
(205,170,o),
(413,236,o),
(577,324,cs),
(671,375,o),
(733,431,o),
(733,527,cs),
(733,639,o),
(633,728,o),
(405,728,cs),
(182,728,o),
(72,640,o),
(63,513,c),
(165,513,l),
(177,588,o),
(243,648,o),
(406,648,cs),
(565,648,o),
(628,594,o),
(628,527,cs),
(628,434,o),
(506,387,o),
(359,318,cs),
(205,247,o),
(52,173,o),
(52,35,cs),
(52,0,l)
);
}
);
width = 792;
},
{
layerId = "CF630257-B204-4765-8982-527F59E4E5D4";
shapes = (
{
closed = 1;
nodes = (
(531,0,l),
(531,53,l),
(129,53,l),
(139,173,o),
(289,235,o),
(401,329,cs),
(466,385,o),
(521,443,o),
(521,532,cs),
(521,642,o),
(435,726,o),
(303,726,cs),
(166,726,o),
(82,641,o),
(79,533,c),
(141,533,l),
(146,604,o),
(196,672,o),
(302,672,cs),
(393,672,o),
(457,618,o),
(457,530,cs),
(457,429,o),
(370,384,o),
(281,314,cs),
(182,239,o),
(63,173,o),
(63,24,cs),
(63,0,l)
);
}
);
width = 595;
},
{
layerId = "89792DEA-715D-4C6B-9843-C33DBACDCF53";
shapes = (
{
closed = 1;
nodes = (
(424,0,l),
(424,48,l),
(115,48,l),
(124,133,o),
(181,180,o),
(267,272,cs),
(315,324,o),
(419,415,o),
(419,546,cs),
(419,641,o),
(363,726,o),
(249,726,cs),
(134,726,o),
(68,645,o),
(65,544,c),
(124,544,l),
(130,606,o),
(165,676,o),
(248,676,cs),
(320,676,o),
(358,616,o),
(358,544,cs),
(358,431,o),
(263,356,o),
(204,295,cs),
(130,218,o),
(53,151,o),
(53,18,cs),
(53,0,l)
);
}
);
width = 477;
},
{
layerId = "F5B2086A-EC1C-45D9-9613-A3504CEE232E";
shapes = (
{
closed = 1;
nodes = (
(435,0,l),
(435,67,l),
(138,67,l),
(151,144,o),
(216,200,o),
(296,284,cs),
(349,340,o),
(435,427,o),
(435,548,cs),
(435,651,o),
(371,727,o),
(249,727,cs),
(129,727,o),
(53,642,o),
(54,534,c),
(139,534,l),
(143,600,o),
(176,658,o),
(247,658,cs),
(310,658,o),
(347,611,o),
(347,547,cs),
(347,446,o),
(264,372,o),
(200,309,cs),
(125,237,o),
(48,157,o),
(48,28,cs),
(48,0,l)
);
}
);
width = 485;
},
{
layerId = "FEA946D2-303E-4050-8628-E645DE71E218";
shapes = (
{
closed = 1;
nodes = (
(548,0,l),
(548,80,l),
(168,80,l),
(190,174,o),
(316,233,o),
(422,320,cs),
(488,374,o),
(539,440,o),
(539,528,cs),
(539,649,o),
(445,729,o),
(308,729,cs),
(163,729,o),
(67,642,o),
(68,520,c),
(163,520,l),
(166,591,o),
(212,650,o),
(305,650,cs),
(386,650,o),
(442,603,o),
(442,529,cs),
(442,424,o),
(335,366,o),
(238,294,cs),
(146,226,o),
(59,152,o),
(59,27,cs),
(59,0,l)
);
}
);
width = 607;
},
{
layerId = "3A742E95-6392-47DA-98D0-C770A5889573";
shapes = (
{
closed = 1;
nodes = (
(379,0,l),
(387,48,l),
(80,46,l),
(105,130,o),
(161,182,o),
(267,271,cs),
(379,365,o),
(471,446,o),
(471,572,cs),
(471,656,o),
(420,726,o),
(318,726,cs),
(203,726,o),
(131,651,o),
(114,544,c),
(173,544,l),
(186,611,o),
(231,676,o),
(313,676,cs),
(375,676,o),
(410,629,o),
(410,570,cs),
(410,454,o),
(305,380,o),
(208,297,cs),
(118,220,o),
(35,153,o),
(11,20,cs),
(8,0,l)
);
}
);
width = 477;
},
{
layerId = "DA512DF4-6FCD-4164-96D6-05DE8967F50A";
shapes = (
{
closed = 1;
nodes = (
(503,0,l),
(516,80,l),
(137,80,l),
(174,167,o),
(276,213,o),
(390,289,cs),
(503,364,o),
(588,445,o),
(588,552,cs),
(588,658,o),
(505,729,o),
(377,729,cs),
(245,729,o),
(137,652,o),
(115,520,c),
(209,520,l),
(227,600,o),
(284,650,o),
(372,650,cs),
(448,650,o),
(493,613,o),
(493,551,cs),
(493,437,o),
(352,365,o),
(250,302,cs),
(136,227,o),
(44,157,o),
(19,27,cs),
(14,0,l)
);
}
);
width = 607;
},
{
layerId = "0A603DC7-0F9F-4E29-AC1C-80B527B5555F";
shapes = (
{
closed = 1;
nodes = (
(391,0,l),
(402,67,l),
(110,67,l),
(136,142,o),
(190,191,o),
(285,271,cs),
(395,365,o),
(484,443,o),
(484,567,cs),
(484,656,o),
(428,727,o),
(321,727,cs),
(201,727,o),
(124,650,o),
(105,534,c),
(189,534,l),
(200,598,o),
(241,658,o),
(312,658,cs),
(366,658,o),
(397,617,o),
(397,564,cs),
(397,455,o),
(292,383,o),
(201,305,cs),
(111,228,o),
(31,161,o),
(8,29,cs),
(3,0,l)
);
}
);
width = 486;
},
{
layerId = "38E57698-3E0D-47EE-AD12-065B63128021";
shapes = (
{
closed = 1;
nodes = (
(487,0,l),
(496,53,l),
(95,53,l),
(129,164,o),
(256,221,o),
(364,289,cs),
(505,376,o),
(572,459,o),
(572,555,cs),
(572,655,o),
(499,726,o),
(376,726,cs),
(252,726,o),
(149,656,o),
(128,533,c),
(190,533,l),
(210,618,o),
(277,669,o),
(371,669,cs),
(452,669,o),
(508,626,o),
(508,556,cs),
(508,443,o),
(392,375,o),
(289,311,cs),
(172,239,o),
(49,174,o),
(22,20,cs),
(18,0,l)
);
}
);
width = 595;
},
{
layerId = "7B4F6316-DEA5-4C61-853A-FCC6E55FB2E9";
shapes = (
{
closed = 1;
nodes = (
(669,0,l),
(679,57,l),
(100,57,l),
(147,170,o),
(391,243,o),
(544,323,cs),
(664,387,o),
(736,445,o),
(736,547,cs),
(736,656,o),
(650,728,o),
(451,728,cs),
(263,728,o),
(147,646,o),
(121,531,c),
(193,531,l),
(216,608,o),
(295,670,o),
(454,670,cs),
(604,670,o),
(663,621,o),
(663,545,cs),
(663,438,o),
(528,384,o),
(371,312,cs),
(214,241,o),
(44,172,o),
(16,22,cs),
(12,0,l)
);
}
);
width = 771;
},
{
layerId = "FF0E7F91-EBB7-4227-9826-320229507C52";
shapes = (
{
closed = 1;
nodes = (
(686,0,l),
(700,80,l),
(149,80,l),
(197,173,o),
(400,235,o),
(555,312,cs),
(679,373,o),
(758,434,o),
(758,540,cs),
(758,654,o),
(666,728,o),
(461,728,cs),
(265,728,o),
(143,645,o),
(114,513,c),
(216,513,l),
(239,594,o),
(313,649,o),
(462,649,cs),
(599,649,o),
(653,606,o),
(653,538,cs),
(653,440,o),
(525,392,o),
(363,320,cs),
(196,246,o),
(41,179,o),
(14,29,cs),
(9,0,l)
);
}
);
width = 784;
},
{
layerId = "F74FB5BD-F4A6-4696-AECE-814F0CF1BFBE";
shapes = (
{
closed = 1;
nodes = (
(494,0,l),
(494,153,l),
(260,153,l),
(282,194,o),
(322,230,o),
(364,274,cs),
(427,343,o),
(501,405,o),
(501,523,cs),
(501,648,o),
(413,727,o),
(270,727,cs),
(129,727,o),
(35,646,o),
(27,511,c),
(222,511,l),
(222,550,o),
(239,575,o),
(264,575,cs),
(289,575,o),
(303,558,o),
(303,521,cs),
(303,441,o),
(236,404,o),
(166,332,cs),
(92,256,o),
(36,190,o),
(36,61,cs),
(36,0,l)
);
}
);
width = 529;
},
{
layerId = "3E78BF7E-2ACA-4E8F-B7F7-8733FDFDD1D6";
shapes = (
{
closed = 1;
nodes = (
(609,0,l),
(609,163,l),
(310,163,l),
(358,209,o),
(436,251,o),
(500,305,cs),
(559,355,o),
(602,415,o),
(602,501,cs),
(602,646,o),
(485,729,o),
(331,729,cs),
(159,729,o),
(54,634,o),
(49,497,c),
(245,497,l),
(247,544,o),
(279,570,o),
(324,570,cs),
(367,570,o),
(397,545,o),
(397,498,cs),
(397,425,o),
(313,377,o),
(227,313,cs),
(137,245,o),
(45,162,o),
(45,22,cs),
(45,0,l)
);
}
);
width = 653;
},
{
layerId = "CEA8704A-49A9-4D73-A586-1E9554ACC001";
shapes = (
{
closed = 1;
nodes = (
(801,0,l),
(801,165,l),
(359,165,l),
(402,186,o),
(440,205,o),
(598,270,cs),
(734,328,o),
(808,396,o),
(808,501,cs),
(808,638,o),
(683,729,o),
(446,729,cs),
(195,729,o),
(60,639,o),
(44,490,c),
(272,490,l),
(282,534,o),
(329,562,o),
(438,562,cs),
(536,562,o),
(576,533,o),
(576,497,cs),
(576,444,o),
(491,421,o),
(309,348,cs),
(121,270,o),
(40,194,o),
(40,54,cs),
(40,0,l)
);
}
);
width = 847;
},
{
layerId = "5974A488-68BA-4ECA-A629-BBB8F5E8E8D7";
shapes = (
{
closed = 1;
nodes = (
(452,0,l),
(478,153,l),
(244,146,l),
(276,187,o),
(323,224,o),
(372,269,cs),
(476,363,o),
(550,429,o),
(550,543,cs),
(550,655,o),
(473,727,o),
(344,727,cs),
(203,727,o),
(103,657,o),
(72,511,c),
(264,511,l),
(272,552,o),
(293,575,o),
(319,575,cs),
(339,575,o),
(352,563,o),
(352,539,cs),
(352,457,o),
(248,397,o),
(180,338,cs),
(91,260,o),
(26,195,o),
(5,68,cs),
(-7,0,l)
);
}
);
width = 531;
},
{
layerId = "406F15BE-EF31-460D-8EE8-85AD72A74E98";
shapes = (
{
closed = 1;
nodes = (
(564,0,l),
(592,163,l),
(307,163,l),
(344,199,o),
(407,228,o),
(497,294,cs),
(577,354,o),
(644,424,o),
(644,518,cs),
(644,658,o),
(539,729,o),
(401,729,cs),
(235,729,o),
(116,650,o),
(92,497,c),
(286,497,l),
(298,542,o),
(331,571,o),
(375,571,cs),
(412,571,o),
(435,550,o),
(435,515,cs),
(435,437,o),
(303,374,o),
(219,316,cs),
(116,244,o),
(27,166,o),
(4,23,cs),
(0,0,l)
);
}
);
width = 654;
},
{
layerId = "974B3D67-9F33-42CE-B7A8-3E18495C5B4F";
shapes = (
{
closed = 1;
nodes = (
(757,0,l),
(785,165,l),
(349,165,l),
(392,184,o),
(435,201,o),
(600,265,cs),
(741,320,o),
(844,387,o),
(844,512,cs),
(844,645,o),
(731,729,o),
(503,729,cs),
(272,729,o),
(129,638,o),
(86,490,c),
(314,490,l),
(331,533,o),
(390,562,o),
(497,562,cs),
(578,562,o),
(613,542,o),
(613,507,cs),
(613,450,o),
(514,425,o),
(332,352,cs),
(119,266,o),
(30,201,o),
(4,52,cs),
(-5,0,l)
);
}
);
width = 840;
}
);
unicode = 50;
}
{
category = Number;
color = 6;
glyphname = three;
kernLeft = three;
kernRight = three;
layers = (
{
layerId = m007;
shapes = (
{
closed = 1;
nodes = (
(646,-14,o),
(726,88,o),
(726,202,cs),
(726,305,o),
(655,361,o),
(550,372,c),
(655,393,o),
(714,457,o),
(714,541,cs),
(714,657,o),
(620,728,o),
(397,728,cs),
(150,728,o),
(68,622,o),
(67,528,c),
(139,528,l),
(143,594,o),
(196,670,o),
(395,670,cs),
(582,670,o),
(643,616,o),
(643,534,cs),
(643,462,o),
(587,402,o),
(505,402,cs),
(325,402,l),
(325,345,l),
(492,345,ls),
(600,345,o),
(653,279,o),
(653,202,cs),
(653,99,o),
(574,44,o),
(391,44,cs),
(195,44,o),
(136,130,o),
(130,192,c),
(57,192,l),
(60,83,o),
(152,-14,o),
(391,-14,cs)
);
}
);
width = 788;
},
{
layerId = "7DF63F5B-BA78-420A-94D8-89AFC26E7780";
shapes = (
{
closed = 1;
nodes = (
(661,-14,o),
(750,88,o),
(750,202,cs),
(750,299,o),
(681,359,o),
(573,373,c),
(679,393,o),
(737,457,o),
(737,539,cs),
(737,651,o),
(645,728,o),
(406,728,cs),
(155,728,o),
(66,619,o),
(62,518,c),
(166,518,l),
(175,581,o),
(224,648,o),
(407,648,cs),
(576,648,o),
(635,600,o),
(635,526,cs),
(635,460,o),
(584,410,o),
(509,410,cs),
(324,410,l),
(324,333,l),
(500,333,ls),
(596,333,o),
(646,275,o),
(646,208,cs),
(646,117,o),
(572,66,o),
(402,66,cs),
(223,66,o),
(164,137,o),
(157,202,c),
(52,202,l),
(56,86,o),
(150,-14,o),
(402,-14,cs)
);
}
);
width = 807;
},
{
layerId = "CF630257-B204-4765-8982-527F59E4E5D4";
shapes = (
{
closed = 1;
nodes = (
(468,-12,o),
(537,90,o),
(537,196,cs),
(537,305,o),
(463,361,o),
(375,372,c),
(463,388,o),
(521,453,o),
(521,546,cs),
(521,659,o),
(436,726,o),
(305,726,cs),
(143,726,o),
(73,625,o),
(71,542,c),
(134,542,l),
(138,601,o),
(184,673,o),
(304,673,cs),
(407,673,o),
(459,617,o),
(459,543,cs),
(459,460,o),
(400,399,o),
(316,399,cs),
(257,399,l),
(257,346,l),
(300,346,ls),
(414,346,o),
(473,276,o),
(473,195,cs),
(473,92,o),
(403,41,o),
(301,41,cs),
(185,41,o),
(132,121,o),
(125,179,c),
(63,179,l),
(66,89,o),
(149,-12,o),
(299,-12,cs)
);
}
);
width = 600;
},
{
layerId = "89792DEA-715D-4C6B-9843-C33DBACDCF53";
shapes = (
{
closed = 1;
nodes = (
(374,-12,o),
(438,78,o),
(438,191,cs),
(438,303,o),
(372,366,o),
(295,375,c),
(380,398,o),
(423,472,o),
(423,552,cs),
(423,654,o),
(357,726,o),
(249,726,cs),
(111,726,o),
(61,625,o),
(61,550,c),
(120,550,l),
(123,607,o),
(158,676,o),
(248,676,cs),
(321,676,o),
(364,625,o),
(364,549,cs),
(364,460,o),
(302,398,o),
(246,398,cs),
(204,398,l),
(204,350,l),
(243,350,ls),
(324,350,o),
(375,282,o),
(375,193,cs),
(375,88,o),
(320,38,o),
(245,38,cs),
(159,38,o),
(116,97,o),
(113,170,c),
(53,170,l),
(54,75,o),
(112,-12,o),
(246,-12,cs)
);
}
);
width = 496;
},
{
layerId = "F5B2086A-EC1C-45D9-9613-A3504CEE232E";
shapes = (
{
closed = 1;
nodes = (
(386,-13,o),
(458,70,o),
(458,190,cs),
(458,296,o),
(393,363,o),
(310,374,c),
(396,399,o),
(444,473,o),
(444,553,cs),
(444,652,o),
(378,727,o),
(256,727,cs),
(114,727,o),
(56,623,o),
(56,542,c),
(140,542,l),
(142,591,o),
(173,658,o),
(256,658,cs),
(323,658,o),
(359,613,o),
(359,546,cs),
(359,470,o),
(314,407,o),
(250,407,cs),
(203,407,l),
(203,339,l),
(248,339,ls),
(329,339,o),
(370,270,o),
(370,195,cs),
(370,101,o),
(326,56,o),
(252,56,cs),
(169,56,o),
(136,118,o),
(132,179,c),
(48,179,l),
(50,84,o),
(105,-13,o),
(253,-13,cs)
);
}
);
width = 511;
},
{
layerId = "FEA946D2-303E-4050-8628-E645DE71E218";
shapes = (
{
closed = 1;
nodes = (
(471,-15,o),
(565,74,o),
(565,193,cs),
(565,302,o),
(491,362,o),
(411,372,c),
(497,397,o),
(547,460,o),
(547,543,cs),
(547,651,o),
(466,729,o),
(320,729,cs),
(143,729,o),
(66,621,o),
(66,528,c),
(160,528,l),
(163,582,o),
(209,651,o),
(316,651,cs),
(405,651,o),
(452,607,o),
(452,535,cs),
(452,462,o),
(403,407,o),
(325,407,cs),
(262,407,l),
(262,331,l),
(328,331,ls),
(413,331,o),
(466,278,o),
(466,200,cs),
(466,106,o),
(402,63,o),
(308,63,cs),
(194,63,o),
(157,140,o),
(154,192,c),
(59,192,l),
(63,84,o),
(130,-15,o),
(310,-15,cs)
);
}
);
width = 624;
},
{
layerId = "3A742E95-6392-47DA-98D0-C770A5889573";
shapes = (
{
closed = 1;
nodes = (
(342,-12,o),
(430,96,o),
(430,214,cs),
(430,310,o),
(379,367,o),
(314,375,c),
(413,400,o),
(474,484,o),
(474,574,cs),
(474,665,o),
(419,726,o),
(321,726,cs),
(183,726,o),
(122,625,o),
(109,550,c),
(167,550,l),
(180,607,o),
(225,676,o),
(315,676,cs),
(379,676,o),
(415,635,o),
(415,567,cs),
(415,485,o),
(339,398,o),
(269,398,cs),
(229,398,l),
(220,350,l),
(261,350,ls),
(330,350,o),
(368,294,o),
(368,214,cs),
(368,129,o),
(307,38,o),
(212,38,cs),
(118,38,o),
(87,94,o),
(97,170,c),
(38,170,l),
(22,76,o),
(63,-12,o),
(207,-12,cs)
);
}
);
width = 499;
},
{
layerId = "DA512DF4-6FCD-4164-96D6-05DE8967F50A";
shapes = (
{
closed = 1;
nodes = (
(432,-15,o),
(542,75,o),
(542,217,cs),
(542,310,o),
(478,360,o),
(425,373,c),
(504,399,o),
(573,467,o),
(573,556,cs),
(573,661,o),
(494,729,o),
(369,729,cs),
(214,729,o),
(121,636,o),
(101,528,c),
(195,528,l),
(212,592,o),
(262,651,o),
(358,651,cs),
(436,651,o),
(479,606,o),
(479,546,cs),
(479,468,o),
(406,407,o),
(336,407,cs),
(274,407,l),
(262,331,l),
(330,331,ls),
(411,331,o),
(446,282,o),
(446,214,cs),
(446,143,o),
(396,63,o),
(272,63,cs),
(178,63,o),
(139,109,o),
(133,192,c),
(38,192,l),
(31,79,o),
(116,-15,o),
(269,-15,cs)
);
}
);
width = 595;
},
{
layerId = "0A603DC7-0F9F-4E29-AC1C-80B527B5555F";
shapes = (
{
closed = 1;
nodes = (
(356,-13,o),
(448,90,o),
(448,215,cs),
(448,306,o),
(399,365,o),
(330,374,c),
(432,400,o),
(493,481,o),
(493,571,cs),
(493,662,o),
(433,727,o),
(327,727,cs),
(186,727,o),
(120,627,o),
(105,542,c),
(188,542,l),
(201,596,o),
(241,658,o),
(318,658,cs),
(375,658,o),
(407,621,o),
(407,559,cs),
(407,484,o),
(340,407,o),
(274,407,cs),
(232,407,l),
(220,339,l),
(265,339,ls),
(327,339,o),
(361,289,o),
(361,218,cs),
(361,140,o),
(308,56,o),
(221,56,cs),
(138,56,o),
(110,109,o),
(118,179,c),
(34,179,l),
(20,81,o),
(69,-13,o),
(216,-13,cs)
);
}
);
width = 512;
},
{
layerId = "38E57698-3E0D-47EE-AD12-065B63128021";
shapes = (
{
closed = 1;
nodes = (
(407,-12,o),
(519,82,o),
(519,218,cs),
(519,309,o),
(457,359,o),
(396,370,c),
(487,392,o),
(559,464,o),
(559,563,cs),
(559,660,o),
(485,726,o),
(367,726,cs),
(225,726,o),
(141,641,o),
(119,542,c),
(182,542,l),
(201,611,o),
(258,673,o),
(363,673,cs),
(452,673,o),
(497,623,o),
(497,557,cs),
(497,471,o),
(427,399,o),
(334,399,cs),
(272,399,l),
(263,346,l),
(312,346,ls),
(412,346,o),
(456,289,o),
(456,216,cs),
(456,128,o),
(391,41,o),
(264,41,cs),
(155,41,o),
(111,102,o),
(111,179,c),
(49,179,l),
(46,73,o),
(109,-12,o),
(262,-12,cs)
);
}
);
width = 593;
},
{
layerId = "7B4F6316-DEA5-4C61-853A-FCC6E55FB2E9";
shapes = (
{
closed = 1;
nodes = (
(552,-14,o),
(719,63,o),
(719,222,cs),
(719,306,o),
(659,362,o),
(569,371,c),
(696,390,o),
(758,468,o),
(758,555,cs),
(758,658,o),
(664,728,o),
(459,728,cs),
(222,728,o),
(126,621,o),
(107,528,c),
(179,528,l),
(195,592,o),
(268,670,o),
(450,670,cs),
(618,670,o),
(684,623,o),
(684,543,cs),
(684,470,o),
(619,402,o),
(520,402,cs),
(351,402,l),
(341,345,l),
(509,345,ls),
(604,345,o),
(646,296,o),
(646,221,cs),
(646,91,o),
(508,44,o),
(359,44,cs),
(157,44,o),
(121,130,o),
(118,192,c),
(46,192,l),
(46,43,o),
(181,-14,o),
(354,-14,cs)
);
}
);
width = 791;
},
{
layerId = "FF0E7F91-EBB7-4227-9826-320229507C52";
shapes = (
{
closed = 1;
nodes = (
(563,-14,o),
(741,58,o),
(741,221,cs),
(741,302,o),
(683,361,o),
(590,371,c),
(715,390,o),
(778,463,o),
(778,552,cs),
(778,657,o),
(678,728,o),
(468,728,cs),
(222,728,o),
(125,616,o),
(104,518,c),
(206,518,l),
(223,580,o),
(293,648,o),
(458,648,cs),
(611,648,o),
(673,608,o),
(673,533,cs),
(673,468,o),
(614,410,o),
(525,410,cs),
(356,410,l),
(343,333,l),
(515,333,ls),
(600,333,o),
(638,292,o),
(638,225,cs),
(638,111,o),
(516,66,o),
(371,66,cs),
(188,66,o),
(150,142,o),
(145,202,c),
(43,202,l),
(43,60,o),
(164,-14,o),
(363,-14,cs)
);
}
);
width = 809;
},
{
layerId = "F74FB5BD-F4A6-4696-AECE-814F0CF1BFBE";
shapes = (
{
closed = 1;
nodes = (
(431,-13,o),
(534,64,o),
(534,203,cs),
(534,290,o),
(487,357,o),
(387,373,c),
(480,400,o),
(525,460,o),
(525,546,cs),
(525,648,o),
(441,727,o),
(288,727,cs),
(129,727,o),
(48,637,o),
(43,526,c),
(239,526,l),
(242,559,o),
(260,575,o),
(286,575,cs),
(312,575,o),
(330,557,o),
(330,512,cs),
(330,470,o),
(311,443,o),
(268,443,cs),
(216,443,l),
(216,292,l),
(277,292,ls),
(314,292,o),
(337,265,o),
(337,219,cs),
(337,167,o),
(318,139,o),
(281,139,cs),
(246,139,o),
(225,161,o),
(222,194,c),
(26,194,l),
(29,83,o),
(112,-13,o),
(278,-13,cs)
);
}
);
width = 566;
},
{
layerId = "3E78BF7E-2ACA-4E8F-B7F7-8733FDFDD1D6";
shapes = (
{
closed = 1;
nodes = (
(531,-15,o),
(632,68,o),
(632,196,cs),
(632,269,o),
(586,349,o),
(476,369,c),
(574,392,o),
(623,453,o),
(623,539,cs),
(623,624,o),
(553,729,o),
(349,729,cs),
(151,729,o),
(62,624,o),
(54,514,c),
(257,514,l),
(263,551,o),
(295,571,o),
(343,571,cs),
(392,571,o),
(423,549,o),
(423,504,cs),
(423,458,o),
(390,434,o),
(342,434,cs),
(277,434,l),
(277,293,l),
(349,293,ls),
(401,293,o),
(428,264,o),
(428,220,cs),
(428,171,o),
(393,144,o),
(343,144,cs),
(292,144,o),
(257,164,o),
(250,207,c),
(45,207,l),
(48,100,o),
(127,-15,o),
(339,-15,cs)
);
}
);
width = 682;
},
{
layerId = "CEA8704A-49A9-4D73-A586-1E9554ACC001";
shapes = (
{
closed = 1;
nodes = (
(719,-15,o),
(836,78,o),
(836,204,cs),
(836,283,o),
(789,357,o),
(662,370,c),
(780,394,o),
(827,454,o),
(827,528,cs),
(827,647,o),
(705,729,o),
(441,729,cs),
(163,729,o),
(63,605,o),
(51,506,c),
(276,506,l),
(290,544,o),
(346,564,o),
(442,564,cs),
(551,564,o),
(600,537,o),
(600,496,cs),
(600,458,o),
(569,440,o),
(521,440,cs),
(349,440,l),
(349,288,l),
(533,288,ls),
(579,288,o),
(606,268,o),
(606,234,cs),
(606,188,o),
(557,152,o),
(445,152,cs),
(332,152,o),
(286,174,o),
(267,213,c),
(40,213,l),
(48,111,o),
(141,-15,o),
(445,-15,cs)
);
}
);
width = 881;
},
{
layerId = "5974A488-68BA-4ECA-A629-BBB8F5E8E8D7";
shapes = (
{
closed = 1;
nodes = (
(417,-13,o),
(525,66,o),
(525,221,cs),
(525,289,o),
(485,356,o),
(402,372,c),
(514,398,o),
(572,467,o),
(572,558,cs),
(572,649,o),
(493,727,o),
(355,727,cs),
(198,727,o),
(112,647,o),
(86,526,c),
(281,526,l),
(289,558,o),
(309,575,o),
(333,575,cs),
(360,575,o),
(374,558,o),
(374,524,cs),
(374,479,o),
(346,443,o),
(295,443,cs),
(247,443,l),
(221,292,l),
(280,292,ls),
(316,292,o),
(332,266,o),
(332,237,cs),
(332,187,o),
(310,139,o),
(258,139,cs),
(226,139,o),
(209,162,o),
(208,194,c),
(15,194,l),
(13,91,o),
(95,-13,o),
(256,-13,cs)
);
}
);
width = 568;
},
{
layerId = "406F15BE-EF31-460D-8EE8-85AD72A74E98";
shapes = (
{
closed = 1;
nodes = (
(493,-15,o),
(622,70,o),
(622,212,cs),
(622,284,o),
(583,344,o),
(494,367,c),
(575,379,o),
(657,446,o),
(657,548,cs),
(657,636,o),
(585,729,o),
(395,729,cs),
(231,729,o),
(122,646,o),
(99,514,c),
(303,514,l),
(314,554,o),
(344,571,o),
(385,571,cs),
(424,571,o),
(456,550,o),
(456,508,cs),
(456,461,o),
(417,434,o),
(358,434,cs),
(310,434,l),
(286,293,l),
(338,293,ls),
(400,293,o),
(420,260,o),
(420,227,cs),
(420,186,o),
(392,144,o),
(331,144,cs),
(287,144,o),
(254,162,o),
(242,207,c),
(36,207,l),
(34,77,o),
(146,-15,o),
(310,-15,cs)
);
}
);
width = 684;
},
{
layerId = "974B3D67-9F33-42CE-B7A8-3E18495C5B4F";
shapes = (
{
closed = 1;
nodes = (
(607,-15,o),
(827,38,o),
(827,219,cs),
(827,287,o),
(783,358,o),
(675,369,c),
(793,388,o),
(862,442,o),
(862,541,cs),
(862,653,o),
(736,729,o),
(504,729,cs),
(224,729,o),
(121,606,o),
(92,506,c),
(317,506,l),
(338,547,o),
(396,564,o),
(493,564,cs),
(580,564,o),
(629,544,o),
(629,498,cs),
(629,459,o),
(595,440,o),
(547,440,cs),
(378,440,l),
(352,288,l),
(543,288,ls),
(583,288,o),
(603,273,o),
(603,244,cs),
(603,195,o),
(549,152,o),
(424,152,cs),
(314,152,o),
(267,175,o),
(254,214,c),
(32,214,l),
(31,117,o),
(96,-15,o),
(403,-15,cs)
);
}
);
width = 882;
}
);
unicode = 51;
}
{
category = Number;
color = 6;
glyphname = four;
kernLeft = four;
kernRight = four;
layers = (
{
layerId = m007;
shapes = (
{
closed = 1;
nodes = (
(648,0,l),
(648,714,l),
(566,714,l),
(32,266,l),
(32,203,l),
(592,203,l),
(592,260,l),
(111,260,l),
(596,666,l),
(578,674,l),
(578,0,l)
);
},
{
closed = 1;
nodes = (
(810,203,l),
(810,260,l),
(634,260,l),
(634,203,l)
);
}
);
width = 842;
},
{
layerId = "7DF63F5B-BA78-420A-94D8-89AFC26E7780";
shapes = (
{
closed = 1;
nodes = (
(665,0,l),
(665,714,l),
(554,714,l),
(24,279,l),
(24,194,l),
(581,194,l),
(581,271,l),
(135,271,l),
(589,644,l),
(565,656,l),
(565,0,l)
);
},
{
closed = 1;
nodes = (
(819,194,l),
(819,271,l),
(649,271,l),
(649,194,l)
);
}
);
width = 844;
},
{
layerId = "CF630257-B204-4765-8982-527F59E4E5D4";
shapes = (
{
closed = 1;
nodes = (
(487,0,l),
(487,714,l),
(410,714,l),
(43,263,l),
(43,205,l),
(438,205,l),
(438,258,l),
(105,258,l),
(438,669,l),
(425,673,l),
(425,0,l)
);
},
{
closed = 1;
nodes = (
(609,205,l),
(609,258,l),
(474,258,l),
(474,205,l)
);
}
);
width = 652;
},
{
layerId = "89792DEA-715D-4C6B-9843-C33DBACDCF53";
shapes = (
{
closed = 1;
nodes = (
(380,0,l),
(380,714,l),
(316,714,l),
(33,260,l),
(33,206,l),
(334,206,l),
(334,254,l),
(90,254,l),
(332,642,l),
(322,645,l),
(322,0,l)
);
},
{
closed = 1;
nodes = (
(470,206,l),
(470,254,l),
(368,254,l),
(368,206,l)
);
}
);
width = 503;
},
{
layerId = "F5B2086A-EC1C-45D9-9613-A3504CEE232E";
shapes = (
{
closed = 1;
nodes = (
(396,0,l),
(396,714,l),
(307,714,l),
(30,272,l),
(30,197,l),
(328,197,l),
(328,264,l),
(110,264,l),
(326,610,l),
(312,614,l),
(312,0,l)
);
},
{
closed = 1;
nodes = (
(480,197,l),
(480,264,l),
(380,264,l),
(380,197,l)
);
}
);
width = 510;
},
{
layerId = "FEA946D2-303E-4050-8628-E645DE71E218";
shapes = (
{
closed = 1;
nodes = (
(505,0,l),
(505,714,l),
(398,714,l),
(39,282,l),
(39,193,l),
(427,193,l),
(427,272,l),
(130,272,l),
(430,634,l),
(411,641,l),
(411,0,l)
);
},
{
closed = 1;
nodes = (
(614,193,l),
(614,272,l),
(489,272,l),
(489,193,l)
);
}
);
width = 653;
},
{
layerId = "3A742E95-6392-47DA-98D0-C770A5889573";
shapes = (
{
closed = 1;
nodes = (
(335,0,l),
(461,714,l),
(397,714,l),
(34,260,l),
(24,206,l),
(325,206,l),
(333,254,l),
(96,254,l),
(397,631,l),
(388,635,l),
(277,0,l)
);
},
{
closed = 1;
nodes = (
(461,206,l),
(469,254,l),
(367,254,l),
(359,206,l)
);
}
);
width = 503;
},
{
layerId = "DA512DF4-6FCD-4164-96D6-05DE8967F50A";
shapes = (
{
closed = 1;
nodes = (
(459,0,l),
(584,714,l),
(479,714,l),
(43,282,l),
(28,193,l),
(416,193,l),
(429,272,l),
(139,272,l),
(492,625,l),
(476,633,l),
(365,0,l)
);
},
{
closed = 1;
nodes = (
(603,193,l),
(616,272,l),
(491,272,l),
(478,193,l)
);
}
);
width = 653;
},
{
layerId = "0A603DC7-0F9F-4E29-AC1C-80B527B5555F";
shapes = (
{
closed = 1;
nodes = (
(353,0,l),
(479,714,l),
(391,714,l),
(32,270,l),
(19,197,l),
(320,197,l),
(332,264,l),
(120,264,l),
(388,596,l),
(376,602,l),
(270,0,l)
);
},
{
closed = 1;
nodes = (
(475,197,l),
(486,264,l),
(384,264,l),
(371,197,l)
);
}
);
width = 516;
},
{
layerId = "38E57698-3E0D-47EE-AD12-065B63128021";
shapes = (
{
closed = 1;
nodes = (
(442,0,l),
(567,714,l),
(491,714,l),
(44,263,l),
(34,205,l),
(429,205,l),
(439,258,l),
(110,258,l),
(509,660,l),
(499,666,l),
(380,0,l)
);
},
{
closed = 1;
nodes = (
(600,205,l),
(609,258,l),
(474,258,l),
(464,205,l)
);
}
);
width = 652;
},
{
layerId = "7B4F6316-DEA5-4C61-853A-FCC6E55FB2E9";
shapes = (
{
closed = 1;
nodes = (
(603,0,l),
(728,714,l),
(647,714,l),
(34,266,l),
(22,203,l),
(583,203,l),
(593,260,l),
(120,260,l),
(666,658,l),
(651,667,l),
(533,0,l)
);
},
{
closed = 1;
nodes = (
(801,203,l),
(811,260,l),
(635,260,l),
(625,203,l)
);
}
);
width = 842;
},
{
layerId = "FF0E7F91-EBB7-4227-9826-320229507C52";
shapes = (
{
closed = 1;
nodes = (
(621,0,l),
(747,714,l),
(639,714,l),
(34,277,l),
(18,194,l),
(574,194,l),
(587,271,l),
(158,271,l),
(657,632,l),
(636,645,l),
(523,0,l)
);
},
{
closed = 1;
nodes = (
(810,194,l),
(824,271,l),
(653,271,l),
(640,194,l)
);
}
);
width = 851;
},
{
layerId = "F74FB5BD-F4A6-4696-AECE-814F0CF1BFBE";
shapes = (
{
closed = 1;
nodes = (
(483,0,l),
(483,714,l),
(288,714,l),
(19,312,l),
(19,152,l),
(308,152,l),
(308,304,l),
(174,304,l),
(327,529,l),
(292,540,l),
(292,0,l)
);
},
{
closed = 1;
nodes = (
(558,152,l),
(558,304,l),
(467,304,l),
(467,152,l)
);
}
);
width = 577;
},
{
layerId = "3E78BF7E-2ACA-4E8F-B7F7-8733FDFDD1D6";
shapes = (
{
closed = 1;
nodes = (
(564,0,l),
(564,714,l),
(370,714,l),
(30,326,l),
(30,155,l),
(384,155,l),
(384,318,l),
(203,318,l),
(404,544,l),
(368,558,l),
(368,0,l)
);
},
{
closed = 1;
nodes = (
(656,155,l),
(656,318,l),
(548,318,l),
(548,155,l)
);
}
);
width = 686;
},
{
layerId = "CEA8704A-49A9-4D73-A586-1E9554ACC001";
shapes = (
{
closed = 1;
nodes = (
(742,0,l),
(742,714,l),
(522,714,l),
(21,324,l),
(21,146,l),
(541,146,l),
(541,311,l),
(268,311,l),
(575,549,l),
(525,573,l),
(525,0,l)
);
},
{
closed = 1;
nodes = (
(869,146,l),
(869,311,l),
(726,311,l),
(726,146,l)
);
}
);
width = 890;
},
{
layerId = "5974A488-68BA-4ECA-A629-BBB8F5E8E8D7";
shapes = (
{
closed = 1;
nodes = (
(438,0,l),
(564,714,l),
(369,714,l),
(29,312,l),
(0,152,l),
(289,152,l),
(317,304,l),
(196,304,l),
(369,506,l),
(339,520,l),
(247,0,l)
);
},
{
closed = 1;
nodes = (
(539,152,l),
(566,304,l),
(475,304,l),
(448,152,l)
);
}
);
width = 577;
},
{
layerId = "406F15BE-EF31-460D-8EE8-85AD72A74E98";
shapes = (
{
closed = 1;
nodes = (
(519,0,l),
(645,714,l),
(451,714,l),
(42,326,l),
(11,155,l),
(366,155,l),
(396,318,l),
(230,318,l),
(448,524,l),
(418,540,l),
(323,0,l)
);
},
{
closed = 1;
nodes = (
(637,155,l),
(667,318,l),
(558,318,l),
(530,155,l)
);
}
);
width = 685;
},
{
layerId = "974B3D67-9F33-42CE-B7A8-3E18495C5B4F";
shapes = (
{
closed = 1;
nodes = (
(698,0,l),
(823,714,l),
(603,714,l),
(34,324,l),
(1,146,l),
(521,146,l),
(552,311,l),
(300,311,l),
(619,530,l),
(578,556,l),
(481,0,l)
);
},
{
closed = 1;
nodes = (
(849,146,l),
(878,311,l),
(737,311,l),
(706,146,l)
);
}
);
width = 890;
}
);
unicode = 52;
}
{
category = Number;
color = 6;
glyphname = five;
kernLeft = five;
kernRight = five;
layers = (
{
layerId = m007;
shapes = (
{
closed = 1;
nodes = (
(622,-14,o),
(730,86,o),
(730,227,cs),
(730,369,o),
(623,467,o),
(398,467,cs),
(280,467,o),
(185,431,o),
(134,365,c),
(138,352,l),
(185,657,l),
(687,657,l),
(687,714,l),
(123,714,l),
(66,321,l),
(141,321,l),
(190,378,o),
(284,412,o),
(391,412,cs),
(577,412,o),
(657,335,o),
(657,227,cs),
(657,116,o),
(569,43,o),
(391,43,cs),
(202,43,o),
(140,128,o),
(130,194,c),
(57,194,l),
(63,82,o),
(173,-14,o),
(391,-14,cs)
);
}
);
width = 787;
},
{
layerId = "7DF63F5B-BA78-420A-94D8-89AFC26E7780";
shapes = (
{
closed = 1;
nodes = (
(648,-14,o),
(755,89,o),
(755,234,cs),
(755,378,o),
(636,472,o),
(425,472,cs),
(314,472,o),
(212,450,o),
(158,369,c),
(165,354,l),
(208,634,l),
(713,634,l),
(713,714,l),
(123,714,l),
(64,314,l),
(169,314,l),
(208,366,o),
(295,396,o),
(406,396,cs),
(576,396,o),
(651,334,o),
(651,234,cs),
(651,134,o),
(571,66,o),
(402,66,cs),
(226,66,o),
(165,139,o),
(155,202,c),
(52,202,l),
(57,82,o),
(166,-14,o),
(401,-14,cs)
);
}
);
width = 807;
},
{
layerId = "CF630257-B204-4765-8982-527F59E4E5D4";
shapes = (
{
closed = 1;
nodes = (
(444,-12,o),
(537,88,o),
(537,225,cs),
(537,361,o),
(443,458,o),
(308,458,cs),
(247,458,o),
(173,434,o),
(142,374,c),
(146,366,l),
(189,661,l),
(505,661,l),
(505,714,l),
(135,714,l),
(79,328,l),
(143,328,l),
(171,376,o),
(230,405,o),
(298,405,cs),
(405,405,o),
(473,332,o),
(473,223,cs),
(473,105,o),
(396,41,o),
(293,41,cs),
(170,41,o),
(133,123,o),
(128,172,c),
(63,172,l),
(67,72,o),
(152,-12,o),
(293,-12,cs)
);
}
);
width = 600;
},
{
layerId = "89792DEA-715D-4C6B-9843-C33DBACDCF53";
shapes = (
{
closed = 1;
nodes = (
(378,-12,o),
(449,78,o),
(449,223,cs),
(449,365,o),
(377,458,o),
(265,458,cs),
(208,458,o),
(154,437,o),
(122,374,c),
(127,368,l),
(164,666,l),
(417,666,l),
(417,714,l),
(112,714,l),
(65,337,l),
(130,337,l),
(153,378,o),
(204,408,o),
(254,408,cs),
(336,408,o),
(387,340,o),
(387,223,cs),
(387,105,o),
(335,38,o),
(251,38,cs),
(155,38,o),
(120,110,o),
(114,171,c),
(53,171,l),
(58,73,o),
(126,-12,o),
(250,-12,cs)
);
}
);
width = 502;
},
{
layerId = "F5B2086A-EC1C-45D9-9613-A3504CEE232E";
shapes = (
{
closed = 1;
nodes = (
(390,-13,o),
(467,77,o),
(467,227,cs),
(467,374,o),
(395,464,o),
(278,464,cs),
(221,464,o),
(173,440,o),
(139,377,c),
(147,369,l),
(180,647,l),
(434,647,l),
(434,714,l),
(107,714,l),
(58,322,l),
(146,322,l),
(165,365,o),
(214,397,o),
(260,397,cs),
(340,397,o),
(379,335,o),
(379,227,cs),
(379,119,o),
(338,56,o),
(258,56,cs),
(181,56,o),
(142,113,o),
(134,181,c),
(48,181,l),
(53,69,o),
(132,-13,o),
(254,-13,cs)
);
}
);
width = 515;
},
{
layerId = "FEA946D2-303E-4050-8628-E645DE71E218";
shapes = (
{
closed = 1;
nodes = (
(465,-15,o),
(558,90,o),
(558,233,cs),
(558,375,o),
(459,471,o),
(327,471,cs),
(264,471,o),
(199,454,o),
(159,386,c),
(168,376,l),
(207,635,l),
(521,635,l),
(521,714,l),
(128,714,l),
(69,320,l),
(160,320,l),
(185,367,o),
(240,396,o),
(303,396,cs),
(402,396,o),
(461,329,o),
(461,233,cs),
(461,130,o),
(400,64,o),
(303,64,cs),
(201,64,o),
(164,127,o),
(155,179,c),
(59,179,l),
(71,62,o),
(157,-15,o),
(303,-15,cs)
);
}
);
width = 616;
},
{
layerId = "3A742E95-6392-47DA-98D0-C770A5889573";
shapes = (
{
closed = 1;
nodes = (
(373,-12,o),
(449,121,o),
(449,269,cs),
(449,383,o),
(392,458,o),
(298,458,cs),
(241,458,o),
(186,440,o),
(141,376,c),
(146,371,l),
(229,666,l),
(482,666,l),
(491,714,l),
(186,714,l),
(79,336,l),
(145,336,l),
(174,378,o),
(231,408,o),
(281,408,cs),
(348,408,o),
(387,354,o),
(387,274,cs),
(387,173,o),
(349,38,o),
(217,38,cs),
(119,38,o),
(96,110,o),
(98,171,c),
(38,171,l),
(33,75,o),
(89,-12,o),
(216,-12,cs)
);
}
);
width = 507;
},
{
layerId = "DA512DF4-6FCD-4164-96D6-05DE8967F50A";
shapes = (
{
closed = 1;
nodes = (
(452,-15,o),
(551,115,o),
(551,257,cs),
(551,384,o),
(470,472,o),
(341,472,cs),
(281,472,o),
(221,451,o),
(184,396,c),
(188,385,l),
(267,635,l),
(582,635,l),
(596,714,l),
(200,714,l),
(74,320,l),
(165,320,l),
(199,367,o),
(258,396,o),
(321,396,cs),
(414,396,o),
(454,339,o),
(454,249,cs),
(454,153,o),
(388,64,o),
(276,64,cs),
(198,64,o),
(148,116,o),
(136,179,c),
(45,179,l),
(56,65,o),
(147,-15,o),
(279,-15,cs)
);
}
);
width = 615;
},
{
layerId = "0A603DC7-0F9F-4E29-AC1C-80B527B5555F";
shapes = (
{
closed = 1;
nodes = (
(391,-13,o),
(465,126,o),
(465,270,cs),
(465,387,o),
(405,464,o),
(312,464,cs),
(253,464,o),
(199,445,o),
(158,378,c),
(164,371,l),
(242,647,l),
(492,647,l),
(505,714,l),
(182,714,l),
(70,322,l),
(160,322,l),
(184,366,o),
(235,397,o),
(284,397,cs),
(344,397,o),
(378,349,o),
(378,276,cs),
(378,186,o),
(344,56,o),
(225,56,cs),
(139,56,o),
(120,123,o),
(120,181,c),
(35,181,l),
(29,74,o),
(91,-13,o),
(221,-13,cs)
);
}
);
width = 517;
},
{
layerId = "38E57698-3E0D-47EE-AD12-065B63128021";
shapes = (
{
closed = 1;
nodes = (
(441,-12,o),
(528,119,o),
(528,259,cs),
(528,379,o),
(448,459,o),
(325,459,cs),
(274,459,o),
(199,445,o),
(148,374,c),
(153,369,l),
(248,661,l),
(565,661,l),
(574,714,l),
(204,714,l),
(81,328,l),
(147,328,l),
(180,376,o),
(245,407,o),
(313,407,cs),
(408,407,o),
(465,348,o),
(465,254,cs),
(465,149,o),
(397,41,o),
(267,41,cs),
(173,41,o),
(124,100,o),
(112,172,c),
(48,172,l),
(58,71,o),
(136,-12,o),
(264,-12,cs)
);
}
);
width = 597;
},
{
layerId = "7B4F6316-DEA5-4C61-853A-FCC6E55FB2E9";
shapes = (
{
closed = 1;
nodes = (
(566,-14,o),
(728,74,o),
(728,246,cs),
(728,378,o),
(633,467,o),
(424,467,cs),
(316,467,o),
(213,435,o),
(157,368,c),
(159,356,l),
(249,657,l),
(752,657,l),
(762,714,l),
(198,714,l),
(78,320,l),
(153,320,l),
(212,376,o),
(312,412,o),
(411,412,cs),
(584,412,o),
(655,349,o),
(655,241,cs),
(655,111,o),
(527,43,o),
(368,43,cs),
(174,43,o),
(132,129,o),
(116,194,c),
(46,194,l),
(57,64,o),
(171,-14,o),
(369,-14,cs)
);
}
);
width = 792;
},
{
layerId = "FF0E7F91-EBB7-4227-9826-320229507C52";
shapes = (
{
closed = 1;
nodes = (
(579,-14,o),
(749,73,o),
(749,249,cs),
(749,383,o),
(647,472,o),
(443,472,cs),
(335,472,o),
(234,437,o),
(179,374,c),
(183,357,l),
(267,634,l),
(767,634,l),
(781,714,l),
(195,714,l),
(71,314,l),
(176,314,l),
(229,365,o),
(321,396,o),
(417,396,cs),
(573,396,o),
(645,343,o),
(645,244,cs),
(645,126,o),
(527,66,o),
(377,66,cs),
(203,66,o),
(158,137,o),
(145,202,c),
(45,202,l),
(53,73,o),
(158,-14,o),
(376,-14,cs)
);
}
);
width = 808;
},
{
layerId = "F74FB5BD-F4A6-4696-AECE-814F0CF1BFBE";
shapes = (
{
closed = 1;
nodes = (
(435,-13,o),
(533,73,o),
(533,247,cs),
(533,408,o),
(445,474,o),
(351,474,cs),
(279,474,o),
(231,445,o),
(213,395,c),
(224,364,l),
(246,561,l),
(486,561,l),
(486,714,l),
(86,714,l),
(34,308,l),
(226,308,l),
(236,338,o),
(255,354,o),
(281,354,cs),
(315,354,o),
(336,315,o),
(336,247,cs),
(336,177,o),
(314,139,o),
(278,139,cs),
(249,139,o),
(227,162,o),
(224,191,c),
(28,191,l),
(35,63,o),
(127,-13,o),
(278,-13,cs)
);
}
);
width = 561;
},
{
layerId = "3E78BF7E-2ACA-4E8F-B7F7-8733FDFDD1D6";
shapes = (
{
closed = 1;
nodes = (
(510,-15,o),
(621,80,o),
(621,248,cs),
(621,402,o),
(510,476,o),
(400,476,cs),
(319,476,o),
(265,452,o),
(231,404,c),
(244,375,l),
(270,553,l),
(569,553,l),
(569,714,l),
(108,714,l),
(48,305,l),
(245,305,l),
(260,331,o),
(295,349,o),
(328,349,cs),
(378,349,o),
(417,319,o),
(417,248,cs),
(417,176,o),
(374,146,o),
(331,146,cs),
(296,146,o),
(261,158,o),
(249,198,c),
(45,198,l),
(59,63,o),
(178,-15,o),
(332,-15,cs)
);
}
);
width = 666;
},
{
layerId = "CEA8704A-49A9-4D73-A586-1E9554ACC001";
shapes = (
{
closed = 1;
nodes = (
(713,-15,o),
(836,91,o),
(836,244,cs),
(836,401,o),
(685,477,o),
(497,477,cs),
(380,477,o),
(292,447,o),
(250,395,c),
(263,355,l),
(291,549,l),
(782,549,l),
(782,714,l),
(104,714,l),
(42,294,l),
(265,294,l),
(299,327,o),
(357,344,o),
(438,344,cs),
(543,344,o),
(606,312,o),
(606,247,cs),
(606,182,o),
(539,152,o),
(437,152,cs),
(339,152,o),
(289,165,o),
(267,205,c),
(40,205,l),
(55,95,o),
(156,-15,o),
(442,-15,cs)
);
}
);
width = 876;
},
{
layerId = "5974A488-68BA-4ECA-A629-BBB8F5E8E8D7";
shapes = (
{
closed = 1;
nodes = (
(467,-13,o),
(534,148,o),
(534,277,cs),
(534,407,o),
(462,474,o),
(372,474,cs),
(305,474,o),
(264,454,o),
(230,394,c),
(238,372,l),
(297,561,l),
(537,561,l),
(565,714,l),
(164,714,l),
(40,305,l),
(234,305,l),
(249,337,o),
(271,354,o),
(295,354,cs),
(326,354,o),
(338,325,o),
(338,286,cs),
(338,240,o),
(321,139,o),
(260,139,cs),
(226,139,o),
(209,162,o),
(209,191,c),
(16,191,l),
(10,54,o),
(99,-13,o),
(243,-13,cs)
);
}
);
width = 564;
},
{
layerId = "406F15BE-EF31-460D-8EE8-85AD72A74E98";
shapes = (
{
closed = 1;
nodes = (
(504,-15,o),
(623,103,o),
(623,266,cs),
(623,414,o),
(518,476,o),
(417,476,cs),
(357,476,o),
(294,453,o),
(259,402,c),
(266,378,l),
(325,553,l),
(621,553,l),
(649,714,l),
(189,714,l),
(56,305,l),
(254,305,l),
(270,332,o),
(304,349,o),
(338,349,cs),
(387,349,o),
(421,317,o),
(421,263,cs),
(421,195,o),
(380,146,o),
(321,146,cs),
(282,146,o),
(256,163,o),
(243,198,c),
(34,198,l),
(38,61,o),
(153,-15,o),
(309,-15,cs)
);
}
);
width = 670;
},
{
layerId = "974B3D67-9F33-42CE-B7A8-3E18495C5B4F";
shapes = (
{
closed = 1;
nodes = (
(633,-15,o),
(833,69,o),
(833,259,cs),
(833,402,o),
(701,477,o),
(518,477,cs),
(412,477,o),
(321,453,o),
(268,398,c),
(274,362,l),
(341,549,l),
(832,549,l),
(861,714,l),
(184,714,l),
(47,294,l),
(272,294,l),
(308,328,o),
(364,344,o),
(443,344,cs),
(528,344,o),
(605,319,o),
(605,256,cs),
(605,192,o),
(528,152,o),
(414,152,cs),
(319,152,o),
(268,166,o),
(253,206,c),
(31,206,l),
(36,108,o),
(105,-15,o),
(404,-15,cs)
);
}
);
width = 876;
}
);
unicode = 53;
}
{
category = Number;
color = 6;
glyphname = six;
kernLeft = six;
kernRight = six;
layers = (
{
layerId = m007;
shapes = (
{
closed = 1;
nodes = (
(652,-14,o),
(762,80,o),
(762,226,cs),
(762,373,o),
(649,467,o),
(427,467,cs),
(286,467,o),
(177,427,o),
(129,316,c),
(131,539,o),
(203,670,o),
(426,670,cs),
(595,670,o),
(652,626,o),
(671,556,c),
(745,556,l),
(734,644,o),
(659,728,o),
(429,728,cs),
(191,728,o),
(57,597,o),
(57,350,cs),
(57,77,o),
(173,-14,o),
(415,-14,cs)
);
},
{
closed = 1;
nodes = (
(219,44,o),
(144,128,o),
(144,226,cs),
(144,325,o),
(233,409,o),
(417,409,cs),
(614,409,o),
(689,325,o),
(689,226,cs),
(689,128,o),
(614,44,o),
(416,44,cs)
);
}
);
width = 819;
},
{
layerId = "7DF63F5B-BA78-420A-94D8-89AFC26E7780";
shapes = (
{
closed = 1;
nodes = (
(668,-14,o),
(779,84,o),
(779,230,cs),
(779,375,o),
(667,471,o),
(440,471,cs),
(309,471,o),
(203,432,o),
(155,346,c),
(159,546,o),
(233,648,o),
(431,648,cs),
(587,648,o),
(643,609,o),
(659,548,c),
(763,548,l),
(751,648,o),
(669,728,o),
(435,728,cs),
(192,728,o),
(52,599,o),
(52,351,cs),
(52,87,o),
(167,-14,o),
(420,-14,cs)
);
},
{
closed = 1;
nodes = (
(246,66,o),
(169,141,o),
(169,230,cs),
(169,318,o),
(246,393,o),
(423,393,cs),
(601,393,o),
(675,318,o),
(675,230,cs),
(675,141,o),
(599,66,o),
(422,66,cs)
);
}
);
width = 831;
},
{
layerId = "CF630257-B204-4765-8982-527F59E4E5D4";
shapes = (
{
closed = 1;
nodes = (
(462,-12,o),
(565,87,o),
(565,231,cs),
(565,379,o),
(454,463,o),
(327,463,cs),
(257,463,o),
(165,428,o),
(126,319,c),
(116,543,o),
(193,673,o),
(328,673,cs),
(416,673,o),
(462,633,o),
(476,577,c),
(538,577,l),
(536,643,o),
(468,726,o),
(330,726,cs),
(179,726,o),
(63,608,o),
(63,354,cs),
(63,86,o),
(180,-12,o),
(320,-12,cs)
);
},
{
closed = 1;
nodes = (
(214,41,o),
(141,127,o),
(141,225,cs),
(141,325,o),
(214,410,o),
(321,410,cs),
(431,410,o),
(502,325,o),
(502,225,cs),
(502,127,o),
(431,41,o),
(321,41,cs)
);
}
);
width = 628;
},
{
layerId = "89792DEA-715D-4C6B-9843-C33DBACDCF53";
shapes = (
{
closed = 1;
nodes = (
(385,-12,o),
(470,77,o),
(470,226,cs),
(470,377,o),
(384,462,o),
(278,462,cs),
(211,462,o),
(141,430,o),
(110,329,c),
(116,554,o),
(174,676,o),
(281,676,cs),
(346,676,o),
(386,633,o),
(393,575,c),
(453,575,l),
(450,646,o),
(396,726,o),
(285,726,cs),
(148,726,o),
(53,597,o),
(53,340,cs),
(53,109,o),
(131,-12,o),
(269,-12,cs)
);
},
{
closed = 1;
nodes = (
(189,38,o),
(129,106,o),
(129,225,cs),
(129,345,o),
(189,412,o),
(269,412,cs),
(351,412,o),
(408,345,o),
(408,225,cs),
(408,106,o),
(351,38,o),
(269,38,cs)
);
}
);
width = 523;
},
{
layerId = "F5B2086A-EC1C-45D9-9613-A3504CEE232E";
shapes = (
{
closed = 1;
nodes = (
(394,-13,o),
(481,78,o),
(481,228,cs),
(481,379,o),
(397,465,o),
(287,465,cs),
(222,465,o),
(156,431,o),
(126,346,c),
(134,541,o),
(191,658,o),
(283,658,cs),
(337,658,o),
(372,622,o),
(381,568,c),
(468,568,l),
(463,648,o),
(399,727,o),
(287,727,cs),
(149,727,o),
(48,598,o),
(48,340,cs),
(48,109,o),
(126,-13,o),
(271,-13,cs)
);
},
{
closed = 1;
nodes = (
(200,56,o),
(148,117,o),
(148,227,cs),
(148,338,o),
(200,399,o),
(271,399,cs),
(342,399,o),
(394,338,o),
(394,227,cs),
(394,117,o),
(342,56,o),
(271,56,cs)
);
}
);
width = 529;
},
{
layerId = "FEA946D2-303E-4050-8628-E645DE71E218";
shapes = (
{
closed = 1;
nodes = (
(472,-15,o),
(578,81,o),
(578,231,cs),
(578,380,o),
(468,467,o),
(342,467,cs),
(276,467,o),
(192,435,o),
(154,348,c),
(155,554,o),
(220,653,o),
(331,653,cs),
(390,653,o),
(439,628,o),
(456,570,c),
(550,570,l),
(543,657,o),
(469,729,o),
(335,729,cs),
(186,729,o),
(58,612,o),
(58,355,cs),
(58,84,o),
(176,-15,o),
(326,-15,cs)
);
},
{
closed = 1;
nodes = (
(236,63,o),
(171,128,o),
(171,226,cs),
(171,325,o),
(236,392,o),
(326,392,cs),
(414,392,o),
(481,325,o),
(481,226,cs),
(481,128,o),
(414,63,o),
(326,63,cs)
);
}
);
width = 636;
},
{
layerId = "3A742E95-6392-47DA-98D0-C770A5889573";
shapes = (
{
closed = 1;
nodes = (
(386,-12,o),
(474,132,o),
(474,274,cs),
(474,398,o),
(407,462,o),
(315,462,cs),
(247,462,o),
(173,432,o),
(127,331,c),
(172,552,o),
(243,676,o),
(347,676,cs),
(415,676,o),
(447,633,o),
(446,575,c),
(505,575,l),
(514,650,o),
(457,726,o),
(353,726,cs),
(129,726,o),
(59,385,o),
(59,228,cs),
(59,65,o),
(116,-12,o),
(234,-12,cs)
);
},
{
closed = 1;
nodes = (
(166,38,o),
(122,84,o),
(122,180,cs),
(122,283,o),
(189,412,o),
(300,412,cs),
(370,412,o),
(412,367,o),
(412,273,cs),
(412,183,o),
(362,38,o),
(235,38,cs)
);
}
);
width = 529;
},
{
layerId = "DA512DF4-6FCD-4164-96D6-05DE8967F50A";
shapes = (
{
closed = 1;
nodes = (
(470,-15,o),
(584,98,o),
(584,246,cs),
(584,395,o),
(479,467,o),
(366,467,cs),
(280,467,o),
(212,429,o),
(170,365,c),
(199,549,o),
(296,653,o),
(398,653,cs),
(453,653,o),
(496,627,o),
(510,570,c),
(604,570,l),
(597,653,o),
(527,729,o),
(406,729,cs),
(176,729,o),
(71,463,o),
(71,285,cs),
(71,74,o),
(182,-15,o),
(319,-15,cs)
);
},
{
closed = 1;
nodes = (
(233,63,o),
(173,123,o),
(173,217,cs),
(173,310,o),
(233,392,o),
(346,392,cs),
(424,392,o),
(486,341,o),
(486,237,cs),
(486,137,o),
(423,63,o),
(321,63,cs)
);
}
);
width = 648;
},
{
layerId = "0A603DC7-0F9F-4E29-AC1C-80B527B5555F";
shapes = (
{
closed = 1;
nodes = (
(397,-13,o),
(486,129,o),
(486,275,cs),
(486,395,o),
(421,465,o),
(325,465,cs),
(262,465,o),
(194,434,o),
(149,345,c),
(190,549,o),
(257,658,o),
(349,658,cs),
(407,658,o),
(433,620,o),
(436,569,c),
(519,569,l),
(526,651,o),
(467,726,o),
(358,726,cs),
(126,726,o),
(54,391,o),
(54,232,cs),
(54,68,o),
(115,-13,o),
(239,-13,cs)
);
},
{
closed = 1;
nodes = (
(180,56,o),
(141,98,o),
(141,182,cs),
(141,275,o),
(199,399,o),
(301,399,cs),
(363,399,o),
(400,357,o),
(400,274,cs),
(400,191,o),
(355,56,o),
(241,56,cs)
);
}
);
width = 536;
},
{
layerId = "38E57698-3E0D-47EE-AD12-065B63128021";
shapes = (
{
closed = 1;
nodes = (
(455,-12,o),
(564,112,o),
(564,257,cs),
(564,399,o),
(474,466,o),
(356,466,cs),
(287,466,o),
(205,442,o),
(142,348,c),
(176,552,o),
(261,673,o),
(396,673,cs),
(465,673,o),
(510,635,o),
(524,577,c),
(587,577,l),
(578,655,o),
(518,726,o),
(400,726,cs),
(165,726,o),
(73,447,o),
(73,260,cs),
(73,63,o),
(175,-12,o),
(294,-12,cs)
);
},
{
closed = 1;
nodes = (
(194,41,o),
(138,121,o),
(138,206,cs),
(138,323,o),
(236,413,o),
(339,413,cs),
(448,413,o),
(501,344,o),
(501,248,cs),
(501,131,o),
(409,41,o),
(295,41,cs)
);
}
);
width = 631;
},
{
layerId = "7B4F6316-DEA5-4C61-853A-FCC6E55FB2E9";
shapes = (
{
closed = 1;
nodes = (
(603,-14,o),
(767,65,o),
(767,248,cs),
(767,375,o),
(647,467,o),
(450,467,cs),
(322,467,o),
(204,432,o),
(146,335,c),
(171,519,o),
(264,670,o),
(481,670,cs),
(639,670,o),
(698,627,o),
(712,556,c),
(783,556,l),
(777,644,o),
(706,728,o),
(490,728,cs),
(185,728,o),
(69,490,o),
(69,272,cs),
(69,61,o),
(188,-14,o),
(407,-14,cs)
);
},
{
closed = 1;
nodes = (
(219,44,o),
(142,120,o),
(142,213,cs),
(142,342,o),
(278,409,o),
(432,409,cs),
(618,409,o),
(694,335,o),
(694,240,cs),
(694,110,o),
(570,44,o),
(404,44,cs)
);
}
);
width = 830;
},
{
layerId = "FF0E7F91-EBB7-4227-9826-320229507C52";
shapes = (
{
closed = 1;
nodes = (
(610,-14,o),
(781,64,o),
(781,248,cs),
(781,375,o),
(662,471,o),
(464,471,cs),
(342,471,o),
(229,437,o),
(168,344,c),
(193,518,o),
(291,651,o),
(486,651,cs),
(625,651,o),
(681,614,o),
(696,548,c),
(797,548,l),
(791,642,o),
(717,728,o),
(496,728,cs),
(185,728,o),
(64,492,o),
(64,275,cs),
(64,66,o),
(182,-14,o),
(408,-14,cs)
);
},
{
closed = 1;
nodes = (
(237,66,o),
(165,131,o),
(165,215,cs),
(165,328,o),
(288,393,o),
(436,393,cs),
(607,393,o),
(677,326,o),
(677,240,cs),
(677,126,o),
(565,66,o),
(407,66,cs)
);
}
);
width = 839;
},
{
layerId = "F74FB5BD-F4A6-4696-AECE-814F0CF1BFBE";
shapes = (
{
closed = 1;
nodes = (
(441,-13,o),
(540,79,o),
(540,238,cs),
(540,363,o),
(474,461,o),
(353,461,cs),
(298,461,o),
(251,441,o),
(224,398,c),
(223,540,o),
(263,578,o),
(299,578,cs),
(318,578,o),
(335,567,o),
(340,544,c),
(533,544,l),
(522,654,o),
(445,727,o),
(303,727,cs),
(137,727,o),
(28,597,o),
(28,335,cs),
(28,107,o),
(115,-13,o),
(293,-13,cs)
);
},
{
closed = 1;
nodes = (
(254,139,o),
(235,173,o),
(235,236,cs),
(235,296,o),
(254,332,o),
(291,332,cs),
(326,332,o),
(346,296,o),
(346,236,cs),
(346,173,o),
(326,139,o),
(291,139,cs)
);
}
);
width = 569;
},
{
layerId = "3E78BF7E-2ACA-4E8F-B7F7-8733FDFDD1D6";
shapes = (
{
closed = 1;
nodes = (
(527,-15,o),
(630,84,o),
(630,240,cs),
(630,387,o),
(518,470,o),
(400,470,cs),
(342,470,o),
(278,444,o),
(245,391,c),
(249,551,o),
(308,584,o),
(352,584,cs),
(389,584,o),
(407,569,o),
(415,548,c),
(611,548,l),
(605,650,o),
(513,729,o),
(356,729,cs),
(170,729,o),
(45,606,o),
(45,353,cs),
(45,104,o),
(159,-15,o),
(344,-15,cs)
);
},
{
closed = 1;
nodes = (
(296,144,o),
(257,176,o),
(257,234,cs),
(257,290,o),
(296,322,o),
(344,322,cs),
(392,322,o),
(430,290,o),
(430,234,cs),
(430,176,o),
(392,144,o),
(344,144,cs)
);
}
);
width = 675;
},
{
layerId = "CEA8704A-49A9-4D73-A586-1E9554ACC001";
shapes = (
{
closed = 1;
nodes = (
(737,-15,o),
(845,94,o),
(845,239,cs),
(845,374,o),
(739,470,o),
(530,470,cs),
(416,470,o),
(309,440,o),
(262,385,c),
(266,528,o),
(342,571,o),
(459,571,cs),
(529,571,o),
(584,559,o),
(596,529,c),
(824,529,l),
(810,643,o),
(707,729,o),
(456,729,cs),
(180,729,o),
(40,584,o),
(40,354,cs),
(40,109,o),
(151,-15,o),
(445,-15,cs)
);
},
{
closed = 1;
nodes = (
(324,152,o),
(274,181,o),
(274,233,cs),
(274,285,o),
(323,313,o),
(445,313,cs),
(566,313,o),
(615,285,o),
(615,233,cs),
(615,181,o),
(566,152,o),
(445,152,cs)
);
}
);
width = 885;
},
{
layerId = "5974A488-68BA-4ECA-A629-BBB8F5E8E8D7";
shapes = (
{
closed = 1;
nodes = (
(448,-13,o),
(544,116,o),
(544,278,cs),
(544,381,o),
(489,461,o),
(376,461,cs),
(331,461,o),
(288,445,o),
(251,403,c),
(274,534,o),
(325,578,o),
(361,578,cs),
(379,578,o),
(394,565,o),
(397,544,c),
(586,544,l),
(584,655,o),
(515,727,o),
(383,727,cs),
(117,727,o),
(36,416,o),
(36,251,cs),
(36,82,o),
(116,-13,o),
(267,-13,cs)
);
},
{
closed = 1;
nodes = (
(244,139,o),
(230,158,o),
(230,193,cs),
(230,242,o),
(246,332,o),
(309,332,cs),
(338,332,o),
(351,312,o),
(351,276,cs),
(351,223,o),
(331,139,o),
(273,139,cs)
);
}
);
width = 575;
},
{
layerId = "406F15BE-EF31-460D-8EE8-85AD72A74E98";
shapes = (
{
closed = 1;
nodes = (
(521,-15,o),
(648,82,o),
(648,254,cs),
(648,394,o),
(539,470,o),
(432,470,cs),
(379,470,o),
(316,455,o),
(273,396,c),
(304,540,o),
(367,584,o),
(416,584,cs),
(446,584,o),
(469,573,o),
(478,548,c),
(673,548,l),
(669,635,o),
(591,729,o),
(429,729,cs),
(146,729,o),
(61,476,o),
(61,295,cs),
(61,92,o),
(162,-15,o),
(345,-15,cs)
);
},
{
closed = 1;
nodes = (
(305,144,o),
(267,175,o),
(267,224,cs),
(267,283,o),
(307,322,o),
(365,322,cs),
(412,322,o),
(444,290,o),
(444,245,cs),
(444,184,o),
(408,144,o),
(346,144,cs)
);
}
);
width = 699;
},
{
layerId = "974B3D67-9F33-42CE-B7A8-3E18495C5B4F";
shapes = (
{
closed = 1;
nodes = (
(650,-15,o),
(849,60,o),
(849,248,cs),
(849,376,o),
(732,470,o),
(533,470,cs),
(429,470,o),
(341,445,o),
(272,380,c),
(290,511,o),
(400,571,o),
(504,571,cs),
(574,571,o),
(622,560,o),
(641,529,c),
(864,529,l),
(855,632,o),
(763,729,o),
(524,729,cs),
(186,729,o),
(52,499,o),
(52,286,cs),
(52,88,o),
(166,-15,o),
(424,-15,cs)
);
},
{
closed = 1;
nodes = (
(321,152,o),
(272,171,o),
(272,225,cs),
(272,272,o),
(333,313,o),
(460,313,cs),
(571,313,o),
(617,294,o),
(617,241,cs),
(617,194,o),
(557,152,o),
(431,152,cs)
);
}
);
width = 893;
}
);
unicode = 54;
}
{
color = 6;
glyphname = seven;
kernLeft = seven;
kernRight = seven;
layers = (
{
layerId = m007;
shapes = (
{
closed = 1;
nodes = (
(309,0,l),
(718,640,l),
(718,714,l),
(24,714,l),
(24,657,l),
(694,657,l),
(669,683,l),
(228,0,l)
);
}
);
width = 743;
},
{
layerId = "7DF63F5B-BA78-420A-94D8-89AFC26E7780";
shapes = (
{
closed = 1;
nodes = (
(333,0,l),
(733,618,l),
(733,714,l),
(18,714,l),
(18,634,l),
(709,634,l),
(665,685,l),
(213,0,l)
);
}
);
width = 752;
},
{
layerId = "CF630257-B204-4765-8982-527F59E4E5D4";
shapes = (
{
closed = 1;
nodes = (
(222,0,l),
(528,650,l),
(528,714,l),
(33,714,l),
(33,661,l),
(504,661,l),
(481,683,l),
(156,0,l)
);
}
);
width = 561;
},
{
layerId = "89792DEA-715D-4C6B-9843-C33DBACDCF53";
shapes = (
{
closed = 1;
nodes = (
(169,0,l),
(398,657,l),
(398,714,l),
(22,714,l),
(22,666,l),
(372,666,l),
(349,685,l),
(108,0,l)
);
}
);
width = 420;
},
{
layerId = "F5B2086A-EC1C-45D9-9613-A3504CEE232E";
shapes = (
{
closed = 1;
nodes = (
(191,0,l),
(408,636,l),
(408,714,l),
(18,714,l),
(18,647,l),
(383,647,l),
(340,684,l),
(102,0,l)
);
}
);
width = 426;
},
{
layerId = "FEA946D2-303E-4050-8628-E645DE71E218";
shapes = (
{
closed = 1;
nodes = (
(250,0,l),
(544,621,l),
(544,714,l),
(30,714,l),
(30,634,l),
(518,634,l),
(473,686,l),
(146,0,l)
);
}
);
width = 574;
},
{
layerId = "3A742E95-6392-47DA-98D0-C770A5889573";
shapes = (
{
closed = 1;
nodes = (
(125,0,l),
(469,657,l),
(479,714,l),
(103,714,l),
(94,666,l),
(444,666,l),
(421,685,l),
(61,0,l)
);
}
);
width = 420;
},
{
layerId = "DA512DF4-6FCD-4164-96D6-05DE8967F50A";
shapes = (
{
closed = 1;
nodes = (
(235,0,l),
(606,621,l),
(622,714,l),
(111,714,l),
(97,634,l),
(584,634,l),
(543,683,l),
(125,0,l)
);
}
);
width = 572;
},
{
layerId = "0A603DC7-0F9F-4E29-AC1C-80B527B5555F";
shapes = (
{
closed = 1;
nodes = (
(145,0,l),
(475,637,l),
(489,714,l),
(99,714,l),
(87,647,l),
(450,647,l),
(411,687,l),
(50,0,l)
);
}
);
width = 426;
},
{
layerId = "38E57698-3E0D-47EE-AD12-065B63128021";
shapes = (
{
closed = 1;
nodes = (
(179,0,l),
(598,650,l),
(609,714,l),
(113,714,l),
(104,661,l),
(573,661,l),
(553,683,l),
(110,0,l)
);
}
);
width = 561;
},
{
layerId = "7B4F6316-DEA5-4C61-853A-FCC6E55FB2E9";
shapes = (
{
closed = 1;
nodes = (
(268,0,l),
(785,640,l),
(799,714,l),
(105,714,l),
(95,657,l),
(764,657,l),
(740,683,l),
(186,0,l)
);
}
);
width = 743;
},
{
layerId = "FF0E7F91-EBB7-4227-9826-320229507C52";
shapes = (
{
closed = 1;
nodes = (
(289,0,l),
(795,619,l),
(811,714,l),
(101,714,l),
(87,634,l),
(773,634,l),
(732,684,l),
(168,0,l)
);
}
);
width = 751;
},
{
layerId = "F74FB5BD-F4A6-4696-AECE-814F0CF1BFBE";
shapes = (
{
closed = 1;
nodes = (
(274,0,l),
(461,549,l),
(461,714,l),
(13,714,l),
(13,561,l),
(435,561,l),
(317,694,l),
(66,0,l)
);
}
);
width = 474;
},
{
layerId = "3E78BF7E-2ACA-4E8F-B7F7-8733FDFDD1D6";
shapes = (
{
closed = 1;
nodes = (
(311,0,l),
(574,542,l),
(574,714,l),
(22,714,l),
(22,551,l),
(550,551,l),
(438,694,l),
(90,0,l)
);
}
);
width = 596;
},
{
layerId = "CEA8704A-49A9-4D73-A586-1E9554ACC001";
shapes = (
{
closed = 1;
nodes = (
(424,0,l),
(799,534,l),
(799,714,l),
(20,714,l),
(20,547,l),
(774,547,l),
(658,687,l),
(163,0,l)
);
}
);
width = 819;
},
{
layerId = "5974A488-68BA-4ECA-A629-BBB8F5E8E8D7";
shapes = (
{
closed = 1;
nodes = (
(239,0,l),
(512,549,l),
(542,714,l),
(94,714,l),
(67,561,l),
(488,561,l),
(382,694,l),
(15,0,l)
);
}
);
width = 474;
},
{
layerId = "406F15BE-EF31-460D-8EE8-85AD72A74E98";
shapes = (
{
closed = 1;
nodes = (
(272,0,l),
(625,542,l),
(656,714,l),
(103,714,l),
(75,551,l),
(601,551,l),
(504,694,l),
(42,0,l)
);
}
);
width = 597;
},
{
layerId = "974B3D67-9F33-42CE-B7A8-3E18495C5B4F";
shapes = (
{
closed = 1;
nodes = (
(387,0,l),
(849,534,l),
(880,714,l),
(102,714,l),
(71,547,l),
(826,547,l),
(720,687,l),
(113,0,l)
);
}
);
width = 820;
}
);
unicode = 55;
}
{
category = Number;
color = 6;
glyphname = eight;
kernLeft = eight;
kernRight = eight;
layers = (
{
layerId = m007;
shapes = (
{
closed = 1;
nodes = (
(651,-14,o),
(756,73,o),
(756,196,cs),
(756,300,o),
(671,367,o),
(532,381,c),
(661,400,o),
(724,461,o),
(723,547,cs),
(722,652,o),
(620,728,o),
(409,728,cs),
(197,728,o),
(95,650,o),
(95,547,cs),
(95,461,o),
(157,400,o),
(286,381,c),
(147,367,o),
(62,300,o),
(62,196,cs),
(62,73,o),
(167,-14,o),
(409,-14,cs)
);
},
{
closed = 1;
nodes = (
(221,44,o),
(136,105,o),
(136,200,cs),
(136,295,o),
(221,352,o),
(409,352,cs),
(597,352,o),
(682,295,o),
(682,200,cs),
(682,105,o),
(597,44,o),
(409,44,cs)
);
},
{
closed = 1;
nodes = (
(251,407,o),
(166,457,o),
(166,540,cs),
(166,622,o),
(251,672,o),
(409,672,cs),
(567,672,o),
(652,622,o),
(652,540,cs),
(652,457,o),
(567,407,o),
(409,407,cs)
);
}
);
width = 818;
},
{
layerId = "7DF63F5B-BA78-420A-94D8-89AFC26E7780";
shapes = (
{
closed = 1;
nodes = (
(660,-14,o),
(775,71,o),
(775,194,cs),
(775,298,o),
(687,366,o),
(549,381,c),
(677,401,o),
(743,460,o),
(743,544,cs),
(743,654,o),
(627,728,o),
(416,728,cs),
(204,728,o),
(90,654,o),
(90,544,cs),
(90,460,o),
(155,401,o),
(284,381,c),
(145,366,o),
(57,298,o),
(57,194,cs),
(57,71,o),
(172,-14,o),
(416,-14,cs)
);
},
{
closed = 1;
nodes = (
(241,66,o),
(161,119,o),
(161,203,cs),
(161,287,o),
(241,340,o),
(416,340,cs),
(592,340,o),
(671,287,o),
(671,203,cs),
(671,119,o),
(592,66,o),
(416,66,cs)
);
},
{
closed = 1;
nodes = (
(267,417,o),
(190,461,o),
(190,536,cs),
(190,610,o),
(267,650,o),
(416,650,cs),
(565,650,o),
(643,610,o),
(643,536,cs),
(643,461,o),
(565,417,o),
(416,417,cs)
);
}
);
width = 832;
},
{
layerId = "CF630257-B204-4765-8982-527F59E4E5D4";
shapes = (
{
closed = 1;
nodes = (
(455,-12,o),
(557,77,o),
(557,196,cs),
(557,303,o),
(473,368,o),
(387,381,c),
(462,402,o),
(526,457,o),
(526,547,cs),
(526,652,o),
(431,726,o),
(310,726,cs),
(188,726,o),
(94,652,o),
(94,547,cs),
(94,457,o),
(158,402,o),
(234,381,c),
(147,368,o),
(63,303,o),
(63,196,cs),
(63,77,o),
(165,-12,o),
(310,-12,cs)
);
},
{
closed = 1;
nodes = (
(210,41,o),
(126,98,o),
(126,197,cs),
(126,296,o),
(210,354,o),
(310,354,cs),
(410,354,o),
(494,296,o),
(494,197,cs),
(494,98,o),
(410,41,o),
(310,41,cs)
);
},
{
closed = 1;
nodes = (
(232,407,o),
(157,453,o),
(157,541,cs),
(157,628,o),
(232,674,o),
(310,674,cs),
(389,674,o),
(463,628,o),
(463,541,cs),
(463,453,o),
(389,407,o),
(310,407,cs)
);
}
);
width = 620;
},
{
layerId = "89792DEA-715D-4C6B-9843-C33DBACDCF53";
shapes = (
{
closed = 1;
nodes = (
(384,-12,o),
(466,73,o),
(466,194,cs),
(466,305,o),
(395,368,o),
(321,383,c),
(400,406,o),
(442,467,o),
(442,550,cs),
(442,661,o),
(357,726,o),
(261,726,cs),
(166,726,o),
(82,661,o),
(82,550,cs),
(82,467,o),
(125,406,o),
(203,383,c),
(131,368,o),
(57,305,o),
(57,194,cs),
(57,73,o),
(140,-12,o),
(261,-12,cs)
);
},
{
closed = 1;
nodes = (
(185,38,o),
(119,88,o),
(119,195,cs),
(119,304,o),
(185,356,o),
(261,356,cs),
(339,356,o),
(404,304,o),
(404,195,cs),
(404,88,o),
(339,38,o),
(261,38,cs)
);
},
{
closed = 1;
nodes = (
(194,404,o),
(141,455,o),
(141,541,cs),
(141,626,o),
(194,676,o),
(261,676,cs),
(329,676,o),
(383,626,o),
(383,541,cs),
(383,455,o),
(329,404,o),
(261,404,cs)
);
}
);
width = 523;
},
{
layerId = "F5B2086A-EC1C-45D9-9613-A3504CEE232E";
shapes = (
{
closed = 1;
nodes = (
(400,-13,o),
(487,72,o),
(487,194,cs),
(487,303,o),
(418,365,o),
(341,381,c),
(420,407,o),
(464,471,o),
(464,554,cs),
(464,663,o),
(374,727,o),
(270,727,cs),
(165,727,o),
(75,663,o),
(75,554,cs),
(75,471,o),
(118,407,o),
(198,381,c),
(120,365,o),
(53,303,o),
(53,194,cs),
(53,72,o),
(140,-13,o),
(270,-13,cs)
);
},
{
closed = 1;
nodes = (
(196,56,o),
(141,107,o),
(141,201,cs),
(141,295,o),
(196,346,o),
(270,346,cs),
(344,346,o),
(400,295,o),
(400,201,cs),
(400,107,o),
(344,56,o),
(270,56,cs)
);
},
{
closed = 1;
nodes = (
(207,413,o),
(161,461,o),
(161,536,cs),
(161,610,o),
(207,658,o),
(270,658,cs),
(333,658,o),
(378,610,o),
(378,536,cs),
(378,461,o),
(333,413,o),
(270,413,cs)
);
}
);
width = 540;
},
{
layerId = "FEA946D2-303E-4050-8628-E645DE71E218";
shapes = (
{
closed = 1;
nodes = (
(454,-15,o),
(573,62,o),
(573,197,cs),
(573,297,o),
(500,366,o),
(410,384,c),
(490,404,o),
(545,469,o),
(544,548,cs),
(544,662,o),
(436,729,o),
(315,729,cs),
(195,729,o),
(88,662,o),
(87,548,cs),
(86,469,o),
(139,404,o),
(219,384,c),
(130,366,o),
(58,297,o),
(58,197,cs),
(58,62,o),
(177,-15,o),
(315,-15,cs)
);
},
{
closed = 1;
nodes = (
(228,63,o),
(155,111,o),
(155,201,cs),
(155,293,o),
(228,342,o),
(315,342,cs),
(404,342,o),
(476,293,o),
(476,201,cs),
(476,111,o),
(404,63,o),
(315,63,cs)
);
},
{
closed = 1;
nodes = (
(242,417,o),
(181,462,o),
(181,536,cs),
(181,608,o),
(242,653,o),
(315,653,cs),
(390,653,o),
(449,608,o),
(449,536,cs),
(449,462,o),
(390,417,o),
(315,417,cs)
);
}
);
width = 631;
},
{
layerId = "3A742E95-6392-47DA-98D0-C770A5889573";
shapes = (
{
closed = 1;
nodes = (
(368,-12,o),
(461,98,o),
(461,219,cs),
(461,318,o),
(404,370,o),
(342,383,c),
(452,408,o),
(491,503,o),
(491,576,cs),
(491,673,o),
(420,726,o),
(331,726,cs),
(221,726,o),
(126,639,o),
(126,522,cs),
(126,451,o),
(163,404,o),
(223,384,c),
(114,358,o),
(44,263,o),
(44,161,cs),
(44,55,o),
(118,-12,o),
(227,-12,cs)
);
},
{
closed = 1;
nodes = (
(162,38,o),
(106,74,o),
(106,163,cs),
(106,259,o),
(175,356,o),
(280,356,cs),
(347,356,o),
(399,320,o),
(399,229,cs),
(399,129,o),
(335,38,o),
(233,38,cs)
);
},
{
closed = 1;
nodes = (
(227,404,o),
(183,441,o),
(183,513,cs),
(183,594,o),
(243,676,o),
(328,676,cs),
(389,676,o),
(431,640,o),
(431,568,cs),
(431,487,o),
(373,404,o),
(285,404,cs)
);
}
);
width = 528;
},
{
layerId = "DA512DF4-6FCD-4164-96D6-05DE8967F50A";
shapes = (
{
closed = 1;
nodes = (
(453,-15,o),
(566,71,o),
(566,214,cs),
(566,294,o),
(506,360,o),
(433,381,c),
(514,404,o),
(580,462,o),
(580,551,cs),
(580,660,o),
(486,729,o),
(368,729,cs),
(237,729,o),
(131,651,o),
(131,530,cs),
(131,459,o),
(179,401,o),
(241,383,c),
(131,360,o),
(48,292,o),
(48,179,cs),
(48,54,o),
(160,-15,o),
(289,-15,cs)
);
},
{
closed = 1;
nodes = (
(205,63,o),
(145,108,o),
(145,192,cs),
(145,283,o),
(216,342,o),
(319,342,cs),
(408,342,o),
(469,296,o),
(469,214,cs),
(469,116,o),
(391,63,o),
(295,63,cs)
);
},
{
closed = 1;
nodes = (
(274,417,o),
(222,459,o),
(222,531,cs),
(222,610,o),
(286,653,o),
(360,653,cs),
(434,653,o),
(489,610,o),
(489,544,cs),
(489,461,o),
(421,417,o),
(348,417,cs)
);
}
);
width = 636;
},
{
layerId = "0A603DC7-0F9F-4E29-AC1C-80B527B5555F";
shapes = (
{
closed = 1;
nodes = (
(379,-13,o),
(475,97,o),
(475,219,cs),
(475,315,o),
(420,368,o),
(357,382,c),
(465,407,o),
(507,498,o),
(507,572,cs),
(507,671,o),
(434,727,o),
(335,727,cs),
(221,727,o),
(122,641,o),
(122,523,cs),
(122,454,o),
(160,404,o),
(219,384,c),
(111,358,o),
(40,265,o),
(40,164,cs),
(40,57,o),
(115,-13,o),
(232,-13,cs)
);
},
{
closed = 1;
nodes = (
(177,56,o),
(128,91,o),
(128,170,cs),
(128,257,o),
(188,346,o),
(284,346,cs),
(344,346,o),
(389,313,o),
(389,233,cs),
(389,143,o),
(334,56,o),
(240,56,cs)
);
},
{
closed = 1;
nodes = (
(241,413,o),
(203,445,o),
(203,510,cs),
(203,586,o),
(257,658,o),
(332,658,cs),
(386,658,o),
(423,628,o),
(423,563,cs),
(423,487,o),
(371,413,o),
(293,413,cs)
);
}
);
width = 538;
},
{
layerId = "38E57698-3E0D-47EE-AD12-065B63128021";
shapes = (
{
closed = 1;
nodes = (
(428,-12,o),
(553,75,o),
(553,209,cs),
(553,309,o),
(486,364,o),
(417,381,c),
(504,404,o),
(571,468,o),
(571,562,cs),
(571,653,o),
(487,726,o),
(369,726,cs),
(239,726,o),
(135,646,o),
(135,532,cs),
(135,458,o),
(185,404,o),
(244,384,c),
(153,365,o),
(53,298,o),
(53,182,cs),
(53,69,o),
(149,-12,o),
(284,-12,cs)
);
},
{
closed = 1;
nodes = (
(202,41,o),
(116,90,o),
(116,186,cs),
(116,288,o),
(209,354,o),
(318,354,cs),
(407,354,o),
(490,303,o),
(490,208,cs),
(490,111,o),
(398,41,o),
(291,41,cs)
);
},
{
closed = 1;
nodes = (
(258,406,o),
(197,452,o),
(197,532,cs),
(197,618,o),
(275,674,o),
(359,674,cs),
(454,674,o),
(509,624,o),
(509,554,cs),
(509,472,o),
(429,406,o),
(340,406,cs)
);
}
);
width = 628;
},
{
layerId = "7B4F6316-DEA5-4C61-853A-FCC6E55FB2E9";
shapes = (
{
closed = 1;
nodes = (
(583,-14,o),
(750,59,o),
(750,213,cs),
(750,310,o),
(675,368,o),
(556,381,c),
(675,399,o),
(770,453,o),
(770,563,cs),
(770,658,o),
(674,728,o),
(470,728,cs),
(303,728,o),
(138,674,o),
(138,530,cs),
(138,454,o),
(198,398,o),
(305,381,c),
(165,367,o),
(51,301,o),
(51,177,cs),
(51,61,o),
(147,-14,o),
(376,-14,cs)
);
},
{
closed = 1;
nodes = (
(202,44,o),
(124,94,o),
(124,183,cs),
(124,308,o),
(277,352,o),
(429,352,cs),
(603,352,o),
(676,304,o),
(676,214,cs),
(676,94,o),
(530,44,o),
(383,44,cs)
);
},
{
closed = 1;
nodes = (
(291,407,o),
(209,451,o),
(209,523,cs),
(209,631,o),
(344,672,o),
(467,672,cs),
(622,672,o),
(699,628,o),
(699,556,cs),
(699,464,o),
(607,407,o),
(436,407,cs)
);
}
);
width = 823;
},
{
layerId = "FF0E7F91-EBB7-4227-9826-320229507C52";
shapes = (
{
closed = 1;
nodes = (
(590,-14,o),
(763,56,o),
(763,212,cs),
(763,308,o),
(689,368,o),
(573,381,c),
(689,399,o),
(781,453,o),
(781,559,cs),
(781,659,o),
(678,728,o),
(474,728,cs),
(302,728,o),
(131,673,o),
(131,530,cs),
(131,454,o),
(191,398,o),
(296,381,c),
(156,367,o),
(46,299,o),
(46,180,cs),
(46,61,o),
(149,-14,o),
(379,-14,cs)
);
},
{
closed = 1;
nodes = (
(221,66,o),
(150,109,o),
(150,190,cs),
(150,300,o),
(284,340,o),
(430,340,cs),
(591,340,o),
(659,299,o),
(659,217,cs),
(659,112,o),
(531,66,o),
(388,66,cs)
);
},
{
closed = 1;
nodes = (
(304,417,o),
(230,454,o),
(230,519,cs),
(230,613,o),
(348,650,o),
(468,650,cs),
(612,650,o),
(682,614,o),
(682,548,cs),
(682,467,o),
(599,417,o),
(439,417,cs)
);
}
);
width = 831;
},
{
layerId = "F74FB5BD-F4A6-4696-AECE-814F0CF1BFBE";
shapes = (
{
closed = 1;
nodes = (
(443,-13,o),
(538,75,o),
(538,197,cs),
(538,293,o),
(478,358,o),
(398,380,c),
(480,409,o),
(516,467,o),
(516,541,cs),
(516,653,o),
(423,727,o),
(283,727,cs),
(143,727,o),
(51,653,o),
(51,541,cs),
(51,467,o),
(88,409,o),
(171,380,c),
(90,358,o),
(28,293,o),
(28,197,cs),
(28,75,o),
(123,-13,o),
(283,-13,cs)
);
},
{
closed = 1;
nodes = (
(248,139,o),
(224,169,o),
(224,223,cs),
(224,279,o),
(248,310,o),
(283,310,cs),
(319,310,o),
(342,279,o),
(342,223,cs),
(342,169,o),
(319,139,o),
(283,139,cs)
);
},
{
closed = 1;
nodes = (
(254,449,o),
(238,475,o),
(238,519,cs),
(238,562,o),
(254,591,o),
(283,591,cs),
(311,591,o),
(330,562,o),
(330,519,cs),
(330,475,o),
(311,449,o),
(283,449,cs)
);
}
);
width = 566;
},
{
layerId = "3E78BF7E-2ACA-4E8F-B7F7-8733FDFDD1D6";
shapes = (
{
closed = 1;
nodes = (
(500,-15,o),
(626,60,o),
(626,199,cs),
(626,301,o),
(553,359,o),
(481,376,c),
(556,407,o),
(595,461,o),
(595,535,cs),
(595,659,o),
(482,729,o),
(336,729,cs),
(188,729,o),
(78,659,o),
(78,535,cs),
(78,461,o),
(120,407,o),
(196,376,c),
(124,359,o),
(44,301,o),
(44,199,cs),
(44,60,o),
(171,-15,o),
(336,-15,cs)
);
},
{
closed = 1;
nodes = (
(281,141,o),
(245,174,o),
(245,224,cs),
(245,274,o),
(281,308,o),
(336,308,cs),
(389,308,o),
(425,274,o),
(425,224,cs),
(425,174,o),
(389,141,o),
(336,141,cs)
);
},
{
closed = 1;
nodes = (
(293,447,o),
(260,474,o),
(260,513,cs),
(260,551,o),
(293,580,o),
(336,580,cs),
(377,580,o),
(411,551,o),
(411,513,cs),
(411,474,o),
(377,447,o),
(336,447,cs)
);
}
);
width = 670;
},
{
layerId = "CEA8704A-49A9-4D73-A586-1E9554ACC001";
shapes = (
{
closed = 1;
nodes = (
(699,-15,o),
(835,67,o),
(835,199,cs),
(835,296,o),
(754,361,o),
(644,376,c),
(740,391,o),
(804,457,o),
(804,535,cs),
(804,657,o),
(662,729,o),
(440,729,cs),
(217,729,o),
(78,657,o),
(78,535,cs),
(78,457,o),
(146,391,o),
(242,376,c),
(133,361,o),
(45,296,o),
(45,199,cs),
(45,67,o),
(183,-15,o),
(440,-15,cs)
);
},
{
closed = 1;
nodes = (
(324,151,o),
(274,179,o),
(274,225,cs),
(274,271,o),
(324,300,o),
(440,300,cs),
(556,300,o),
(605,271,o),
(605,225,cs),
(605,179,o),
(556,151,o),
(440,151,cs)
);
},
{
closed = 1;
nodes = (
(339,450,o),
(290,471,o),
(290,510,cs),
(290,548,o),
(339,570,o),
(440,570,cs),
(542,570,o),
(591,548,o),
(591,510,cs),
(591,471,o),
(542,450,o),
(440,450,cs)
);
}
);
width = 880;
},
{
layerId = "5974A488-68BA-4ECA-A629-BBB8F5E8E8D7";
shapes = (
{
closed = 1;
nodes = (
(419,-13,o),
(531,90,o),
(531,217,cs),
(531,304,o),
(483,359,o),
(418,378,c),
(517,405,o),
(571,477,o),
(571,557,cs),
(571,662,o),
(488,727,o),
(349,727,cs),
(216,727,o),
(101,648,o),
(101,529,cs),
(101,465,o),
(141,404,o),
(197,382,c),
(92,358,o),
(17,275,o),
(17,176,cs),
(17,66,o),
(97,-13,o),
(249,-13,cs)
);
},
{
closed = 1;
nodes = (
(235,139,o),
(216,164,o),
(216,199,cs),
(216,247,o),
(239,310,o),
(297,310,cs),
(328,310,o),
(343,285,o),
(343,248,cs),
(343,203,o),
(323,139,o),
(266,139,cs)
);
},
{
closed = 1;
nodes = (
(298,449,o),
(282,464,o),
(282,497,cs),
(282,550,o),
(310,591,o),
(345,591,cs),
(367,591,o),
(382,574,o),
(382,540,cs),
(382,486,o),
(355,449,o),
(321,449,cs)
);
}
);
width = 569;
},
{
layerId = "406F15BE-EF31-460D-8EE8-85AD72A74E98";
shapes = (
{
closed = 1;
nodes = (
(475,-15,o),
(615,59,o),
(615,217,cs),
(615,298,o),
(556,358,o),
(495,372,c),
(570,404,o),
(624,457,o),
(624,543,cs),
(624,668,o),
(521,729,o),
(381,729,cs),
(229,729,o),
(107,653,o),
(107,519,cs),
(107,457,o),
(147,406,o),
(202,383,c),
(105,354,o),
(36,290,o),
(36,187,cs),
(36,54,o),
(155,-15,o),
(305,-15,cs)
);
},
{
closed = 1;
nodes = (
(277,141,o),
(235,167,o),
(235,216,cs),
(235,273,o),
(278,308,o),
(333,308,cs),
(374,308,o),
(414,282,o),
(414,232,cs),
(414,174,o),
(372,141,o),
(319,141,cs)
);
},
{
closed = 1;
nodes = (
(322,447,o),
(290,465,o),
(290,506,cs),
(290,555,o),
(330,580,o),
(371,580,cs),
(411,580,o),
(441,557,o),
(441,516,cs),
(441,466,o),
(402,447,o),
(362,447,cs)
);
}
);
width = 671;
},
{
layerId = "974B3D67-9F33-42CE-B7A8-3E18495C5B4F";
shapes = (
{
closed = 1;
nodes = (
(625,-15,o),
(827,44,o),
(827,210,cs),
(827,300,o),
(755,360,o),
(658,374,c),
(756,392,o),
(839,453,o),
(839,545,cs),
(839,661,o),
(705,729,o),
(500,729,cs),
(311,729,o),
(111,671,o),
(111,529,cs),
(111,452,o),
(173,391,o),
(267,377,c),
(129,359,o),
(35,290,o),
(35,187,cs),
(35,61,o),
(165,-15,o),
(402,-15,cs)
);
},
{
closed = 1;
nodes = (
(313,151,o),
(265,174,o),
(265,220,cs),
(265,264,o),
(317,300,o),
(445,300,cs),
(550,300,o),
(597,277,o),
(597,232,cs),
(597,188,o),
(547,151,o),
(419,151,cs)
);
},
{
closed = 1;
nodes = (
(371,450,o),
(324,465,o),
(324,505,cs),
(324,540,o),
(377,570,o),
(482,570,cs),
(579,570,o),
(627,556,o),
(627,515,cs),
(627,479,o),
(574,450,o),
(463,450,cs)
);
}
);
width = 883;
}
);
unicode = 56;
}
{
category = Number;
color = 6;
glyphname = nine;
kernLeft = nine;
kernRight = nine;
layers = (
{
layerId = m007;
shapes = (
{
closed = 1;
nodes = (
(628,-14,o),
(762,117,o),
(762,364,cs),
(762,637,o),
(646,728,o),
(404,728,cs),
(167,728,o),
(57,634,o),
(57,488,cs),
(57,341,o),
(170,247,o),
(392,247,cs),
(555,247,o),
(656,302,o),
(696,413,c),
(690,418,l),
(690,415,o),
(690,411,o),
(690,408,cs),
(690,179,o),
(620,44,o),
(393,44,cs),
(224,44,o),
(167,88,o),
(148,158,c),
(74,158,l),
(85,70,o),
(160,-14,o),
(390,-14,cs)
);
},
{
closed = 1;
nodes = (
(205,305,o),
(130,389,o),
(130,488,cs),
(130,586,o),
(205,670,o),
(403,670,cs),
(600,670,o),
(675,586,o),
(675,488,cs),
(675,389,o),
(586,305,o),
(402,305,cs)
);
}
);
width = 819;
},
{
layerId = "7DF63F5B-BA78-420A-94D8-89AFC26E7780";
shapes = (
{
closed = 1;
nodes = (
(639,-14,o),
(779,115,o),
(779,363,cs),
(779,627,o),
(664,728,o),
(411,728,cs),
(163,728,o),
(52,630,o),
(52,484,cs),
(52,339,o),
(164,243,o),
(391,243,cs),
(540,243,o),
(645,293,o),
(685,385,c),
(676,395,l),
(676,392,o),
(676,389,o),
(676,386,cs),
(676,174,o),
(604,66,o),
(400,66,cs),
(244,66,o),
(188,105,o),
(172,166,c),
(68,166,l),
(80,66,o),
(162,-14,o),
(396,-14,cs)
);
},
{
closed = 1;
nodes = (
(230,321,o),
(156,396,o),
(156,484,cs),
(156,573,o),
(232,648,o),
(409,648,cs),
(585,648,o),
(662,573,o),
(662,484,cs),
(662,396,o),
(585,321,o),
(408,321,cs)
);
}
);
width = 831;
},
{
layerId = "CF630257-B204-4765-8982-527F59E4E5D4";
shapes = (
{
closed = 1;
nodes = (
(449,-12,o),
(565,106,o),
(565,360,cs),
(565,628,o),
(448,726,o),
(308,726,cs),
(166,726,o),
(63,627,o),
(63,483,cs),
(63,335,o),
(174,251,o),
(301,251,cs),
(398,251,o),
(479,314,o),
(508,412,c),
(500,424,l),
(503,400,o),
(503,386,o),
(503,359,cs),
(503,157,o),
(428,41,o),
(300,41,cs),
(212,41,o),
(166,81,o),
(152,137,c),
(90,137,l),
(92,71,o),
(160,-12,o),
(298,-12,cs)
);
},
{
closed = 1;
nodes = (
(197,304,o),
(126,389,o),
(126,489,cs),
(126,587,o),
(197,673,o),
(307,673,cs),
(414,673,o),
(487,587,o),
(487,489,cs),
(487,389,o),
(414,304,o),
(307,304,cs)
);
}
);
width = 628;
},
{
layerId = "89792DEA-715D-4C6B-9843-C33DBACDCF53";
shapes = (
{
closed = 1;
nodes = (
(375,-12,o),
(470,117,o),
(470,374,cs),
(470,605,o),
(392,726,o),
(254,726,cs),
(138,726,o),
(53,637,o),
(53,488,cs),
(53,337,o),
(139,252,o),
(245,252,cs),
(332,252,o),
(394,306,o),
(418,402,c),
(413,405,l),
(413,382,o),
(412,359,o),
(411,338,cs),
(398,143,o),
(341,38,o),
(242,38,cs),
(177,38,o),
(137,81,o),
(130,139,c),
(70,139,l),
(73,68,o),
(127,-12,o),
(238,-12,cs)
);
},
{
closed = 1;
nodes = (
(172,302,o),
(115,369,o),
(115,489,cs),
(115,608,o),
(172,676,o),
(254,676,cs),
(334,676,o),
(394,608,o),
(394,489,cs),
(394,369,o),
(334,302,o),
(254,302,cs)
);
}
);
width = 523;
},
{
layerId = "F5B2086A-EC1C-45D9-9613-A3504CEE232E";
shapes = (
{
closed = 1;
nodes = (
(380,-13,o),
(481,116,o),
(481,374,cs),
(481,605,o),
(403,727,o),
(258,727,cs),
(135,727,o),
(48,636,o),
(48,486,cs),
(48,335,o),
(132,249,o),
(242,249,cs),
(324,249,o),
(387,302,o),
(410,390,c),
(400,426,l),
(402,412,o),
(403,396,o),
(403,384,cs),
(403,190,o),
(339,56,o),
(246,56,cs),
(192,56,o),
(157,92,o),
(148,146,c),
(61,146,l),
(66,66,o),
(130,-13,o),
(242,-13,cs)
);
},
{
closed = 1;
nodes = (
(187,315,o),
(135,376,o),
(135,487,cs),
(135,597,o),
(187,658,o),
(258,658,cs),
(329,658,o),
(381,597,o),
(381,487,cs),
(381,376,o),
(329,315,o),
(258,315,cs)
);
}
);
width = 529;
},
{
layerId = "FEA946D2-303E-4050-8628-E645DE71E218";
shapes = (
{
closed = 1;
nodes = (
(450,-15,o),
(578,102,o),
(578,359,cs),
(578,630,o),
(460,729,o),
(310,729,cs),
(164,729,o),
(58,633,o),
(58,483,cs),
(58,334,o),
(168,247,o),
(294,247,cs),
(386,247,o),
(464,303,o),
(491,389,c),
(482,398,l),
(482,390,o),
(482,382,o),
(482,374,cs),
(482,162,o),
(418,61,o),
(305,61,cs),
(246,61,o),
(197,86,o),
(180,144,c),
(86,144,l),
(93,57,o),
(167,-15,o),
(301,-15,cs)
);
},
{
closed = 1;
nodes = (
(222,322,o),
(155,389,o),
(155,488,cs),
(155,586,o),
(222,651,o),
(310,651,cs),
(400,651,o),
(465,586,o),
(465,488,cs),
(465,389,o),
(400,322,o),
(310,322,cs)
);
}
);
width = 636;
},
{
layerId = "3A742E95-6392-47DA-98D0-C770A5889573";
shapes = (
{
closed = 1;
nodes = (
(435,-12,o),
(505,329,o),
(505,486,cs),
(505,649,o),
(448,726,o),
(330,726,cs),
(178,726,o),
(90,582,o),
(90,440,cs),
(90,316,o),
(157,252,o),
(249,252,cs),
(338,252,o),
(406,303,o),
(444,399,c),
(441,414,l),
(438,392,o),
(436,381,o),
(432,361,cs),
(390,151,o),
(314,38,o),
(217,38,cs),
(149,38,o),
(117,81,o),
(118,139,c),
(59,139,l),
(50,64,o),
(107,-12,o),
(211,-12,cs)
);
},
{
closed = 1;
nodes = (
(194,302,o),
(152,347,o),
(152,441,cs),
(152,531,o),
(202,676,o),
(329,676,cs),
(398,676,o),
(442,630,o),
(442,534,cs),
(442,431,o),
(375,302,o),
(264,302,cs)
);
}
);
width = 529;
},
{
layerId = "DA512DF4-6FCD-4164-96D6-05DE8967F50A";
shapes = (
{
closed = 1;
nodes = (
(507,-15,o),
(612,251,o),
(612,429,cs),
(612,640,o),
(501,729,o),
(364,729,cs),
(213,729,o),
(99,616,o),
(99,468,cs),
(99,319,o),
(204,247,o),
(317,247,cs),
(408,247,o),
(482,290,o),
(523,366,c),
(517,377,l),
(516,363,o),
(514,350,o),
(511,337,cs),
(482,171,o),
(392,61,o),
(285,61,cs),
(230,61,o),
(187,87,o),
(173,144,c),
(79,144,l),
(86,61,o),
(156,-15,o),
(277,-15,cs)
);
},
{
closed = 1;
nodes = (
(259,322,o),
(197,373,o),
(197,477,cs),
(197,577,o),
(260,651,o),
(362,651,cs),
(450,651,o),
(510,591,o),
(510,497,cs),
(510,404,o),
(450,322,o),
(337,322,cs)
);
}
);
width = 648;
},
{
layerId = "0A603DC7-0F9F-4E29-AC1C-80B527B5555F";
shapes = (
{
closed = 1;
nodes = (
(445,-13,o),
(517,322,o),
(517,481,cs),
(517,645,o),
(456,726,o),
(332,726,cs),
(174,726,o),
(85,584,o),
(85,438,cs),
(85,318,o),
(150,248,o),
(246,248,cs),
(327,248,o),
(394,299,o),
(432,390,c),
(427,396,l),
(423,371,o),
(418,345,o),
(412,323,cs),
(371,147,o),
(307,55,o),
(222,55,cs),
(164,55,o),
(138,93,o),
(135,144,c),
(52,144,l),
(45,62,o),
(104,-13,o),
(213,-13,cs)
);
},
{
closed = 1;
nodes = (
(208,314,o),
(171,356,o),
(171,439,cs),
(171,522,o),
(216,657,o),
(330,657,cs),
(391,657,o),
(430,615,o),
(430,531,cs),
(430,438,o),
(372,314,o),
(270,314,cs)
);
}
);
width = 536;
},
{
layerId = "38E57698-3E0D-47EE-AD12-065B63128021";
shapes = (
{
closed = 1;
nodes = (
(501,-12,o),
(593,267,o),
(593,454,cs),
(593,651,o),
(491,726,o),
(372,726,cs),
(211,726,o),
(102,602,o),
(102,457,cs),
(102,315,o),
(192,248,o),
(310,248,cs),
(404,248,o),
(482,294,o),
(534,382,c),
(527,385,l),
(526,376,o),
(524,366,o),
(522,357,cs),
(486,151,o),
(398,41,o),
(270,41,cs),
(201,41,o),
(156,79,o),
(142,137,c),
(79,137,l),
(88,59,o),
(148,-12,o),
(266,-12,cs)
);
},
{
closed = 1;
nodes = (
(218,301,o),
(165,370,o),
(165,466,cs),
(165,583,o),
(257,673,o),
(371,673,cs),
(472,673,o),
(528,593,o),
(528,508,cs),
(528,391,o),
(430,301,o),
(327,301,cs)
);
}
);
width = 631;
},
{
layerId = "7B4F6316-DEA5-4C61-853A-FCC6E55FB2E9";
shapes = (
{
closed = 1;
nodes = (
(680,-14,o),
(796,224,o),
(796,442,cs),
(796,653,o),
(677,728,o),
(458,728,cs),
(262,728,o),
(98,649,o),
(98,466,cs),
(98,339,o),
(218,247,o),
(415,247,cs),
(570,247,o),
(678,298,o),
(726,392,c),
(721,395,l),
(719,381,o),
(717,367,o),
(715,353,cs),
(680,152,o),
(564,44,o),
(384,44,cs),
(226,44,o),
(167,87,o),
(153,158,c),
(82,158,l),
(88,70,o),
(159,-14,o),
(375,-14,cs)
);
},
{
closed = 1;
nodes = (
(247,305,o),
(171,379,o),
(171,474,cs),
(171,604,o),
(295,670,o),
(461,670,cs),
(646,670,o),
(723,594,o),
(723,501,cs),
(723,372,o),
(587,305,o),
(433,305,cs)
);
}
);
width = 830;
},
{
layerId = "FF0E7F91-EBB7-4227-9826-320229507C52";
shapes = (
{
closed = 1;
nodes = (
(689,-14,o),
(810,222,o),
(810,439,cs),
(810,648,o),
(692,728,o),
(466,728,cs),
(264,728,o),
(93,650,o),
(93,466,cs),
(93,339,o),
(212,243,o),
(410,243,cs),
(559,243,o),
(666,293,o),
(717,388,c),
(708,393,l),
(707,380,o),
(705,366,o),
(703,353,cs),
(670,166,o),
(558,63,o),
(388,63,cs),
(249,63,o),
(193,100,o),
(178,166,c),
(77,166,l),
(83,72,o),
(157,-14,o),
(378,-14,cs)
);
},
{
closed = 1;
nodes = (
(267,321,o),
(197,388,o),
(197,474,cs),
(197,588,o),
(309,648,o),
(467,648,cs),
(637,648,o),
(709,583,o),
(709,499,cs),
(709,386,o),
(586,321,o),
(438,321,cs)
);
}
);
width = 839;
},
{
layerId = "F74FB5BD-F4A6-4696-AECE-814F0CF1BFBE";
shapes = (
{
closed = 1;
nodes = (
(432,-14,o),
(541,116,o),
(541,378,cs),
(541,606,o),
(454,726,o),
(276,726,cs),
(128,726,o),
(29,634,o),
(29,475,cs),
(29,350,o),
(95,252,o),
(216,252,cs),
(292,252,o),
(345,290,o),
(363,357,c),
(338,403,l),
(343,371,o),
(345,330,o),
(345,303,cs),
(345,198,o),
(316,135,o),
(270,135,cs),
(251,135,o),
(234,146,o),
(229,169,c),
(36,169,l),
(47,59,o),
(124,-14,o),
(266,-14,cs)
);
},
{
closed = 1;
nodes = (
(243,381,o),
(223,417,o),
(223,477,cs),
(223,540,o),
(243,574,o),
(278,574,cs),
(315,574,o),
(334,540,o),
(334,477,cs),
(334,417,o),
(315,381,o),
(278,381,cs)
);
}
);
width = 569;
},
{
layerId = "3E78BF7E-2ACA-4E8F-B7F7-8733FDFDD1D6";
shapes = (
{
closed = 1;
nodes = (
(505,-15,o),
(630,108,o),
(630,361,cs),
(630,610,o),
(516,729,o),
(331,729,cs),
(148,729,o),
(45,630,o),
(45,474,cs),
(45,327,o),
(157,244,o),
(275,244,cs),
(356,244,o),
(426,290,o),
(446,358,c),
(428,402,l),
(430,380,o),
(430,359,o),
(430,340,cs),
(430,165,o),
(368,130,o),
(323,130,cs),
(286,130,o),
(268,145,o),
(260,166,c),
(64,166,l),
(70,64,o),
(162,-15,o),
(319,-15,cs)
);
},
{
closed = 1;
nodes = (
(283,392,o),
(245,424,o),
(245,480,cs),
(245,538,o),
(283,570,o),
(331,570,cs),
(379,570,o),
(418,538,o),
(418,480,cs),
(418,424,o),
(379,392,o),
(331,392,cs)
);
}
);
width = 675;
},
{
layerId = "CEA8704A-49A9-4D73-A586-1E9554ACC001";
shapes = (
{
closed = 1;
nodes = (
(705,-15,o),
(845,130,o),
(845,360,cs),
(845,605,o),
(734,729,o),
(440,729,cs),
(148,729,o),
(40,620,o),
(40,475,cs),
(40,340,o),
(146,244,o),
(355,244,cs),
(496,244,o),
(609,288,o),
(640,355,c),
(621,393,l),
(623,375,o),
(624,358,o),
(624,342,cs),
(624,188,o),
(547,143,o),
(426,143,cs),
(356,143,o),
(301,155,o),
(289,185,c),
(61,185,l),
(75,71,o),
(178,-15,o),
(429,-15,cs)
);
},
{
closed = 1;
nodes = (
(319,401,o),
(270,429,o),
(270,481,cs),
(270,533,o),
(319,562,o),
(440,562,cs),
(561,562,o),
(611,533,o),
(611,481,cs),
(611,429,o),
(562,401,o),
(440,401,cs)
);
}
);
width = 885;
},
{
layerId = "5974A488-68BA-4ECA-A629-BBB8F5E8E8D7";
shapes = (
{
closed = 1;
nodes = (
(493,-13,o),
(574,298,o),
(574,463,cs),
(574,632,o),
(494,727,o),
(343,727,cs),
(162,727,o),
(66,598,o),
(66,436,cs),
(66,333,o),
(121,253,o),
(234,253,cs),
(299,253,o),
(351,287,o),
(390,355,c),
(369,396,l),
(368,368,o),
(365,337,o),
(363,324,cs),
(345,209,o),
(297,136,o),
(249,136,cs),
(231,136,o),
(216,149,o),
(213,170,c),
(24,170,l),
(26,59,o),
(95,-13,o),
(227,-13,cs)
);
},
{
closed = 1;
nodes = (
(272,382,o),
(259,402,o),
(259,438,cs),
(259,491,o),
(279,575,o),
(337,575,cs),
(366,575,o),
(380,556,o),
(380,521,cs),
(380,472,o),
(364,382,o),
(301,382,cs)
);
}
);
width = 575;
},
{
layerId = "406F15BE-EF31-460D-8EE8-85AD72A74E98";
shapes = (
{
closed = 1;
nodes = (
(588,-15,o),
(673,238,o),
(673,419,cs),
(673,622,o),
(572,729,o),
(389,729,cs),
(213,729,o),
(86,632,o),
(86,460,cs),
(86,320,o),
(195,244,o),
(302,244,cs),
(386,244,o),
(451,285,o),
(484,358,c),
(472,386,l),
(470,371,o),
(468,356,o),
(466,342,cs),
(443,211,o),
(386,130,o),
(318,130,cs),
(288,130,o),
(265,141,o),
(256,166,c),
(61,166,l),
(65,79,o),
(143,-15,o),
(305,-15,cs)
);
},
{
closed = 1;
nodes = (
(322,392,o),
(290,424,o),
(290,469,cs),
(290,530,o),
(326,570,o),
(388,570,cs),
(429,570,o),
(467,539,o),
(467,490,cs),
(467,431,o),
(427,392,o),
(369,392,cs)
);
}
);
width = 699;
},
{
layerId = "974B3D67-9F33-42CE-B7A8-3E18495C5B4F";
shapes = (
{
closed = 1;
nodes = (
(742,-15,o),
(876,215,o),
(876,428,cs),
(876,626,o),
(762,729,o),
(504,729,cs),
(278,729,o),
(79,654,o),
(79,466,cs),
(79,338,o),
(196,244,o),
(395,244,cs),
(524,244,o),
(618,284,o),
(685,366,c),
(658,372,l),
(658,355,o),
(657,339,o),
(654,324,cs),
(635,216,o),
(542,143,o),
(424,143,cs),
(354,143,o),
(306,154,o),
(287,185,c),
(64,185,l),
(73,82,o),
(165,-15,o),
(404,-15,cs)
);
},
{
closed = 1;
nodes = (
(357,401,o),
(311,420,o),
(311,473,cs),
(311,520,o),
(371,562,o),
(497,562,cs),
(607,562,o),
(656,543,o),
(656,489,cs),
(656,442,o),
(595,401,o),
(468,401,cs)
);
}
);
width = 893;
}
);
unicode = 57;
}
{
color = 6;
glyphname = less;
layers = (
{
layerId = m007;
shapes = (
{
closed = 1;
nodes = (
(641,112,l),
(107,322,l),
(107,286,l),
(641,497,l),
(641,568,l),
(75,335,l),
(75,273,l),
(641,42,l)
);
}
);
width = 716;
},
{
layerId = "7DF63F5B-BA78-420A-94D8-89AFC26E7780";
shapes = (
{
closed = 1;
nodes = (
(656,125,l),
(131,321,l),
(131,286,l),
(656,484,l),
(656,578,l),
(70,346,l),
(70,261,l),
(656,30,l)
);
}
);
width = 726;
},
{
layerId = "CF630257-B204-4765-8982-527F59E4E5D4";
shapes = (
{
closed = 1;
nodes = (
(591,97,l),
(93,301,l),
(93,269,l),
(591,474,l),
(591,538,l),
(65,313,l),
(65,257,l),
(591,33,l)
);
}
);
width = 656;
},
{
layerId = "89792DEA-715D-4C6B-9843-C33DBACDCF53";
shapes = (
{
closed = 1;
nodes = (
(481,125,l),
(91,289,l),
(91,259,l),
(481,424,l),
(481,485,l),
(65,300,l),
(65,248,l),
(481,64,l)
);
}
);
width = 546;
},
{
layerId = "F5B2086A-EC1C-45D9-9613-A3504CEE232E";
shapes = (
{
closed = 1;
nodes = (
(510,137,l),
(108,290,l),
(108,259,l),
(510,412,l),
(510,494,l),
(60,311,l),
(60,238,l),
(510,55,l)
);
}
);
width = 570;
},
{
layerId = "FEA946D2-303E-4050-8628-E645DE71E218";
shapes = (
{
closed = 1;
nodes = (
(612,126,l),
(123,303,l),
(123,265,l),
(612,443,l),
(612,537,l),
(60,326,l),
(60,244,l),
(612,32,l)
);
}
);
width = 672;
},
{
layerId = "3A742E95-6392-47DA-98D0-C770A5889573";
shapes = (
{
closed = 1;
nodes = (
(457,121,l),
(97,286,l),
(91,256,l),
(510,420,l),
(521,485,l),
(73,301,l),
(64,249,l),
(447,64,l)
);
}
);
width = 546;
},
{
layerId = "DA512DF4-6FCD-4164-96D6-05DE8967F50A";
shapes = (
{
closed = 1;
nodes = (
(588,120,l),
(130,298,l),
(124,260,l),
(644,437,l),
(662,537,l),
(72,325,l),
(58,243,l),
(573,32,l)
);
}
);
width = 672;
},
{
layerId = "0A603DC7-0F9F-4E29-AC1C-80B527B5555F";
shapes = (
{
closed = 1;
nodes = (
(488,132,l),
(115,285,l),
(109,254,l),
(537,407,l),
(551,494,l),
(70,311,l),
(58,238,l),
(474,55,l)
);
}
);
width = 570;
},
{
layerId = "38E57698-3E0D-47EE-AD12-065B63128021";
shapes = (
{
closed = 1;
nodes = (
(563,93,l),
(101,298,l),
(95,266,l),
(629,470,l),
(641,538,l),
(75,314,l),
(65,258,l),
(552,33,l)
);
}
);
width = 656;
},
{
layerId = "7B4F6316-DEA5-4C61-853A-FCC6E55FB2E9";
shapes = (
{
closed = 1;
nodes = (
(615,109,l),
(119,320,l),
(113,284,l),
(683,494,l),
(696,568,l),
(90,337,l),
(79,275,l),
(603,42,l)
);
}
);
width = 716;
},
{
layerId = "FF0E7F91-EBB7-4227-9826-320229507C52";
shapes = (
{
closed = 1;
nodes = (
(632,119,l),
(143,317,l),
(137,282,l),
(695,478,l),
(713,578,l),
(87,347,l),
(72,262,l),
(616,30,l)
);
}
);
width = 726;
},
{
layerId = "F74FB5BD-F4A6-4696-AECE-814F0CF1BFBE";
shapes = (
{
closed = 1;
nodes = (
(562,179,l),
(185,287,l),
(185,262,l),
(562,371,l),
(562,531,l),
(50,349,l),
(50,200,l),
(562,19,l)
);
}
);
width = 612;
},
{
layerId = "3E78BF7E-2ACA-4E8F-B7F7-8733FDFDD1D6";
shapes = (
{
closed = 1;
nodes = (
(635,223,l),
(228,310,l),
(228,300,l),
(635,388,l),
(635,557,l),
(45,385,l),
(45,223,l),
(635,52,l)
);
}
);
width = 680;
},
{
layerId = "CEA8704A-49A9-4D73-A586-1E9554ACC001";
shapes = (
{
closed = 1;
nodes = (
(665,208,l),
(235,324,l),
(235,299,l),
(665,414,l),
(665,600,l),
(55,399,l),
(55,223,l),
(665,23,l)
);
}
);
width = 720;
},
{
layerId = "5974A488-68BA-4ECA-A629-BBB8F5E8E8D7";
shapes = (
{
closed = 1;
nodes = (
(546,170,l),
(188,279,l),
(184,254,l),
(580,362,l),
(610,531,l),
(66,350,l),
(40,201,l),
(520,19,l)
);
}
);
width = 612;
},
{
layerId = "406F15BE-EF31-460D-8EE8-85AD72A74E98";
shapes = (
{
closed = 1;
nodes = (
(628,214,l),
(237,302,l),
(235,292,l),
(657,379,l),
(688,557,l),
(67,386,l),
(39,224,l),
(599,52,l)
);
}
);
width = 680;
},
{
layerId = "974B3D67-9F33-42CE-B7A8-3E18495C5B4F";
shapes = (
{
closed = 1;
nodes = (
(654,199,l),
(245,314,l),
(241,289,l),
(691,405,l),
(725,600,l),
(80,400,l),
(49,224,l),
(623,23,l)
);
}
);
width = 720;
}
);
unicode = 60;
}
{
color = 6;
glyphname = equal;
layers = (
{
layerId = m007;
shapes = (
{
closed = 1;
nodes = (
(641,390,l),
(641,448,l),
(75,448,l),
(75,390,l)
);
},
{
closed = 1;
nodes = (
(641,160,l),
(641,218,l),
(75,218,l),
(75,160,l)
);
}
);
width = 716;
},
{
layerId = "7DF63F5B-BA78-420A-94D8-89AFC26E7780";
shapes = (
{
closed = 1;
nodes = (
(656,382,l),
(656,464,l),
(70,464,l),
(70,382,l)
);
},
{
closed = 1;
nodes = (
(656,144,l),
(656,226,l),
(70,226,l),
(70,144,l)
);
}
);
width = 726;
},
{
layerId = "CF630257-B204-4765-8982-527F59E4E5D4";
shapes = (
{
closed = 1;
nodes = (
(591,364,l),
(591,414,l),
(65,414,l),
(65,364,l)
);
},
{
closed = 1;
nodes = (
(591,158,l),
(591,208,l),
(65,208,l),
(65,158,l)
);
}
);
width = 656;
},
{
layerId = "89792DEA-715D-4C6B-9843-C33DBACDCF53";
shapes = (
{
closed = 1;
nodes = (
(481,340,l),
(481,388,l),
(65,388,l),
(65,340,l)
);
},
{
closed = 1;
nodes = (
(481,160,l),
(481,208,l),
(65,208,l),
(65,160,l)
);
}
);
width = 546;
},
{
layerId = "F5B2086A-EC1C-45D9-9613-A3504CEE232E";
shapes = (
{
closed = 1;
nodes = (
(510,330,l),
(510,400,l),
(60,400,l),
(60,330,l)
);
},
{
closed = 1;
nodes = (
(510,148,l),
(510,218,l),
(60,218,l),
(60,148,l)
);
}
);
width = 570;
},
{
layerId = "FEA946D2-303E-4050-8628-E645DE71E218";
shapes = (
{
closed = 1;
nodes = (
(612,347,l),
(612,427,l),
(60,427,l),
(60,347,l)
);
},
{
closed = 1;
nodes = (
(612,122,l),
(612,202,l),
(60,202,l),
(60,122,l)
);
}
);
width = 672;
},
{
layerId = "3A742E95-6392-47DA-98D0-C770A5889573";
shapes = (
{
closed = 1;
nodes = (
(496,340,l),
(504,388,l),
(88,388,l),
(80,340,l)
);
},
{
closed = 1;
nodes = (
(464,160,l),
(472,208,l),
(56,208,l),
(48,160,l)
);
}
);
width = 546;
},
{
layerId = "DA512DF4-6FCD-4164-96D6-05DE8967F50A";
shapes = (
{
closed = 1;
nodes = (
(628,347,l),
(642,427,l),
(90,427,l),
(76,347,l)
);
},
{
closed = 1;
nodes = (
(588,122,l),
(602,202,l),
(50,202,l),
(36,122,l)
);
}
);
width = 672;
},
{
layerId = "0A603DC7-0F9F-4E29-AC1C-80B527B5555F";
shapes = (
{
closed = 1;
nodes = (
(523,330,l),
(535,400,l),
(85,400,l),
(73,330,l)
);
},
{
closed = 1;
nodes = (
(491,148,l),
(503,218,l),
(53,218,l),
(41,148,l)
);
}
);
width = 570;
},
{
layerId = "38E57698-3E0D-47EE-AD12-065B63128021";
shapes = (
{
closed = 1;
nodes = (
(611,364,l),
(620,414,l),
(94,414,l),
(85,364,l)
);
},
{
closed = 1;
nodes = (
(574,158,l),
(583,208,l),
(57,208,l),
(48,158,l)
);
}
);
width = 656;
},
{
layerId = "7B4F6316-DEA5-4C61-853A-FCC6E55FB2E9";
shapes = (
{
closed = 1;
nodes = (
(665,390,l),
(675,448,l),
(109,448,l),
(99,390,l)
);
},
{
closed = 1;
nodes = (
(625,160,l),
(635,218,l),
(69,218,l),
(59,160,l)
);
}
);
width = 716;
},
{
layerId = "FF0E7F91-EBB7-4227-9826-320229507C52";
shapes = (
{
closed = 1;
nodes = (
(679,382,l),
(693,464,l),
(107,464,l),
(93,382,l)
);
},
{
closed = 1;
nodes = (
(637,144,l),
(651,226,l),
(65,226,l),
(51,144,l)
);
}
);
width = 726;
},
{
layerId = "F74FB5BD-F4A6-4696-AECE-814F0CF1BFBE";
shapes = (
{
closed = 1;
nodes = (
(562,318,l),
(562,464,l),
(50,464,l),
(50,318,l)
);
},
{
closed = 1;
nodes = (
(562,84,l),
(562,230,l),
(50,230,l),
(50,84,l)
);
}
);
width = 612;
},
{
layerId = "3E78BF7E-2ACA-4E8F-B7F7-8733FDFDD1D6";
shapes = (
{
closed = 1;
nodes = (
(635,350,l),
(635,496,l),
(45,496,l),
(45,350,l)
);
},
{
closed = 1;
nodes = (
(635,113,l),
(635,259,l),
(45,259,l),
(45,113,l)
);
}
);
width = 680;
},
{
layerId = "CEA8704A-49A9-4D73-A586-1E9554ACC001";
shapes = (
{
closed = 1;
nodes = (
(665,359,l),
(665,517,l),
(55,517,l),
(55,359,l)
);
},
{
closed = 1;
nodes = (
(665,104,l),
(665,262,l),
(55,262,l),
(55,104,l)
);
}
);
width = 720;
},
{
layerId = "5974A488-68BA-4ECA-A629-BBB8F5E8E8D7";
shapes = (
{
closed = 1;
nodes = (
(573,318,l),
(599,464,l),
(87,464,l),
(61,318,l)
);
},
{
closed = 1;
nodes = (
(531,84,l),
(557,230,l),
(45,230,l),
(19,84,l)
);
}
);
width = 612;
},
{
layerId = "406F15BE-EF31-460D-8EE8-85AD72A74E98";
shapes = (
{
closed = 1;
nodes = (
(652,350,l),
(678,496,l),
(88,496,l),
(62,350,l)
);
},
{
closed = 1;
nodes = (
(610,113,l),
(636,259,l),
(46,259,l),
(20,113,l)
);
}
);
width = 680;
},
{
layerId = "974B3D67-9F33-42CE-B7A8-3E18495C5B4F";
shapes = (
{
closed = 1;
nodes = (
(684,359,l),
(711,517,l),
(101,517,l),
(74,359,l)
);
},
{
closed = 1;
nodes = (
(639,104,l),
(666,262,l),
(56,262,l),
(29,104,l)
);
}
);
width = 720;
}
);
unicode = 61;
}
{
color = 6;
glyphname = greater;
layers = (
{
layerId = m007;
shapes = (
{
closed = 1;
nodes = (
(641,273,l),
(641,335,l),
(75,568,l),
(75,497,l),
(609,286,l),
(609,322,l),
(75,112,l),
(75,42,l)
);
}
);
width = 716;
},
{
layerId = "7DF63F5B-BA78-420A-94D8-89AFC26E7780";
shapes = (
{
closed = 1;
nodes = (
(656,261,l),
(656,346,l),
(70,578,l),
(70,484,l),
(595,286,l),
(595,321,l),
(70,125,l),
(70,30,l)
);
}
);
width = 726;
},
{
layerId = "CF630257-B204-4765-8982-527F59E4E5D4";
shapes = (
{
closed = 1;
nodes = (
(591,257,l),
(591,313,l),
(65,538,l),
(65,474,l),
(563,269,l),
(563,301,l),
(65,97,l),
(65,33,l)
);
}
);
width = 656;
},
{
layerId = "89792DEA-715D-4C6B-9843-C33DBACDCF53";
shapes = (
{
closed = 1;
nodes = (
(481,248,l),
(481,300,l),
(65,485,l),
(65,424,l),
(455,259,l),
(455,289,l),
(65,125,l),
(65,64,l)
);
}
);
width = 546;
},
{
layerId = "F5B2086A-EC1C-45D9-9613-A3504CEE232E";
shapes = (
{
closed = 1;
nodes = (
(510,238,l),
(510,311,l),
(60,494,l),
(60,412,l),
(462,259,l),
(462,290,l),
(60,137,l),
(60,55,l)
);
}
);
width = 570;
},
{
layerId = "FEA946D2-303E-4050-8628-E645DE71E218";
shapes = (
{
closed = 1;
nodes = (
(612,244,l),
(612,326,l),
(60,537,l),
(60,443,l),
(549,265,l),
(549,303,l),
(60,126,l),
(60,32,l)
);
}
);
width = 672;
},
{
layerId = "3A742E95-6392-47DA-98D0-C770A5889573";
shapes = (
{
closed = 1;
nodes = (
(479,248,l),
(488,300,l),
(105,485,l),
(95,428,l),
(455,263,l),
(461,293,l),
(42,129,l),
(31,64,l)
);
}
);
width = 546;
},
{
layerId = "DA512DF4-6FCD-4164-96D6-05DE8967F50A";
shapes = (
{
closed = 1;
nodes = (
(610,244,l),
(624,326,l),
(109,537,l),
(94,449,l),
(552,271,l),
(558,309,l),
(38,132,l),
(20,32,l)
);
}
);
width = 672;
},
{
layerId = "0A603DC7-0F9F-4E29-AC1C-80B527B5555F";
shapes = (
{
closed = 1;
nodes = (
(507,238,l),
(519,311,l),
(103,494,l),
(89,417,l),
(462,264,l),
(468,295,l),
(40,142,l),
(26,55,l)
);
}
);
width = 570;
},
{
layerId = "38E57698-3E0D-47EE-AD12-065B63128021";
shapes = (
{
closed = 1;
nodes = (
(592,257,l),
(602,313,l),
(115,538,l),
(104,478,l),
(566,273,l),
(572,305,l),
(38,101,l),
(26,33,l)
);
}
);
width = 656;
},
{
layerId = "7B4F6316-DEA5-4C61-853A-FCC6E55FB2E9";
shapes = (
{
closed = 1;
nodes = (
(644,273,l),
(655,335,l),
(131,568,l),
(119,501,l),
(615,290,l),
(621,326,l),
(51,116,l),
(38,42,l)
);
}
);
width = 716;
},
{
layerId = "FF0E7F91-EBB7-4227-9826-320229507C52";
shapes = (
{
closed = 1;
nodes = (
(657,261,l),
(672,346,l),
(128,578,l),
(112,489,l),
(601,291,l),
(607,326,l),
(49,130,l),
(31,30,l)
);
}
);
width = 726;
},
{
layerId = "F74FB5BD-F4A6-4696-AECE-814F0CF1BFBE";
shapes = (
{
closed = 1;
nodes = (
(562,200,l),
(562,349,l),
(50,531,l),
(50,371,l),
(427,262,l),
(427,287,l),
(50,179,l),
(50,19,l)
);
}
);
width = 612;
},
{
layerId = "3E78BF7E-2ACA-4E8F-B7F7-8733FDFDD1D6";
shapes = (
{
closed = 1;
nodes = (
(635,223,l),
(635,385,l),
(45,557,l),
(45,388,l),
(452,300,l),
(452,310,l),
(45,223,l),
(45,52,l)
);
}
);
width = 680;
},
{
layerId = "CEA8704A-49A9-4D73-A586-1E9554ACC001";
shapes = (
{
closed = 1;
nodes = (
(665,223,l),
(665,399,l),
(55,600,l),
(55,414,l),
(485,299,l),
(485,324,l),
(55,208,l),
(55,23,l)
);
}
);
width = 720;
},
{
layerId = "5974A488-68BA-4ECA-A629-BBB8F5E8E8D7";
shapes = (
{
closed = 1;
nodes = (
(552,200,l),
(578,349,l),
(98,531,l),
(72,380,l),
(430,271,l),
(434,296,l),
(38,188,l),
(8,19,l)
);
}
);
width = 612;
},
{
layerId = "406F15BE-EF31-460D-8EE8-85AD72A74E98";
shapes = (
{
closed = 1;
nodes = (
(630,223,l),
(658,385,l),
(98,557,l),
(69,395,l),
(460,307,l),
(462,317,l),
(40,230,l),
(9,52,l)
);
}
);
width = 680;
},
{
layerId = "974B3D67-9F33-42CE-B7A8-3E18495C5B4F";
shapes = (
{
closed = 1;
nodes = (
(659,223,l),
(690,399,l),
(116,600,l),
(85,424,l),
(494,309,l),
(498,334,l),
(48,218,l),
(14,23,l)
);
}
);
width = 720;
}
);
unicode = 62;
}
